<svg width="594" height="291" viewBox="0 0 594 291" fill="none" xmlns="http://www.w3.org/2000/svg">
<g clip-path="url(#clip0_1102_3654)">
<rect width="594" height="291" fill="#F7F7F9"/>
<g clip-path="url(#clip1_1102_3654)">
<path d="M448.089 96.1826C456.554 96.1826 464.885 100.058 464.877 109.327C464.87 117.875 455.013 121.162 452.894 124.251C451.303 126.548 451.831 129.777 447.466 129.777C444.623 129.777 443.235 127.477 443.237 125.374C443.244 117.546 454.817 115.774 454.822 109.329C454.825 105.78 452.451 103.677 448.481 103.677C440.015 103.677 443.314 112.352 436.903 112.352C434.588 112.352 432.603 110.971 432.604 108.343C432.609 101.896 440.019 96.1826 448.089 96.1826ZM447.728 134.045C450.699 134.045 453.149 136.473 453.146 139.437C453.144 142.4 450.695 144.829 447.719 144.829C444.742 144.829 442.296 142.403 442.298 139.437C442.301 136.475 444.751 134.045 447.728 134.045Z" fill="#D1D5DB"/>
<path d="M424.274 132.221C415.809 132.221 407.478 128.345 407.486 119.076C407.493 110.528 417.35 107.24 419.469 104.152C421.06 101.854 420.532 98.6263 424.897 98.6263C427.741 98.6263 429.127 100.925 429.126 103.029C429.119 110.856 417.547 112.628 417.542 119.074C417.538 122.622 419.912 124.726 423.883 124.726C432.347 124.726 429.049 116.051 435.461 116.051C437.775 116.051 439.761 117.431 439.758 120.059C439.755 126.507 432.345 132.221 424.274 132.221ZM424.635 94.3585C421.663 94.3585 419.214 91.929 419.217 88.9663C419.219 86.003 421.668 83.5737 424.644 83.5737C427.621 83.5737 430.067 86 430.065 88.9663C430.063 91.9272 427.611 94.3585 424.635 94.3585Z" fill="#E5E7EB"/>
<path d="M376.319 96.1826C384.784 96.1826 393.115 100.058 393.107 109.327C393.1 117.875 383.243 121.162 381.124 124.251C379.533 126.548 380.061 129.777 375.696 129.777C372.853 129.777 371.465 127.477 371.467 125.374C371.474 117.546 383.047 115.774 383.052 109.329C383.055 105.78 380.681 103.677 376.71 103.677C368.245 103.677 371.543 112.352 365.133 112.352C362.818 112.352 360.833 110.971 360.834 108.343C360.838 101.896 368.249 96.1826 376.319 96.1826ZM375.958 134.045C378.929 134.045 381.379 136.473 381.376 139.437C381.374 142.4 378.925 144.829 375.949 144.829C372.972 144.829 370.526 142.403 370.528 139.437C370.531 136.475 372.981 134.045 375.958 134.045Z" fill="#D1D5DB"/>
<path d="M352.504 132.221C344.038 132.221 335.708 128.345 335.715 119.076C335.723 110.528 345.58 107.24 347.699 104.152C349.29 101.854 348.762 98.6263 353.127 98.6263C355.971 98.6263 357.357 100.925 357.356 103.029C357.349 110.856 345.777 112.628 345.771 119.074C345.768 122.622 348.141 124.726 352.112 124.726C360.577 124.726 357.279 116.051 363.69 116.051C366.005 116.051 367.991 117.431 367.988 120.059C367.985 126.507 360.574 132.221 352.504 132.221ZM352.865 94.3585C349.893 94.3585 347.444 91.929 347.446 88.9663C347.449 86.003 349.898 83.5737 352.874 83.5737C355.85 83.5737 358.297 86 358.294 88.9663C358.292 91.9272 355.841 94.3585 352.865 94.3585Z" fill="#E5E7EB"/>
<path d="M424.765 45.736C433.23 45.736 441.561 49.6113 441.553 58.8805C441.546 67.4282 431.689 70.7156 429.57 73.8042C427.979 76.1017 428.507 79.33 424.142 79.33C421.298 79.33 419.912 77.0309 419.913 74.9274C419.92 67.0994 431.492 65.3278 431.497 58.882C431.501 55.3341 429.127 53.2305 425.157 53.2305C416.692 53.2305 419.99 61.9055 413.578 61.9055C411.264 61.9055 409.278 60.5248 409.281 57.8969C409.284 51.4496 416.694 45.736 424.765 45.736ZM424.404 83.5977C427.375 83.5977 429.825 86.0271 429.823 88.9903C429.82 91.953 427.37 94.3825 424.394 94.3825C421.418 94.3825 418.972 91.9566 418.974 88.9903C418.976 86.0286 421.428 83.5977 424.404 83.5977Z" fill="#D1D5DB"/>
<path d="M400.95 81.7735C392.485 81.7735 384.154 77.8983 384.162 68.6292C384.169 60.0813 394.026 56.7941 396.144 53.7054C397.735 51.4079 397.207 48.1796 401.573 48.1796C404.416 48.1796 405.804 50.4786 405.802 52.5823C405.795 60.4103 394.222 62.1818 394.217 68.6276C394.214 72.1755 396.588 74.2791 400.558 74.2791C409.024 74.2791 405.725 65.6041 412.136 65.6041C414.451 65.6041 416.436 66.9848 416.434 69.6127C416.43 76.06 409.02 81.7735 400.95 81.7735ZM401.311 43.9119C398.34 43.9119 395.89 41.4825 395.892 38.5195C395.894 35.5564 398.344 33.127 401.32 33.127C404.296 33.127 406.743 35.5533 406.741 38.5195C406.738 41.481 404.288 43.9119 401.311 43.9119Z" fill="#E5E7EB"/>
<path d="M352.992 45.736C361.457 45.736 369.788 49.6113 369.78 58.8805C369.773 67.4282 359.916 70.7156 357.797 73.8042C356.206 76.1017 356.734 79.33 352.368 79.33C349.525 79.33 348.139 77.0309 348.14 74.9274C348.147 67.0994 359.719 65.3278 359.724 58.882C359.728 55.3341 357.354 53.2305 353.384 53.2305C344.919 53.2305 348.217 61.9055 341.805 61.9055C339.491 61.9055 337.505 60.5248 337.508 57.8969C337.511 51.4496 344.921 45.736 352.992 45.736ZM352.631 83.5977C355.602 83.5977 358.052 86.0271 358.05 88.9903C358.047 91.953 355.597 94.3825 352.621 94.3825C349.645 94.3825 347.199 91.9566 347.201 88.9903C347.203 86.0286 349.655 83.5977 352.631 83.5977Z" fill="#D1D5DB"/>
<path d="M329.177 81.7735C320.712 81.7735 312.381 77.8983 312.389 68.6292C312.396 60.0813 322.253 56.7941 324.372 53.7054C325.962 51.4079 325.435 48.1796 329.8 48.1796C332.643 48.1796 334.031 50.4786 334.029 52.5823C334.022 60.4103 322.449 62.1818 322.444 68.6276C322.441 72.1755 324.815 74.2791 328.785 74.2791C337.25 74.2791 333.952 65.6041 340.363 65.6041C342.678 65.6041 344.663 66.9848 344.662 69.6127C344.657 76.06 337.247 81.7735 329.177 81.7735ZM329.538 43.9119C326.567 43.9119 324.117 41.4825 324.119 38.5195C324.121 35.5564 326.571 33.127 329.547 33.127C332.524 33.127 334.97 35.5533 334.968 38.5195C334.965 41.481 332.515 43.9119 329.538 43.9119Z" fill="#E5E7EB"/>
<path d="M377.623 31.3252C369.158 31.3252 360.827 27.4501 360.834 18.1808C360.842 9.63307 370.699 6.34579 372.818 3.2571C374.409 0.959597 373.881 -2.26871 378.246 -2.26871C381.09 -2.26871 382.476 0.0303516 382.475 2.13395C382.468 9.96193 370.896 11.7335 370.89 18.1793C370.887 21.7272 373.261 23.8308 377.232 23.8308C385.696 23.8308 382.398 15.1558 388.809 15.1558C391.124 15.1558 393.11 16.5365 393.107 19.1644C393.104 25.6117 385.693 31.3252 377.623 31.3252ZM377.984 -6.53641C375.012 -6.53641 372.563 -8.96579 372.566 -11.9288C372.568 -14.8918 375.017 -17.3212 377.993 -17.3212C380.969 -17.3212 383.416 -14.8949 383.414 -11.9288C383.411 -8.96734 380.96 -6.53641 377.984 -6.53641Z" fill="#E5E7EB"/>
<path d="M401.438 -4.71225C409.903 -4.71225 418.234 -0.83704 418.226 8.43213C418.219 16.9799 408.363 20.2672 406.244 23.3559C404.652 25.6534 405.181 28.8817 400.815 28.8817C397.972 28.8817 396.584 26.5826 396.586 24.479C396.593 16.651 408.166 14.8795 408.171 8.43364C408.174 4.8858 405.8 2.78221 401.829 2.78221C393.364 2.78221 396.662 11.4572 390.252 11.4572C387.937 11.4572 385.952 10.0765 385.954 7.44859C385.957 1.00128 393.368 -4.71225 401.438 -4.71225ZM401.077 33.1494C404.048 33.1494 406.498 35.5788 406.495 38.5418C406.493 41.5049 404.044 43.9343 401.068 43.9343C398.092 43.9343 395.645 41.508 395.647 38.5418C395.65 35.5803 398.1 33.1494 401.077 33.1494Z" fill="#D1D5DB"/>
<path d="M305.852 31.3252C297.387 31.3252 289.056 27.4501 289.063 18.1808C289.071 9.63307 298.928 6.34579 301.047 3.2571C302.638 0.959597 302.109 -2.26871 306.475 -2.26871C309.319 -2.26871 310.705 0.0303516 310.704 2.13395C310.697 9.96193 299.125 11.7335 299.119 18.1793C299.116 21.7272 301.49 23.8308 305.461 23.8308C313.925 23.8308 310.627 15.1558 317.038 15.1558C319.353 15.1558 321.339 16.5365 321.336 19.1644C321.333 25.6117 313.922 31.3252 305.852 31.3252ZM306.213 -6.53641C303.241 -6.53641 300.792 -8.96579 300.795 -11.9288C300.797 -14.8918 303.246 -17.3212 306.222 -17.3212C309.198 -17.3212 311.645 -14.8949 311.643 -11.9288C311.64 -8.96734 309.189 -6.53641 306.213 -6.53641Z" fill="#E5E7EB"/>
<path d="M329.667 -4.71225C338.132 -4.71225 346.463 -0.83704 346.455 8.43213C346.448 16.9799 336.591 20.2672 334.472 23.3559C332.881 25.6534 333.41 28.8817 329.044 28.8817C326.2 28.8817 324.813 26.5826 324.815 24.479C324.821 16.651 336.395 14.8795 336.4 8.43364C336.403 4.8858 334.029 2.78221 330.058 2.78221C321.593 2.78221 324.891 11.4572 318.481 11.4572C316.166 11.4572 314.18 10.0765 314.183 7.44859C314.186 1.00128 321.597 -4.71225 329.667 -4.71225ZM329.306 33.1494C332.277 33.1494 334.727 35.5788 334.724 38.5418C334.722 41.5049 332.273 43.9343 329.297 43.9343C326.321 43.9343 323.874 41.508 323.876 38.5418C323.879 35.5803 326.329 33.1494 329.306 33.1494Z" fill="#D1D5DB"/>
<path d="M591.633 96.1826C600.098 96.1826 608.429 100.058 608.421 109.327C608.414 117.875 598.557 121.162 596.438 124.251C594.847 126.548 595.375 129.777 591.009 129.777C588.166 129.777 586.779 127.477 586.781 125.374C586.788 117.546 598.36 115.774 598.365 109.329C598.368 105.78 595.995 103.677 592.025 103.677C583.56 103.677 586.858 112.352 580.446 112.352C578.131 112.352 576.146 110.971 576.148 108.343C576.152 101.896 583.562 96.1826 591.633 96.1826ZM591.271 134.045C594.243 134.045 596.692 136.473 596.691 139.437C596.688 142.4 594.238 144.829 591.262 144.829C588.286 144.829 585.839 142.403 585.842 139.437C585.844 136.475 588.295 134.045 591.271 134.045Z" fill="#D1D5DB"/>
<path d="M567.818 132.221C559.353 132.221 551.022 128.345 551.03 119.076C551.037 110.528 560.894 107.24 563.013 104.152C564.603 101.854 564.076 98.6263 568.441 98.6263C571.284 98.6263 572.671 100.925 572.669 103.029C572.663 110.856 561.091 112.628 561.085 119.074C561.082 122.622 563.456 124.726 567.426 124.726C575.891 124.726 572.593 116.051 579.005 116.051C581.318 116.051 583.304 117.431 583.302 120.059C583.298 126.507 575.888 132.221 567.818 132.221ZM568.179 94.3585C565.208 94.3585 562.757 91.929 562.76 88.9663C562.763 86.003 565.212 83.5737 568.188 83.5737C571.165 83.5737 573.611 86 573.609 88.9663C573.606 91.9272 571.155 94.3585 568.179 94.3585Z" fill="#E5E7EB"/>
<path d="M519.86 96.1826C528.325 96.1826 536.656 100.058 536.648 109.327C536.641 117.875 526.784 121.162 524.665 124.251C523.074 126.548 523.602 129.777 519.237 129.777C516.393 129.777 515.006 127.477 515.008 125.374C515.015 117.546 526.587 115.774 526.592 109.329C526.595 105.78 524.222 103.677 520.252 103.677C511.786 103.677 515.085 112.352 508.673 112.352C506.358 112.352 504.373 110.971 504.375 108.343C504.379 101.896 511.789 96.1826 519.86 96.1826ZM519.498 134.045C522.47 134.045 524.919 136.473 524.918 139.437C524.915 142.4 522.465 144.829 519.489 144.829C516.513 144.829 514.066 142.403 514.069 139.437C514.071 136.475 516.522 134.045 519.498 134.045Z" fill="#D1D5DB"/>
<path d="M496.045 132.221C487.58 132.221 479.249 128.345 479.257 119.076C479.264 110.528 489.121 107.24 491.24 104.152C492.83 101.854 492.303 98.6263 496.668 98.6263C499.511 98.6263 500.898 100.925 500.896 103.029C500.89 110.856 489.318 112.628 489.312 119.074C489.309 122.622 491.683 124.726 495.653 124.726C504.118 124.726 500.82 116.051 507.232 116.051C509.546 116.051 511.531 117.431 511.529 120.059C511.525 126.507 504.115 132.221 496.045 132.221ZM496.406 94.3585C493.435 94.3585 490.984 91.929 490.987 88.9663C490.99 86.003 493.439 83.5737 496.415 83.5737C499.392 83.5737 501.838 86 501.836 88.9663C501.833 91.9272 499.382 94.3585 496.406 94.3585Z" fill="#E5E7EB"/>
<path d="M568.306 45.736C576.772 45.736 585.102 49.6113 585.095 58.8805C585.087 67.4282 575.23 70.7156 573.111 73.8042C571.521 76.1017 572.048 79.33 567.684 79.33C564.84 79.33 563.453 77.0309 563.455 74.9274C563.461 67.0994 575.033 65.3278 575.04 58.882C575.042 55.3341 572.669 53.2305 568.698 53.2305C560.233 53.2305 563.531 61.9055 557.12 61.9055C554.805 61.9055 552.82 60.5248 552.822 57.8969C552.826 51.4496 560.237 45.736 568.306 45.736ZM567.945 83.5977C570.917 83.5977 573.367 86.0271 573.364 88.9903C573.361 91.953 570.913 94.3825 567.936 94.3825C564.96 94.3825 562.513 91.9566 562.516 88.9903C562.519 86.0286 564.969 83.5977 567.945 83.5977Z" fill="#D1D5DB"/>
<path d="M544.491 81.7735C536.026 81.7735 527.695 77.8983 527.703 68.6292C527.71 60.0813 537.567 56.7941 539.686 53.7054C541.277 51.4079 540.749 48.1796 545.114 48.1796C547.958 48.1796 549.345 50.4786 549.343 52.5823C549.336 60.4103 537.764 62.1818 537.759 68.6276C537.756 72.1755 540.129 74.2791 544.1 74.2791C552.565 74.2791 549.267 65.6041 555.678 65.6041C557.993 65.6041 559.978 66.9848 559.976 69.6127C559.972 76.06 552.562 81.7735 544.491 81.7735ZM544.853 43.9119C541.881 43.9119 539.432 41.4825 539.434 38.5195C539.437 35.5564 541.886 33.127 544.862 33.127C547.838 33.127 550.285 35.5533 550.282 38.5195C550.28 41.481 547.829 43.9119 544.853 43.9119Z" fill="#E5E7EB"/>
<path d="M496.535 45.736C505.001 45.736 513.331 49.6113 513.323 58.8805C513.316 67.4282 503.459 70.7156 501.34 73.8042C499.75 76.1017 500.277 79.33 495.913 79.33C493.069 79.33 491.682 77.0309 491.684 74.9274C491.69 67.0994 503.262 65.3278 503.268 58.882C503.271 55.3341 500.898 53.2305 496.927 53.2305C488.462 53.2305 491.76 61.9055 485.349 61.9055C483.035 61.9055 481.049 60.5248 481.051 57.8969C481.055 51.4496 488.466 45.736 496.535 45.736ZM496.174 83.5977C499.146 83.5977 501.596 86.0271 501.593 88.9903C501.59 91.953 499.142 94.3825 496.166 94.3825C493.189 94.3825 490.742 91.9566 490.745 88.9903C490.747 86.0286 493.198 83.5977 496.174 83.5977Z" fill="#D1D5DB"/>
<path d="M472.72 81.7735C464.255 81.7735 455.924 77.8983 455.932 68.6292C455.939 60.0813 465.796 56.7941 467.915 53.7054C469.506 51.4079 468.978 48.1796 473.343 48.1796C476.187 48.1796 477.574 50.4786 477.572 52.5823C477.565 60.4103 465.993 62.1818 465.988 68.6276C465.985 72.1755 468.358 74.2791 472.328 74.2791C480.794 74.2791 477.495 65.6041 483.907 65.6041C486.222 65.6041 488.207 66.9848 488.205 69.6127C488.201 76.06 480.791 81.7735 472.72 81.7735ZM473.082 43.9119C470.11 43.9119 467.661 41.4825 467.663 38.5195C467.665 35.5564 470.114 33.127 473.091 33.127C476.067 33.127 478.514 35.5533 478.511 38.5195C478.509 41.481 476.058 43.9119 473.082 43.9119Z" fill="#E5E7EB"/>
<path d="M521.167 31.3252C512.702 31.3252 504.371 27.4501 504.379 18.1808C504.386 9.63307 514.243 6.34579 516.362 3.2571C517.953 0.959597 517.425 -2.26871 521.79 -2.26871C524.634 -2.26871 526.02 0.0303516 526.019 2.13395C526.012 9.96193 514.44 11.7335 514.435 18.1793C514.431 21.7272 516.805 23.8308 520.776 23.8308C529.24 23.8308 525.942 15.1558 532.354 15.1558C534.668 15.1558 536.654 16.5365 536.651 19.1644C536.648 25.6117 529.238 31.3252 521.167 31.3252ZM521.528 -6.53641C518.556 -6.53641 516.107 -8.96579 516.11 -11.9288C516.112 -14.8918 518.562 -17.3212 521.538 -17.3212C524.514 -17.3212 526.96 -14.8949 526.958 -11.9288C526.956 -8.96734 524.504 -6.53641 521.528 -6.53641Z" fill="#E5E7EB"/>
<path d="M544.982 -4.71225C553.447 -4.71225 561.778 -0.83704 561.77 8.43213C561.763 16.9799 551.906 20.2672 549.788 23.3559C548.196 25.6534 548.725 28.8817 544.359 28.8817C541.516 28.8817 540.128 26.5826 540.13 24.479C540.137 16.651 551.71 14.8795 551.715 8.43364C551.718 4.8858 549.344 2.78221 545.374 2.78221C536.908 2.78221 540.207 11.4572 533.796 11.4572C531.481 11.4572 529.496 10.0765 529.498 7.44859C529.502 1.00128 536.912 -4.71225 544.982 -4.71225ZM544.621 33.1494C547.592 33.1494 550.042 35.5788 550.039 38.5418C550.038 41.5049 547.588 43.9343 544.612 43.9343C541.636 43.9343 539.189 41.508 539.191 38.5418C539.194 35.5803 541.644 33.1494 544.621 33.1494Z" fill="#D1D5DB"/>
<path d="M449.393 31.3252C440.927 31.3252 432.597 27.4501 432.604 18.1808C432.612 9.63307 442.468 6.34579 444.587 3.2571C446.178 0.959597 445.65 -2.26871 450.015 -2.26871C452.859 -2.26871 454.246 0.0303516 454.244 2.13395C454.238 9.96193 442.665 11.7335 442.66 18.1793C442.656 21.7272 445.031 23.8308 449.001 23.8308C457.466 23.8308 454.168 15.1558 460.579 15.1558C462.893 15.1558 464.879 16.5365 464.876 19.1644C464.873 25.6117 457.463 31.3252 449.393 31.3252ZM449.753 -6.53641C446.782 -6.53641 444.332 -8.96579 444.335 -11.9288C444.337 -14.8918 446.786 -17.3212 449.763 -17.3212C452.739 -17.3212 455.185 -14.8949 455.183 -11.9288C455.181 -8.96734 452.73 -6.53641 449.753 -6.53641Z" fill="#E5E7EB"/>
<path d="M473.207 -4.71225C481.672 -4.71225 490.003 -0.83704 489.996 8.43213C489.988 16.9799 480.132 20.2672 478.013 23.3559C476.421 25.6534 476.95 28.8817 472.584 28.8817C469.741 28.8817 468.354 26.5826 468.355 24.479C468.362 16.651 479.935 14.8795 479.94 8.43364C479.943 4.8858 477.569 2.78221 473.599 2.78221C465.133 2.78221 468.432 11.4572 462.021 11.4572C459.706 11.4572 457.721 10.0765 457.723 7.44859C457.727 1.00128 465.137 -4.71225 473.207 -4.71225ZM472.846 33.1494C475.817 33.1494 478.267 35.5788 478.264 38.5418C478.263 41.5049 475.813 43.9343 472.837 43.9343C469.861 43.9343 467.414 41.508 467.416 38.5418C467.419 35.5803 469.869 33.1494 472.846 33.1494Z" fill="#D1D5DB"/>
<path d="M592.937 31.3252C584.472 31.3252 576.141 27.4501 576.149 18.1808C576.156 9.63307 586.013 6.34579 588.132 3.2571C589.722 0.959597 589.195 -2.26871 593.56 -2.26871C596.403 -2.26871 597.791 0.0303516 597.788 2.13395C597.782 9.96193 586.21 11.7335 586.204 18.1793C586.201 21.7272 588.575 23.8308 592.545 23.8308C601.01 23.8308 597.712 15.1558 604.124 15.1558C606.438 15.1558 608.424 16.5365 608.421 19.1644C608.417 25.6117 601.007 31.3252 592.937 31.3252ZM593.298 -6.53641C590.327 -6.53641 587.876 -8.96579 587.879 -11.9288C587.882 -14.8918 590.331 -17.3212 593.308 -17.3212C596.284 -17.3212 598.73 -14.8949 598.728 -11.9288C598.725 -8.96734 596.274 -6.53641 593.298 -6.53641Z" fill="#E5E7EB"/>
<path d="M17.4586 96.1826C25.9238 96.1826 34.2546 100.058 34.2467 109.327C34.2395 117.875 24.3826 121.162 22.2636 124.251C20.6729 126.548 21.2008 129.777 16.8356 129.777C13.992 129.777 12.605 127.477 12.6067 125.374C12.6133 117.546 24.1858 115.774 24.1912 109.329C24.1942 105.78 21.8207 103.677 17.8503 103.677C9.38504 103.677 12.6833 112.352 6.27198 112.352C3.95748 112.352 1.9719 110.971 1.97412 108.343C1.97801 101.896 9.38832 96.1826 17.4586 96.1826ZM17.0973 134.045C20.0688 134.045 22.5186 136.473 22.5161 139.437C22.5136 142.4 20.0644 144.829 17.0882 144.829C14.112 144.829 11.6653 142.403 11.6678 139.437C11.6703 136.475 14.1211 134.045 17.0973 134.045Z" fill="#D1D5DB"/>
<path d="M-6.35688 132.221C-14.822 132.221 -23.1528 128.345 -23.145 119.076C-23.1377 110.528 -13.2808 107.24 -11.1619 104.152C-9.57114 101.854 -10.0991 98.6263 -5.73384 98.6263C-2.89026 98.6263 -1.5032 100.925 -1.50497 103.029C-1.5116 110.856 -13.084 112.628 -13.0895 119.074C-13.0925 122.622 -10.7189 124.726 -6.74851 124.726C1.71665 124.726 -1.58155 116.051 4.82975 116.051C7.14425 116.051 9.12984 117.431 9.12762 120.059C9.12372 126.507 1.71343 132.221 -6.35688 132.221ZM-5.99554 94.3585C-8.96712 94.3585 -11.4169 91.929 -11.4144 88.9663C-11.4118 86.003 -8.9626 83.5737 -5.98641 83.5737C-3.01019 83.5737 -0.563524 86 -0.566034 88.9663C-0.568541 91.9272 -3.01931 94.3585 -5.99554 94.3585Z" fill="#E5E7EB"/>
<path d="M-5.86316 45.736C2.60201 45.736 10.9328 49.6113 10.925 58.8805C10.9177 67.4282 1.06076 70.7156 -1.05814 73.8042C-2.64886 76.1017 -2.12096 79.33 -6.4862 79.33C-9.32979 79.33 -10.7168 77.0309 -10.7151 74.9274C-10.7084 67.0994 0.863995 65.3278 0.869448 58.882C0.87245 55.3341 -1.50113 53.2305 -5.47152 53.2305C-13.9367 53.2305 -10.6385 61.9055 -17.0498 61.9055C-19.3643 61.9055 -21.3499 60.5248 -21.3477 57.8969C-21.3438 51.4496 -13.9335 45.736 -5.86316 45.736ZM-6.22449 83.5977C-3.25294 83.5977 -0.803165 86.0271 -0.805672 88.9903C-0.808178 91.953 -3.25739 94.3825 -6.23362 94.3825C-9.20984 94.3825 -11.6565 91.9566 -11.654 88.9903C-11.6515 86.0286 -9.20071 83.5977 -6.22449 83.5977Z" fill="#D1D5DB"/>
<path d="M161.006 96.1826C169.472 96.1826 177.802 100.058 177.794 109.327C177.787 117.875 167.93 121.162 165.811 124.251C164.221 126.548 164.748 129.777 160.384 129.777C157.539 129.777 156.153 127.477 156.155 125.374C156.161 117.546 167.733 115.774 167.738 109.329C167.742 105.78 165.369 103.677 161.398 103.677C152.933 103.677 156.231 112.352 149.819 112.352C147.505 112.352 145.519 110.971 145.522 108.343C145.526 101.896 152.936 96.1826 161.006 96.1826ZM160.645 134.045C163.617 134.045 166.066 136.473 166.064 139.437C166.061 142.4 163.612 144.829 160.636 144.829C157.66 144.829 155.213 142.403 155.216 139.437C155.217 136.475 157.669 134.045 160.645 134.045Z" fill="#D1D5DB"/>
<path d="M137.191 132.221C128.726 132.221 120.395 128.345 120.403 119.076C120.41 110.528 130.267 107.24 132.386 104.152C133.977 101.854 133.449 98.6263 137.814 98.6263C140.657 98.6263 142.045 100.925 142.043 103.029C142.036 110.856 130.464 112.628 130.458 119.074C130.456 122.622 132.829 124.726 136.799 124.726C145.265 124.726 141.966 116.051 148.378 116.051C150.692 116.051 152.677 117.431 152.676 120.059C152.671 126.507 145.261 132.221 137.191 132.221ZM137.553 94.3585C134.581 94.3585 132.131 91.929 132.134 88.9663C132.136 86.003 134.585 83.5737 137.561 83.5737C140.538 83.5737 142.985 86 142.982 88.9663C142.979 91.9272 140.529 94.3585 137.553 94.3585Z" fill="#E5E7EB"/>
<path d="M89.2317 96.1826C97.6976 96.1826 106.028 100.058 106.02 109.327C106.013 117.875 96.1558 121.162 94.0369 124.251C92.4464 126.548 92.9739 129.777 88.609 129.777C85.7654 129.777 84.3784 127.477 84.3802 125.374C84.3868 117.546 95.959 115.774 95.9643 109.329C95.9679 105.78 93.5945 103.677 89.6236 103.677C81.1586 103.677 84.4568 112.352 78.0455 112.352C75.7309 112.352 73.7453 110.971 73.7476 108.343C73.7515 101.896 81.1617 96.1826 89.2317 96.1826ZM88.8709 134.045C91.8427 134.045 94.2922 136.473 94.2896 139.437C94.2869 142.4 91.8382 144.829 88.862 144.829C85.8854 144.829 83.4387 142.403 83.4412 139.437C83.4437 136.475 85.8945 134.045 88.8709 134.045Z" fill="#D1D5DB"/>
<path d="M65.4169 132.221C56.9518 132.221 48.621 128.345 48.6289 119.076C48.6361 110.528 58.493 107.24 60.6119 104.152C62.2027 101.854 61.6748 98.6263 66.04 98.6263C68.8836 98.6263 70.2706 100.925 70.2689 103.029C70.2623 110.856 58.6899 112.628 58.6844 119.074C58.6813 122.622 61.0549 124.726 65.0253 124.726C73.4905 124.726 70.1923 116.051 76.6036 116.051C78.9181 116.051 80.9037 117.431 80.9015 120.059C80.8976 126.507 73.4873 132.221 65.4169 132.221ZM65.7783 94.3585C62.8068 94.3585 60.357 91.929 60.3595 88.9663C60.362 86.003 62.8112 83.5737 65.7874 83.5737C68.7636 83.5737 71.2103 86 71.2078 88.9663C71.2053 91.9272 68.7545 94.3585 65.7783 94.3585Z" fill="#E5E7EB"/>
<path d="M137.679 45.736C146.144 45.736 154.475 49.6113 154.467 58.8805C154.46 67.4282 144.603 70.7156 142.484 73.8042C140.893 76.1017 141.421 79.33 137.056 79.33C134.213 79.33 132.825 77.0309 132.827 74.9274C132.834 67.0994 144.406 65.3278 144.412 58.882C144.414 55.3341 142.041 53.2305 138.071 53.2305C129.605 53.2305 132.904 61.9055 126.492 61.9055C124.178 61.9055 122.193 60.5248 122.194 57.8969C122.199 51.4496 129.609 45.736 137.679 45.736ZM137.317 83.5977C140.289 83.5977 142.739 86.0271 142.736 88.9903C142.734 91.953 140.285 94.3825 137.309 94.3825C134.332 94.3825 131.885 91.9566 131.888 88.9903C131.891 86.0286 134.341 83.5977 137.317 83.5977Z" fill="#D1D5DB"/>
<path d="M113.864 81.7735C105.398 81.7735 97.0682 77.8983 97.0762 68.6292C97.0833 60.0813 106.94 56.7941 109.059 53.7054C110.65 51.4079 110.122 48.1796 114.487 48.1796C117.331 48.1796 118.717 50.4786 118.716 52.5823C118.709 60.4103 107.137 62.1818 107.132 68.6276C107.128 72.1755 109.502 74.2791 113.472 74.2791C121.937 74.2791 118.639 65.6041 125.051 65.6041C127.365 65.6041 129.351 66.9848 129.348 69.6127C129.345 76.06 121.935 81.7735 113.864 81.7735ZM114.225 43.9119C111.253 43.9119 108.804 41.4825 108.806 38.5195C108.809 35.5564 111.258 33.127 114.235 33.127C117.211 33.127 119.657 35.5533 119.654 38.5195C119.653 41.481 117.201 43.9119 114.225 43.9119Z" fill="#E5E7EB"/>
<path d="M65.9063 45.736C74.3715 45.736 82.7023 49.6113 82.6944 58.8805C82.6872 67.4282 72.8302 70.7156 70.7113 73.8042C69.1206 76.1017 69.6485 79.33 65.2833 79.33C62.4397 79.33 61.0526 77.0309 61.0544 74.9274C61.061 67.0994 72.6335 65.3278 72.6389 58.882C72.6419 55.3341 70.2684 53.2305 66.298 53.2305C57.8328 53.2305 61.131 61.9055 54.7197 61.9055C52.4052 61.9055 50.4197 60.5248 50.4219 57.8969C50.4258 51.4496 57.8361 45.736 65.9063 45.736ZM65.545 83.5977C68.5165 83.5977 70.9663 86.0271 70.9638 88.9903C70.9613 91.953 68.5121 94.3825 65.5359 94.3825C62.5596 94.3825 60.1129 91.9566 60.1155 88.9903C60.118 86.0286 62.5687 83.5977 65.545 83.5977Z" fill="#D1D5DB"/>
<path d="M42.0909 81.7735C33.6257 81.7735 25.2949 77.8983 25.3027 68.6292C25.31 60.0813 35.167 56.7941 37.2858 53.7054C38.8765 51.4079 38.3487 48.1796 42.7139 48.1796C45.5575 48.1796 46.9445 50.4786 46.9428 52.5823C46.9361 60.4103 35.3637 62.1818 35.3583 68.6276C35.3553 72.1755 37.7289 74.2791 41.6993 74.2791C50.1644 74.2791 46.8662 65.6041 53.2775 65.6041C55.592 65.6041 57.5776 66.9848 57.5754 69.6127C57.5715 76.06 50.1612 81.7735 42.0909 81.7735ZM42.4522 43.9119C39.4806 43.9119 37.0309 41.4825 37.0334 38.5195C37.0359 35.5564 39.4851 33.127 42.4614 33.127C45.4376 33.127 47.8842 35.5533 47.8817 38.5195C47.8792 41.481 45.4284 43.9119 42.4522 43.9119Z" fill="#E5E7EB"/>
<path d="M90.536 31.3252C82.071 31.3252 73.7402 27.4501 73.7481 18.1808C73.7552 9.63307 83.6122 6.34579 85.7312 3.2571C87.3218 0.959597 86.794 -2.26871 91.1593 -2.26871C94.0025 -2.26871 95.39 0.0303516 95.3882 2.13395C95.3811 9.96193 83.809 11.7335 83.8035 18.1793C83.8006 21.7272 86.1741 23.8308 90.1441 23.8308C98.61 23.8308 95.3111 15.1558 101.723 15.1558C104.038 15.1558 106.023 16.5365 106.021 19.1644C106.016 25.6117 98.6064 31.3252 90.536 31.3252ZM90.8977 -6.53641C87.9259 -6.53641 85.4762 -8.96579 85.4787 -11.9288C85.4812 -14.8918 87.9304 -17.3212 90.9066 -17.3212C93.8828 -17.3212 96.3297 -14.8949 96.3271 -11.9288C96.3244 -8.96734 93.8739 -6.53641 90.8977 -6.53641Z" fill="#E5E7EB"/>
<path d="M114.351 -4.71225C122.817 -4.71225 131.147 -0.83704 131.139 8.43213C131.132 16.9799 121.275 20.2672 119.156 23.3559C117.566 25.6534 118.093 28.8817 113.729 28.8817C110.885 28.8817 109.498 26.5826 109.5 24.479C109.506 16.651 121.078 14.8795 121.084 8.43364C121.087 4.8858 118.714 2.78221 114.743 2.78221C106.278 2.78221 109.576 11.4572 103.164 11.4572C100.85 11.4572 98.8645 10.0765 98.8672 7.44859C98.8707 1.00128 106.282 -4.71225 114.351 -4.71225ZM113.99 33.1494C116.962 33.1494 119.412 35.5788 119.409 38.5418C119.406 41.5049 116.958 43.9343 113.981 43.9343C111.004 43.9343 108.558 41.508 108.561 38.5418C108.563 35.5803 111.014 33.1494 113.99 33.1494Z" fill="#D1D5DB"/>
<path d="M18.7666 31.3252C10.3015 31.3252 1.97068 27.4501 1.97852 18.1808C1.98576 9.63307 11.8427 6.34579 13.9616 3.2571C15.5524 0.959597 15.0244 -2.26871 19.3897 -2.26871C22.2333 -2.26871 23.6203 0.0303516 23.6185 2.13395C23.6119 9.96193 12.0394 11.7335 12.034 18.1793C12.031 21.7272 14.4046 23.8308 18.375 23.8308C26.8401 23.8308 23.5419 15.1558 29.9532 15.1558C32.2678 15.1558 34.2534 16.5365 34.2511 19.1644C34.2472 25.6117 26.8369 31.3252 18.7666 31.3252ZM19.128 -6.53641C16.1564 -6.53641 13.7066 -8.96579 13.7091 -11.9288C13.7117 -14.8918 16.1608 -17.3212 19.1371 -17.3212C22.1133 -17.3212 24.56 -14.8949 24.5575 -11.9288C24.5549 -8.96734 22.1042 -6.53641 19.128 -6.53641Z" fill="#E5E7EB"/>
<path d="M42.5816 -4.71225C51.0468 -4.71225 59.3776 -0.83704 59.3697 8.43213C59.3625 16.9799 49.5055 20.2672 47.3866 23.3559C45.7959 25.6534 46.3238 28.8817 41.9586 28.8817C39.115 28.8817 37.7279 26.5826 37.7298 24.479C37.7363 16.651 49.3088 14.8795 49.3143 8.43364C49.3172 4.8858 46.9437 2.78221 42.9733 2.78221C34.5081 2.78221 37.8063 11.4572 31.395 11.4572C29.0805 11.4572 27.095 10.0765 27.0972 7.44859C27.1011 1.00128 34.5114 -4.71225 42.5816 -4.71225ZM42.2203 33.1494C45.1918 33.1494 47.6416 35.5788 47.6391 38.5418C47.6366 41.5049 45.1874 43.9343 42.2112 43.9343C39.2349 43.9343 36.7882 41.508 36.7908 38.5418C36.7933 35.5803 39.244 33.1494 42.2203 33.1494Z" fill="#D1D5DB"/>
<path d="M304.543 96.1826C313.008 96.1826 321.339 100.058 321.331 109.327C321.324 117.875 311.467 121.162 309.348 124.251C307.757 126.548 308.285 129.777 303.92 129.777C301.076 129.777 299.689 127.477 299.691 125.374C299.698 117.546 311.27 115.774 311.275 109.329C311.278 105.78 308.905 103.677 304.935 103.677C296.469 103.677 299.767 112.352 293.356 112.352C291.041 112.352 289.056 110.971 289.058 108.343C289.062 101.896 296.472 96.1826 304.543 96.1826ZM304.181 134.045C307.153 134.045 309.603 136.473 309.6 139.437C309.598 142.4 307.149 144.829 304.172 144.829C301.196 144.829 298.749 142.403 298.752 139.437C298.755 136.475 301.205 134.045 304.181 134.045Z" fill="#D1D5DB"/>
<path d="M280.728 132.221C272.262 132.221 263.932 128.345 263.939 119.076C263.947 110.528 273.804 107.24 275.923 104.152C277.513 101.854 276.986 98.6263 281.35 98.6263C284.194 98.6263 285.581 100.925 285.579 103.029C285.573 110.856 274.001 112.628 273.995 119.074C273.992 122.622 276.365 124.726 280.336 124.726C288.801 124.726 285.503 116.051 291.914 116.051C294.229 116.051 296.214 117.431 296.212 120.059C296.208 126.507 288.797 132.221 280.728 132.221ZM281.089 94.3585C278.117 94.3585 275.667 91.929 275.67 88.9663C275.673 86.003 278.121 83.5737 281.098 83.5737C284.074 83.5737 286.521 86 286.518 88.9663C286.515 91.9272 284.065 94.3585 281.089 94.3585Z" fill="#E5E7EB"/>
<path d="M232.775 96.1826C241.24 96.1826 249.571 100.058 249.563 109.327C249.555 117.875 239.699 121.162 237.58 124.251C235.989 126.548 236.518 129.777 232.152 129.777C229.308 129.777 227.921 127.477 227.923 125.374C227.929 117.546 239.502 115.774 239.508 109.329C239.511 105.78 237.137 103.677 233.166 103.677C224.701 103.677 227.999 112.352 221.589 112.352C219.274 112.352 217.288 110.971 217.291 108.343C217.294 101.896 224.705 96.1826 232.775 96.1826ZM232.414 134.045C235.385 134.045 237.835 136.473 237.832 139.437C237.83 142.4 235.381 144.829 232.405 144.829C229.429 144.829 226.982 142.403 226.984 139.437C226.987 136.475 229.437 134.045 232.414 134.045Z" fill="#D1D5DB"/>
<path d="M208.959 132.221C200.494 132.221 192.163 128.345 192.171 119.076C192.178 110.528 202.036 107.24 204.155 104.152C205.746 101.854 205.217 98.6263 209.583 98.6263C212.427 98.6263 213.813 100.925 213.812 103.029C213.805 110.856 202.232 112.628 202.227 119.074C202.224 122.622 204.598 124.726 208.568 124.726C217.033 124.726 213.735 116.051 220.146 116.051C222.461 116.051 224.447 117.431 224.444 120.059C224.441 126.507 217.03 132.221 208.959 132.221ZM209.321 94.3585C206.349 94.3585 203.9 91.929 203.902 88.9663C203.905 86.003 206.354 83.5737 209.33 83.5737C212.306 83.5737 214.753 86 214.75 88.9663C214.748 91.9272 212.297 94.3585 209.321 94.3585Z" fill="#E5E7EB"/>
<path d="M281.22 45.736C289.685 45.736 298.016 49.6113 298.008 58.8805C298.001 67.4282 288.144 70.7156 286.025 73.8042C284.434 76.1017 284.962 79.33 280.596 79.33C277.753 79.33 276.366 77.0309 276.367 74.9274C276.375 67.0994 287.947 65.3278 287.952 58.882C287.956 55.3341 285.582 53.2305 281.612 53.2305C273.147 53.2305 276.445 61.9055 270.033 61.9055C267.719 61.9055 265.733 60.5248 265.735 57.8969C265.739 51.4496 273.149 45.736 281.22 45.736ZM280.859 83.5977C283.83 83.5977 286.28 86.0271 286.278 88.9903C286.275 91.953 283.825 94.3825 280.849 94.3825C277.873 94.3825 275.427 91.9566 275.429 88.9903C275.431 86.0286 277.883 83.5977 280.859 83.5977Z" fill="#D1D5DB"/>
<path d="M257.405 81.7735C248.94 81.7735 240.609 77.8983 240.617 68.6292C240.624 60.0813 250.481 56.7941 252.6 53.7054C254.19 51.4079 253.663 48.1796 258.028 48.1796C260.871 48.1796 262.259 50.4786 262.257 52.5823C262.25 60.4103 250.677 62.1818 250.672 68.6276C250.669 72.1755 253.043 74.2791 257.013 74.2791C265.478 74.2791 262.18 65.6041 268.591 65.6041C270.905 65.6041 272.891 66.9848 272.89 69.6127C272.885 76.06 265.475 81.7735 257.405 81.7735ZM257.766 43.9119C254.795 43.9119 252.345 41.4825 252.347 38.5195C252.35 35.5564 254.799 33.127 257.775 33.127C260.752 33.127 263.198 35.5533 263.196 38.5195C263.193 41.481 260.742 43.9119 257.766 43.9119Z" fill="#E5E7EB"/>
<path d="M209.447 45.736C217.912 45.736 226.243 49.6113 226.235 58.8805C226.228 67.4282 216.371 70.7156 214.252 73.8042C212.661 76.1017 213.189 79.33 208.823 79.33C205.98 79.33 204.593 77.0309 204.595 74.9274C204.602 67.0994 216.174 65.3278 216.179 58.882C216.182 55.3341 213.809 53.2305 209.839 53.2305C201.374 53.2305 204.672 61.9055 198.26 61.9055C195.946 61.9055 193.96 60.5248 193.962 57.8969C193.966 51.4496 201.376 45.736 209.447 45.736ZM209.086 83.5977C212.057 83.5977 214.506 86.0271 214.505 88.9903C214.502 91.953 212.052 94.3825 209.076 94.3825C206.1 94.3825 203.653 91.9566 203.656 88.9903C203.658 86.0286 206.109 83.5977 209.086 83.5977Z" fill="#D1D5DB"/>
<path d="M185.632 81.7735C177.167 81.7735 168.836 77.8983 168.844 68.6292C168.851 60.0813 178.708 56.7941 180.827 53.7054C182.417 51.4079 181.89 48.1796 186.255 48.1796C189.098 48.1796 190.486 50.4786 190.484 52.5823C190.477 60.4103 178.905 62.1818 178.899 68.6276C178.896 72.1755 181.27 74.2791 185.24 74.2791C193.705 74.2791 190.407 65.6041 196.818 65.6041C199.132 65.6041 201.118 66.9848 201.117 69.6127C201.112 76.06 193.702 81.7735 185.632 81.7735ZM185.993 43.9119C183.022 43.9119 180.571 41.4825 180.574 38.5195C180.577 35.5564 183.026 33.127 186.002 33.127C188.979 33.127 191.425 35.5533 191.423 38.5195C191.42 41.481 188.969 43.9119 185.993 43.9119Z" fill="#E5E7EB"/>
<path d="M234.079 31.3252C225.614 31.3252 217.283 27.4501 217.291 18.1808C217.298 9.63307 227.155 6.34579 229.274 3.2571C230.865 0.959597 230.336 -2.26871 234.702 -2.26871C237.546 -2.26871 238.933 0.0303516 238.931 2.13395C238.925 9.96193 227.351 11.7335 227.346 18.1793C227.343 21.7272 229.717 23.8308 233.688 23.8308C242.153 23.8308 238.855 15.1558 245.265 15.1558C247.58 15.1558 249.566 16.5365 249.563 19.1644C249.56 25.6117 242.149 31.3252 234.079 31.3252ZM234.44 -6.53641C231.469 -6.53641 229.019 -8.96579 229.022 -11.9288C229.024 -14.8918 231.473 -17.3212 234.449 -17.3212C237.425 -17.3212 239.872 -14.8949 239.87 -11.9288C239.867 -8.96734 237.417 -6.53641 234.44 -6.53641Z" fill="#E5E7EB"/>
<path d="M257.894 -4.71225C266.359 -4.71225 274.69 -0.83704 274.682 8.43213C274.675 16.9799 264.817 20.2672 262.698 23.3559C261.108 25.6534 261.636 28.8817 257.271 28.8817C254.427 28.8817 253.04 26.5826 253.042 24.479C253.048 16.651 264.62 14.8795 264.627 8.43364C264.629 4.8858 262.256 2.78221 258.285 2.78221C249.82 2.78221 253.118 11.4572 246.707 11.4572C244.392 11.4572 242.407 10.0765 242.409 7.44859C242.413 1.00128 249.824 -4.71225 257.894 -4.71225ZM257.532 33.1494C260.504 33.1494 262.954 35.5788 262.951 38.5418C262.948 41.5049 260.5 43.9343 257.523 43.9343C254.547 43.9343 252.1 41.508 252.103 38.5418C252.106 35.5803 254.556 33.1494 257.532 33.1494Z" fill="#D1D5DB"/>
<path d="M162.305 31.3252C153.84 31.3252 145.509 27.4501 145.517 18.1808C145.524 9.63307 155.381 6.34579 157.5 3.2571C159.091 0.959597 158.562 -2.26871 162.928 -2.26871C165.771 -2.26871 167.159 0.0303516 167.157 2.13395C167.151 9.96193 155.577 11.7335 155.572 18.1793C155.569 21.7272 157.943 23.8308 161.914 23.8308C170.379 23.8308 167.081 15.1558 173.491 15.1558C175.806 15.1558 177.792 16.5365 177.789 19.1644C177.786 25.6117 170.375 31.3252 162.305 31.3252ZM162.666 -6.53641C159.695 -6.53641 157.245 -8.96579 157.248 -11.9288C157.25 -14.8918 159.699 -17.3212 162.675 -17.3212C165.651 -17.3212 168.098 -14.8949 168.096 -11.9288C168.093 -8.96734 165.643 -6.53641 162.666 -6.53641Z" fill="#E5E7EB"/>
<path d="M186.121 -4.71225C194.585 -4.71225 202.916 -0.83704 202.909 8.43213C202.901 16.9799 193.044 20.2672 190.925 23.3559C189.334 25.6534 189.863 28.8817 185.497 28.8817C182.653 28.8817 181.267 26.5826 181.268 24.479C181.275 16.651 192.847 14.8795 192.853 8.43364C192.856 4.8858 190.482 2.78221 186.512 2.78221C178.047 2.78221 181.345 11.4572 174.934 11.4572C172.619 11.4572 170.633 10.0765 170.636 7.44859C170.639 1.00128 178.05 -4.71225 186.121 -4.71225ZM185.759 33.1494C188.731 33.1494 191.18 35.5788 191.178 38.5418C191.175 41.5049 188.726 43.9343 185.75 43.9343C182.774 43.9343 180.327 41.508 180.329 38.5418C180.332 35.5803 182.783 33.1494 185.759 33.1494Z" fill="#D1D5DB"/>
<path d="M517.307 334.009C508.842 334.009 500.511 330.135 500.519 320.866C500.526 312.318 510.382 309.03 512.501 305.942C514.093 303.644 513.564 300.416 517.93 300.416C520.773 300.416 522.161 302.715 522.159 304.818C522.152 312.646 510.579 314.418 510.574 320.864C510.571 324.412 512.945 326.515 516.915 326.515C525.381 326.515 522.082 317.841 528.493 317.841C530.808 317.841 532.793 319.221 532.791 321.849C532.787 328.297 525.377 334.009 517.307 334.009ZM517.668 296.148C514.697 296.148 512.247 293.719 512.25 290.756C512.251 287.792 514.701 285.364 517.677 285.364C520.653 285.364 523.1 287.79 523.098 290.756C523.095 293.717 520.645 296.148 517.668 296.148Z" fill="#E5E7EB"/>
<path d="M445.534 334.015C437.069 334.015 428.738 330.14 428.746 320.87C428.753 312.323 438.61 309.035 440.728 305.947C442.32 303.649 441.791 300.421 446.157 300.421C449 300.421 450.388 302.72 450.386 304.824C450.379 312.652 438.806 314.423 438.801 320.869C438.798 324.417 441.172 326.521 445.142 326.521C453.608 326.521 450.309 317.845 456.72 317.845C459.035 317.845 461.02 319.226 461.018 321.854C461.014 328.301 453.604 334.015 445.534 334.015ZM445.895 296.154C442.924 296.154 440.474 293.724 440.477 290.761C440.478 287.798 442.928 285.368 445.904 285.368C448.88 285.368 451.327 287.795 451.325 290.761C451.322 293.722 448.872 296.154 445.895 296.154Z" fill="#E5E7EB"/>
<path d="M471.144 146.633C479.609 146.633 487.94 150.508 487.932 159.777C487.925 168.325 478.069 171.612 475.95 174.701C474.358 176.998 474.887 180.227 470.521 180.227C467.678 180.227 466.29 177.927 466.292 175.824C466.299 167.996 477.872 166.224 477.877 159.779C477.88 156.23 475.506 154.127 471.535 154.127C463.07 154.127 466.368 162.802 459.958 162.802C457.643 162.802 455.658 161.421 455.66 158.793C455.663 152.346 463.074 146.633 471.144 146.633ZM470.783 184.495C473.754 184.495 476.204 186.923 476.201 189.887C476.199 192.85 473.75 195.279 470.774 195.279C467.798 195.279 465.351 192.853 465.353 189.887C465.356 186.925 467.807 184.495 470.783 184.495Z" fill="#D1D5DB"/>
<path d="M447.33 182.67C438.864 182.67 430.534 178.795 430.541 169.526C430.549 160.978 440.406 157.69 442.525 154.602C444.115 152.304 443.588 149.076 447.952 149.076C450.796 149.076 452.183 151.375 452.181 153.479C452.175 161.307 440.603 163.078 440.596 169.524C440.594 173.072 442.967 175.176 446.938 175.176C455.403 175.176 452.105 166.5 458.516 166.5C460.831 166.5 462.816 167.881 462.814 170.509C462.81 176.957 455.399 182.67 447.33 182.67ZM447.691 144.809C444.719 144.809 442.269 142.379 442.272 139.416C442.275 136.453 444.723 134.023 447.7 134.023C450.676 134.023 453.123 136.45 453.12 139.416C453.117 142.377 450.667 144.809 447.691 144.809Z" fill="#E5E7EB"/>
<path d="M399.373 146.633C407.838 146.633 416.169 150.508 416.161 159.777C416.154 168.325 406.297 171.612 404.178 174.701C402.587 176.998 403.116 180.227 398.75 180.227C395.906 180.227 394.519 177.927 394.521 175.824C394.527 167.996 406.101 166.224 406.106 159.779C406.109 156.23 403.735 154.127 399.764 154.127C391.299 154.127 394.598 162.802 388.187 162.802C385.872 162.802 383.886 161.421 383.889 158.793C383.892 152.346 391.303 146.633 399.373 146.633ZM399.012 184.495C401.983 184.495 404.433 186.923 404.43 189.887C404.428 192.85 401.979 195.279 399.003 195.279C396.027 195.279 393.58 192.853 393.582 189.887C393.585 186.925 396.036 184.495 399.012 184.495Z" fill="#D1D5DB"/>
<path d="M375.558 182.67C367.093 182.67 358.762 178.795 358.77 169.526C358.777 160.978 368.634 157.69 370.753 154.602C372.344 152.304 371.815 149.076 376.181 149.076C379.025 149.076 380.412 151.375 380.41 153.479C380.404 161.307 368.831 163.078 368.825 169.524C368.822 173.072 371.196 175.176 375.167 175.176C383.632 175.176 380.333 166.5 386.744 166.5C389.059 166.5 391.045 167.881 391.042 170.509C391.039 176.957 383.628 182.67 375.558 182.67ZM375.919 144.809C372.948 144.809 370.498 142.379 370.501 139.416C370.503 136.453 372.952 134.023 375.928 134.023C378.904 134.023 381.351 136.45 381.349 139.416C381.346 142.377 378.895 144.809 375.919 144.809Z" fill="#E5E7EB"/>
<path d="M517.797 247.529C526.262 247.529 534.593 251.405 534.585 260.674C534.578 269.221 524.721 272.509 522.603 275.598C521.011 277.895 521.539 281.124 517.174 281.124C514.331 281.124 512.943 278.824 512.945 276.72C512.952 268.893 524.525 267.121 524.53 260.676C524.533 257.127 522.159 255.023 518.189 255.023C509.723 255.023 513.021 263.699 506.611 263.699C504.296 263.699 502.311 262.318 502.313 259.69C502.317 253.243 509.727 247.529 517.797 247.529ZM517.436 285.391C520.407 285.391 522.857 287.82 522.854 290.784C522.853 293.746 520.403 296.176 517.427 296.176C514.451 296.176 512.004 293.75 512.006 290.784C512.009 287.822 514.459 285.391 517.436 285.391Z" fill="#D1D5DB"/>
<path d="M493.982 283.566C485.517 283.566 477.186 279.691 477.194 270.422C477.201 261.875 487.058 258.587 489.177 255.499C490.768 253.201 490.24 249.973 494.605 249.973C497.449 249.973 498.835 252.272 498.834 254.375C498.827 262.203 487.255 263.975 487.25 270.421C487.246 273.969 489.62 276.072 493.591 276.072C502.055 276.072 498.757 267.397 505.169 267.397C507.483 267.397 509.469 268.778 509.466 271.406C509.463 277.853 502.052 283.566 493.982 283.566ZM494.343 245.705C491.371 245.705 488.922 243.276 488.925 240.313C488.927 237.349 491.376 234.92 494.352 234.92C497.328 234.92 499.775 237.347 499.773 240.313C499.771 243.274 497.319 245.705 494.343 245.705Z" fill="#E5E7EB"/>
<path d="M446.023 247.529C454.488 247.529 462.819 251.405 462.811 260.674C462.804 269.221 452.947 272.509 450.828 275.598C449.237 277.895 449.765 281.124 445.4 281.124C442.556 281.124 441.169 278.824 441.171 276.72C441.178 268.893 452.75 267.121 452.755 260.676C452.758 257.127 450.385 255.023 446.415 255.023C437.949 255.023 441.247 263.699 434.836 263.699C432.521 263.699 430.536 262.318 430.538 259.69C430.543 253.243 437.952 247.529 446.023 247.529ZM445.661 285.391C448.633 285.391 451.083 287.82 451.08 290.784C451.078 293.746 448.628 296.176 445.652 296.176C442.676 296.176 440.229 293.75 440.232 290.784C440.234 287.822 442.685 285.391 445.661 285.391Z" fill="#D1D5DB"/>
<path d="M422.208 283.566C413.742 283.566 405.412 279.691 405.419 270.422C405.427 261.875 415.284 258.587 417.403 255.499C418.993 253.201 418.466 249.973 422.83 249.973C425.674 249.973 427.061 252.272 427.059 254.375C427.053 262.203 415.481 263.975 415.475 270.421C415.472 273.969 417.845 276.072 421.816 276.072C430.281 276.072 426.983 267.397 433.394 267.397C435.709 267.397 437.694 268.778 437.692 271.406C437.688 277.853 430.277 283.566 422.208 283.566ZM422.569 245.705C419.597 245.705 417.147 243.276 417.15 240.313C417.153 237.349 419.601 234.92 422.578 234.92C425.554 234.92 428.001 237.347 427.998 240.313C427.996 243.274 425.545 245.705 422.569 245.705Z" fill="#E5E7EB"/>
<path d="M470.654 233.115C462.189 233.115 453.858 229.24 453.866 219.971C453.873 211.423 463.73 208.135 465.849 205.047C467.44 202.749 466.912 199.521 471.277 199.521C474.121 199.521 475.508 201.82 475.506 203.923C475.499 211.751 463.927 213.523 463.922 219.969C463.919 223.517 466.292 225.62 470.262 225.62C478.728 225.62 475.429 216.946 481.841 216.946C484.156 216.946 486.141 218.326 486.139 220.954C486.135 227.402 478.725 233.115 470.654 233.115ZM471.016 195.253C468.044 195.253 465.595 192.824 465.597 189.861C465.599 186.898 468.049 184.469 471.025 184.469C474.001 184.469 476.448 186.895 476.445 189.861C476.443 192.822 473.992 195.253 471.016 195.253Z" fill="#E5E7EB"/>
<path d="M494.469 197.077C502.935 197.077 511.265 200.953 511.257 210.222C511.25 218.77 501.393 222.057 499.274 225.146C497.684 227.443 498.211 230.672 493.847 230.672C491.003 230.672 489.616 228.372 489.618 226.269C489.624 218.441 501.196 216.669 501.202 210.224C501.205 206.675 498.831 204.572 494.861 204.572C486.396 204.572 489.694 213.247 483.283 213.247C480.969 213.247 478.983 211.866 478.985 209.238C478.989 202.791 486.399 197.077 494.469 197.077ZM494.108 234.94C497.079 234.94 499.53 237.368 499.527 240.332C499.524 243.295 497.075 245.724 494.099 245.724C491.122 245.724 488.676 243.298 488.679 240.332C488.681 237.37 491.132 234.94 494.108 234.94Z" fill="#D1D5DB"/>
<path d="M398.881 233.115C390.416 233.115 382.085 229.24 382.093 219.971C382.1 211.423 391.957 208.135 394.076 205.047C395.667 202.749 395.139 199.521 399.505 199.521C402.348 199.521 403.735 201.82 403.734 203.923C403.726 211.751 392.154 213.523 392.149 219.969C392.146 223.517 394.519 225.62 398.489 225.62C406.955 225.62 403.656 216.946 410.068 216.946C412.383 216.946 414.368 218.326 414.366 220.954C414.362 227.402 406.952 233.115 398.881 233.115ZM399.243 195.253C396.271 195.253 393.822 192.824 393.823 189.861C393.826 186.898 396.276 184.469 399.252 184.469C402.228 184.469 404.675 186.895 404.672 189.861C404.67 192.822 402.219 195.253 399.243 195.253Z" fill="#E5E7EB"/>
<path d="M422.696 197.077C431.162 197.077 439.492 200.953 439.484 210.222C439.477 218.77 429.62 222.057 427.502 225.146C425.911 227.443 426.439 230.672 422.074 230.672C419.23 230.672 417.843 228.372 417.845 226.269C417.851 218.441 429.424 216.669 429.429 210.224C429.432 206.675 427.058 204.572 423.088 204.572C414.623 204.572 417.921 213.247 411.51 213.247C409.196 213.247 407.21 211.866 407.212 209.238C407.216 202.791 414.626 197.077 422.696 197.077ZM422.335 234.94C425.306 234.94 427.757 237.368 427.754 240.332C427.752 243.295 425.302 245.724 422.326 245.724C419.35 245.724 416.903 243.298 416.906 240.332C416.908 237.37 419.359 234.94 422.335 234.94Z" fill="#D1D5DB"/>
<path d="M589.078 334.009C580.613 334.009 572.282 330.135 572.29 320.866C572.297 312.318 582.153 309.03 584.272 305.942C585.864 303.644 585.335 300.416 589.701 300.416C592.544 300.416 593.932 302.715 593.93 304.818C593.923 312.646 582.35 314.418 582.345 320.864C582.342 324.412 584.716 326.515 588.687 326.515C597.152 326.515 593.853 317.841 600.264 317.841C602.579 317.841 604.564 319.221 604.562 321.849C604.559 328.297 597.148 334.009 589.078 334.009ZM589.439 296.148C586.468 296.148 584.018 293.719 584.021 290.756C584.023 287.792 586.472 285.364 589.448 285.364C592.424 285.364 594.871 287.79 594.869 290.756C594.866 293.717 592.416 296.148 589.439 296.148Z" fill="#E5E7EB"/>
<path d="M590.869 182.67C582.404 182.67 574.073 178.795 574.081 169.526C574.088 160.978 583.945 157.69 586.063 154.602C587.654 152.304 587.126 149.076 591.492 149.076C594.335 149.076 595.722 151.375 595.72 153.479C595.714 161.307 584.141 163.078 584.136 169.524C584.133 173.072 586.507 175.176 590.477 175.176C598.942 175.176 595.644 166.5 602.055 166.5C604.369 166.5 606.355 167.881 606.353 170.509C606.349 176.957 598.939 182.67 590.869 182.67ZM591.229 144.809C588.259 144.809 585.808 142.379 585.811 139.416C585.813 136.453 588.263 134.023 591.239 134.023C594.215 134.023 596.661 136.45 596.66 139.416C596.657 142.377 594.206 144.809 591.229 144.809Z" fill="#E5E7EB"/>
<path d="M542.914 146.633C551.379 146.633 559.71 150.508 559.702 159.777C559.695 168.325 549.838 171.612 547.719 174.701C546.128 176.998 546.656 180.227 542.291 180.227C539.448 180.227 538.06 177.927 538.062 175.824C538.069 167.996 549.641 166.224 549.647 159.779C549.649 156.23 547.276 154.127 543.306 154.127C534.84 154.127 538.139 162.802 531.727 162.802C529.412 162.802 527.427 161.421 527.429 158.793C527.434 152.346 534.844 146.633 542.914 146.633ZM542.552 184.495C545.524 184.495 547.974 186.923 547.971 189.887C547.969 192.85 545.52 195.279 542.543 195.279C539.567 195.279 537.12 192.853 537.123 189.887C537.126 186.925 539.576 184.495 542.552 184.495Z" fill="#D1D5DB"/>
<path d="M519.099 182.67C510.633 182.67 502.303 178.795 502.311 169.526C502.318 160.978 512.175 157.69 514.294 154.602C515.884 152.304 515.357 149.076 519.721 149.076C522.566 149.076 523.952 151.375 523.95 153.479C523.944 161.307 512.372 163.078 512.366 169.524C512.363 173.072 514.737 175.176 518.707 175.176C527.172 175.176 523.874 166.5 530.286 166.5C532.6 166.5 534.586 167.881 534.583 170.509C534.579 176.957 527.169 182.67 519.099 182.67ZM519.46 144.809C516.488 144.809 514.039 142.379 514.041 139.416C514.044 136.453 516.493 134.023 519.47 134.023C522.446 134.023 524.892 136.45 524.889 139.416C524.887 142.377 522.436 144.809 519.46 144.809Z" fill="#E5E7EB"/>
<path d="M589.567 247.528C598.032 247.528 606.363 251.403 606.355 260.672C606.348 269.22 596.491 272.507 594.372 275.596C592.781 277.893 593.309 281.122 588.944 281.122C586.1 281.122 584.713 278.822 584.715 276.719C584.722 268.891 596.294 267.119 596.299 260.674C596.302 257.125 593.929 255.022 589.959 255.022C581.493 255.022 584.792 263.697 578.38 263.697C576.065 263.697 574.08 262.316 574.082 259.688C574.086 253.241 581.496 247.528 589.567 247.528ZM589.205 285.39C592.177 285.39 594.626 287.818 594.625 290.782C594.622 293.745 592.172 296.174 589.196 296.174C586.22 296.174 583.773 293.748 583.776 290.782C583.778 287.82 586.229 285.39 589.205 285.39Z" fill="#D1D5DB"/>
<path d="M565.752 283.565C557.286 283.565 548.956 279.689 548.964 270.421C548.971 261.873 558.828 258.585 560.947 255.497C562.537 253.199 562.01 249.971 566.374 249.971C569.218 249.971 570.605 252.27 570.603 254.374C570.597 262.202 559.025 263.973 559.019 270.419C559.016 273.967 561.39 276.071 565.36 276.071C573.825 276.071 570.527 267.395 576.939 267.395C579.253 267.395 581.238 268.776 581.236 271.404C581.232 277.851 573.822 283.565 565.752 283.565ZM566.113 245.703C563.142 245.703 560.691 243.274 560.694 240.311C560.697 237.348 563.146 234.918 566.122 234.918C569.099 234.918 571.545 237.345 571.542 240.311C571.54 243.272 569.089 245.703 566.113 245.703Z" fill="#E5E7EB"/>
<path d="M542.422 233.115C533.957 233.115 525.626 229.24 525.634 219.971C525.641 211.423 535.498 208.135 537.617 205.047C539.208 202.749 538.68 199.521 543.045 199.521C545.888 199.521 547.276 201.82 547.274 203.923C547.267 211.751 535.695 213.523 535.689 219.969C535.687 223.517 538.06 225.62 542.031 225.62C550.496 225.62 547.198 216.946 553.608 216.946C555.923 216.946 557.908 218.326 557.907 220.954C557.903 227.402 550.492 233.115 542.422 233.115ZM542.784 195.253C539.812 195.253 537.362 192.824 537.365 189.861C537.368 186.898 539.816 184.469 542.792 184.469C545.769 184.469 548.216 186.895 548.213 189.861C548.21 192.822 545.76 195.253 542.784 195.253Z" fill="#E5E7EB"/>
<path d="M566.238 197.077C574.703 197.077 583.033 200.953 583.026 210.222C583.018 218.77 573.161 222.057 571.042 225.146C569.452 227.443 569.98 230.672 565.614 230.672C562.77 230.672 561.384 228.372 561.386 226.269C561.392 218.441 572.964 216.669 572.97 210.224C572.973 206.675 570.6 204.572 566.629 204.572C558.164 204.572 561.462 213.247 555.051 213.247C552.736 213.247 550.75 211.866 550.753 209.238C550.756 202.791 558.167 197.077 566.238 197.077ZM565.876 234.94C568.848 234.94 571.297 237.368 571.295 240.332C571.292 243.295 568.843 245.724 565.867 245.724C562.891 245.724 560.444 243.298 560.447 240.332C560.449 237.37 562.9 234.94 565.876 234.94Z" fill="#D1D5DB"/>
<path d="M86.6773 334.009C78.2122 334.009 69.8814 330.135 69.8892 320.866C69.8964 312.318 79.7534 309.03 81.8723 305.942C83.463 303.644 82.9351 300.416 87.3004 300.416C90.1441 300.416 91.5307 302.715 91.5289 304.818C91.5227 312.646 79.9502 314.418 79.9447 320.864C79.9417 324.412 82.3153 326.515 86.2857 326.515C94.7507 326.515 91.4527 317.841 97.8644 317.841C100.178 317.841 102.164 319.221 102.162 321.849C102.158 328.297 94.7472 334.009 86.6773 334.009ZM87.0387 296.148C84.0671 296.148 81.6173 293.719 81.6198 290.756C81.6224 287.792 84.0716 285.364 87.0478 285.364C90.0244 285.364 92.4705 287.79 92.4678 290.756C92.466 293.717 90.0147 296.148 87.0387 296.148Z" fill="#E5E7EB"/>
<path d="M14.9087 334.009C6.44355 334.009 -1.88724 330.135 -1.87939 320.866C-1.87216 312.318 7.98479 309.03 10.1037 305.942C11.6944 303.644 11.1665 300.416 15.5318 300.416C18.3753 300.416 19.7624 302.715 19.7606 304.818C19.754 312.646 8.18156 314.418 8.17611 320.864C8.1731 324.412 10.5467 326.515 14.5171 326.515C22.9822 326.515 19.6841 317.841 26.0954 317.841C28.4098 317.841 30.3954 319.221 30.3932 321.849C30.3893 328.297 22.979 334.009 14.9087 334.009ZM15.27 296.148C12.2985 296.148 9.84868 293.719 9.85125 290.756C9.85373 287.792 12.303 285.364 15.2792 285.364C18.2554 285.364 20.702 287.79 20.6996 290.756C20.6971 293.717 18.2462 296.148 15.27 296.148Z" fill="#E5E7EB"/>
<path d="M40.5211 146.633C48.9863 146.633 57.3171 150.508 57.3093 159.777C57.302 168.325 47.4451 171.612 45.3262 174.701C43.7355 176.998 44.2633 180.227 39.8981 180.227C37.0546 180.227 35.6674 177.927 35.6692 175.824C35.6759 167.996 47.2483 166.224 47.2537 159.779C47.2567 156.23 44.8831 154.127 40.9128 154.127C32.4476 154.127 35.7458 162.802 29.3345 162.802C27.0201 162.802 25.0344 161.421 25.0366 158.793C25.0405 152.346 32.4508 146.633 40.5211 146.633ZM40.1598 184.495C43.1314 184.495 45.5811 186.923 45.5786 189.887C45.5762 192.85 43.1269 195.279 40.1507 195.279C37.1744 195.279 34.7278 192.853 34.7303 189.887C34.7328 186.925 37.1836 184.495 40.1598 184.495Z" fill="#D1D5DB"/>
<path d="M16.7061 182.67C8.24092 182.67 -0.0898677 178.795 -0.0820257 169.526C-0.0747938 160.978 9.78218 157.69 11.9011 154.602C13.4918 152.304 12.9639 149.076 17.3291 149.076C20.1727 149.076 21.5598 151.375 21.558 153.479C21.5514 161.307 9.97891 163.078 9.9735 169.524C9.97048 173.072 12.3441 175.176 16.3144 175.176C24.7796 175.176 21.4814 166.5 27.8927 166.5C30.2072 166.5 32.1928 167.881 32.1906 170.509C32.1867 176.957 24.7764 182.67 16.7061 182.67ZM17.0675 144.809C14.0959 144.809 11.6461 142.379 11.6486 139.416C11.6511 136.453 14.1003 134.023 17.0765 134.023C20.0528 134.023 22.4995 136.45 22.4969 139.416C22.4944 142.377 20.0437 144.809 17.0675 144.809Z" fill="#E5E7EB"/>
<path d="M87.1701 247.528C95.6348 247.528 103.966 251.403 103.958 260.672C103.951 269.22 94.094 272.507 91.9751 275.596C90.3846 277.893 90.9121 281.122 86.547 281.122C83.7035 281.122 82.3164 278.822 82.3182 276.719C82.3248 268.891 93.8972 267.119 93.9025 260.674C93.906 257.125 91.5318 255.022 87.5618 255.022C79.0965 255.022 82.3947 263.697 75.9834 263.697C73.669 263.697 71.6833 262.316 71.6855 259.688C71.6894 253.241 79.0997 247.528 87.1701 247.528ZM86.8087 285.39C89.7799 285.39 92.2304 287.818 92.2278 290.782C92.2251 293.745 89.7755 296.174 86.7996 296.174C83.8234 296.174 81.3767 293.748 81.3792 290.782C81.3818 287.82 83.8325 285.39 86.8087 285.39Z" fill="#D1D5DB"/>
<path d="M63.354 283.565C54.8889 283.565 46.5581 279.689 46.5659 270.421C46.5732 261.873 56.4301 258.585 58.549 255.497C60.1397 253.199 59.6119 249.971 63.9771 249.971C66.8207 249.971 68.2077 252.27 68.206 254.374C68.1993 262.202 56.6269 263.973 56.6215 270.419C56.6184 273.967 58.9921 276.071 62.9625 276.071C71.4276 276.071 68.1294 267.395 74.5407 267.395C76.8551 267.395 78.8408 268.776 78.8386 271.404C78.8347 277.851 71.4244 283.565 63.354 283.565ZM63.7154 245.703C60.7438 245.703 58.2941 243.274 58.2965 240.311C58.2991 237.348 60.7482 234.918 63.7245 234.918C66.7007 234.918 69.1474 237.345 69.1449 240.311C69.1424 243.272 66.6916 245.703 63.7154 245.703Z" fill="#E5E7EB"/>
<path d="M15.3985 247.528C23.8638 247.528 32.1945 251.403 32.1867 260.672C32.1794 269.22 22.3225 272.507 20.2036 275.596C18.6129 277.893 19.1407 281.122 14.7755 281.122C11.932 281.122 10.5449 278.822 10.5466 276.719C10.5533 268.891 22.1257 267.119 22.1311 260.674C22.1342 257.125 19.7605 255.022 15.7901 255.022C7.32503 255.022 10.6232 263.697 4.21193 263.697C1.89743 263.697 -0.0881591 262.316 -0.0859356 259.688C-0.0820415 253.241 7.32824 247.528 15.3985 247.528ZM15.0372 285.39C18.0088 285.39 20.4585 287.818 20.4561 290.782C20.4535 293.745 18.0043 296.174 15.0281 296.174C12.0518 296.174 9.60519 293.748 9.60767 290.782C9.61024 287.82 12.061 285.39 15.0372 285.39Z" fill="#D1D5DB"/>
<path d="M-8.41649 283.565C-16.8817 283.565 -25.2124 279.689 -25.2046 270.421C-25.1973 261.873 -15.3404 258.585 -13.2215 255.497C-11.6308 253.199 -12.1587 249.971 -7.79344 249.971C-4.94987 249.971 -3.56281 252.27 -3.56459 254.374C-3.57121 262.202 -15.1436 263.973 -15.1491 270.419C-15.1521 273.967 -12.7785 276.071 -8.80812 276.071C-0.34296 276.071 -3.64115 267.395 2.77015 267.395C5.08465 267.395 7.07023 268.776 7.068 271.404C7.06411 277.851 -0.346178 283.565 -8.41649 283.565ZM-8.05515 245.703C-11.0267 245.703 -13.4765 243.274 -13.474 240.311C-13.4715 237.348 -11.0223 234.918 -8.04603 234.918C-5.06979 234.918 -2.62313 237.345 -2.62564 240.311C-2.62814 243.272 -5.07892 245.703 -8.05515 245.703Z" fill="#E5E7EB"/>
<path d="M40.0303 233.115C31.5651 233.115 23.2344 229.24 23.2422 219.971C23.2495 211.423 33.1064 208.135 35.2253 205.047C36.816 202.749 36.2881 199.521 40.6533 199.521C43.4969 199.521 44.884 201.82 44.8822 203.923C44.8756 211.751 33.3031 213.523 33.2977 219.969C33.2947 223.517 35.6683 225.62 39.6386 225.62C48.1038 225.62 44.8056 216.946 51.2169 216.946C53.5314 216.946 55.517 218.326 55.5148 220.954C55.5109 227.402 48.1006 233.115 40.0303 233.115ZM40.3916 195.253C37.4201 195.253 34.9703 192.824 34.9728 189.861C34.9753 186.898 37.4245 184.469 40.4007 184.469C43.377 184.469 45.8237 186.895 45.8211 189.861C45.8186 192.822 43.3679 195.253 40.3916 195.253Z" fill="#E5E7EB"/>
<path d="M63.8454 197.077C72.3106 197.077 80.6413 200.953 80.6335 210.222C80.6262 218.77 70.7693 222.057 68.6504 225.146C67.0597 227.443 67.5876 230.672 63.2224 230.672C60.3788 230.672 58.9917 228.372 58.9934 226.269C59.0001 218.441 70.5725 216.669 70.5779 210.224C70.581 206.675 68.2074 204.572 64.237 204.572C55.7718 204.572 59.07 213.247 52.6587 213.247C50.3443 213.247 48.3586 211.866 48.3608 209.238C48.3647 202.791 55.775 197.077 63.8454 197.077ZM63.484 234.94C66.4556 234.94 68.9053 237.368 68.9029 240.332C68.9004 243.295 66.4512 245.724 63.4749 245.724C60.4987 245.724 58.052 243.298 58.0546 240.332C58.0571 237.37 60.5078 234.94 63.484 234.94Z" fill="#D1D5DB"/>
<path d="M-7.9281 197.077C0.537067 197.077 8.86785 200.953 8.86001 210.222C8.85278 218.77 -1.00417 222.057 -3.12308 225.146C-4.7138 227.443 -4.1859 230.672 -8.55114 230.672C-11.3947 230.672 -12.7818 228.372 -12.78 226.269C-12.7733 218.441 -1.20095 216.669 -1.1955 210.224C-1.19249 206.675 -3.56607 204.572 -7.53646 204.572C-16.0016 204.572 -12.7034 213.247 -19.1147 213.247C-21.4293 213.247 -23.4148 211.866 -23.4126 209.238C-23.4087 202.791 -15.9984 197.077 -7.9281 197.077ZM-8.28943 234.94C-5.31789 234.94 -2.8681 237.368 -2.87061 240.332C-2.87312 243.295 -5.32233 245.724 -8.29856 245.724C-11.2748 245.724 -13.7214 243.298 -13.719 240.332C-13.7165 237.37 -11.2656 234.94 -8.28943 234.94Z" fill="#D1D5DB"/>
<path d="M230.226 334.009C221.76 334.009 213.43 330.135 213.438 320.866C213.445 312.318 223.302 309.03 225.421 305.942C227.011 303.644 226.484 300.416 230.848 300.416C233.693 300.416 235.079 302.715 235.077 304.818C235.071 312.646 223.499 314.418 223.493 320.864C223.49 324.412 225.864 326.515 229.834 326.515C238.299 326.515 235.001 317.841 241.413 317.841C243.727 317.841 245.713 319.221 245.71 321.849C245.706 328.297 238.296 334.009 230.226 334.009ZM230.587 296.148C227.615 296.148 225.166 293.719 225.168 290.756C225.171 287.792 227.62 285.364 230.597 285.364C233.573 285.364 236.019 287.79 236.016 290.756C236.014 293.717 233.563 296.148 230.587 296.148Z" fill="#E5E7EB"/>
<path d="M158.452 334.009C149.986 334.009 141.656 330.135 141.664 320.866C141.671 312.318 151.528 309.03 153.646 305.942C155.237 303.644 154.709 300.416 159.074 300.416C161.918 300.416 163.305 302.715 163.303 304.818C163.297 312.646 151.724 314.418 151.719 320.864C151.715 324.412 154.09 326.515 158.06 326.515C166.525 326.515 163.227 317.841 169.638 317.841C171.952 317.841 173.938 319.221 173.936 321.849C173.932 328.297 166.522 334.009 158.452 334.009ZM158.812 296.148C155.841 296.148 153.391 293.719 153.394 290.756C153.396 287.792 155.845 285.364 158.822 285.364C161.798 285.364 164.244 287.79 164.242 290.756C164.24 293.717 161.789 296.148 158.812 296.148Z" fill="#E5E7EB"/>
<path d="M184.063 146.633C192.527 146.633 200.859 150.508 200.851 159.777C200.843 168.325 190.987 171.612 188.868 174.701C187.277 176.998 187.805 180.227 183.439 180.227C180.596 180.227 179.209 177.927 179.211 175.824C179.217 167.996 190.79 166.224 190.795 159.779C190.799 156.23 188.424 154.127 184.454 154.127C175.989 154.127 179.287 162.802 172.876 162.802C170.562 162.802 168.576 161.421 168.579 158.793C168.582 152.346 175.992 146.633 184.063 146.633ZM183.702 184.495C186.673 184.495 189.123 186.923 189.12 189.887C189.118 192.85 186.668 195.279 183.692 195.279C180.716 195.279 178.27 192.853 178.271 189.887C178.274 186.925 180.725 184.495 183.702 184.495Z" fill="#D1D5DB"/>
<path d="M160.248 182.67C151.783 182.67 143.451 178.795 143.459 169.526C143.467 160.978 153.323 157.69 155.442 154.602C157.033 152.304 156.505 149.076 160.871 149.076C163.714 149.076 165.101 151.375 165.1 153.479C165.093 161.307 153.52 163.078 153.515 169.524C153.512 173.072 155.886 175.176 159.856 175.176C168.321 175.176 165.023 166.5 171.434 166.5C173.749 166.5 175.734 167.881 175.732 170.509C175.728 176.957 168.318 182.67 160.248 182.67ZM160.609 144.809C157.637 144.809 155.188 142.379 155.19 139.416C155.192 136.453 157.642 134.023 160.618 134.023C163.594 134.023 166.041 136.45 166.039 139.416C166.036 142.377 163.585 144.809 160.609 144.809Z" fill="#E5E7EB"/>
<path d="M112.291 146.633C120.756 146.633 129.087 150.508 129.079 159.777C129.072 168.325 119.216 171.612 117.097 174.701C115.506 176.998 116.034 180.227 111.668 180.227C108.825 180.227 107.437 177.927 107.439 175.824C107.446 167.996 119.019 166.224 119.024 159.779C119.028 156.23 116.653 154.127 112.683 154.127C104.218 154.127 107.516 162.802 101.105 162.802C98.7908 162.802 96.8049 161.421 96.8066 158.793C96.8111 152.346 104.221 146.633 112.291 146.633ZM111.931 184.495C114.901 184.495 117.352 186.923 117.349 189.887C117.347 192.85 114.897 195.279 111.921 195.279C108.945 195.279 106.499 192.853 106.5 189.887C106.503 186.925 108.954 184.495 111.931 184.495Z" fill="#D1D5DB"/>
<path d="M88.4766 182.67C80.0115 182.67 71.6807 178.795 71.6885 169.526C71.6958 160.978 81.5527 157.69 83.6716 154.602C85.2624 152.304 84.7344 149.076 89.0999 149.076C91.9432 149.076 93.3306 151.375 93.3289 153.479C93.3218 161.307 81.7494 163.078 81.744 169.524C81.741 173.072 84.1146 175.176 88.085 175.176C96.5498 175.176 93.2517 166.5 99.6634 166.5C101.977 166.5 103.963 167.881 103.961 170.509C103.957 176.957 96.5471 182.67 88.4766 182.67ZM88.8375 144.809C85.8664 144.809 83.4166 142.379 83.4191 139.416C83.4217 136.453 85.8708 134.023 88.8473 134.023C91.8235 134.023 94.2704 136.45 94.2678 139.416C94.2651 142.377 91.8146 144.809 88.8375 144.809Z" fill="#E5E7EB"/>
<path d="M230.714 247.528C239.18 247.528 247.51 251.403 247.502 260.672C247.495 269.22 237.638 272.507 235.519 275.596C233.929 277.893 234.456 281.122 230.092 281.122C227.247 281.122 225.861 278.822 225.863 276.719C225.869 268.891 237.441 267.119 237.446 260.674C237.45 257.125 235.076 255.022 231.106 255.022C222.641 255.022 225.939 263.697 219.527 263.697C217.213 263.697 215.227 262.316 215.23 259.688C215.234 253.241 222.643 247.528 230.714 247.528ZM230.353 285.39C233.325 285.39 235.774 287.818 235.772 290.782C235.769 293.745 233.32 296.174 230.343 296.174C227.367 296.174 224.921 293.748 224.924 290.782C224.925 287.82 227.377 285.39 230.353 285.39Z" fill="#D1D5DB"/>
<path d="M206.899 283.565C198.434 283.565 190.103 279.689 190.111 270.421C190.118 261.873 199.975 258.585 202.094 255.497C203.685 253.199 203.157 249.971 207.522 249.971C210.365 249.971 211.753 252.27 211.751 254.374C211.744 262.202 200.172 263.973 200.166 270.419C200.164 273.967 202.537 276.071 206.507 276.071C214.973 276.071 211.674 267.395 218.086 267.395C220.4 267.395 222.385 268.776 222.384 271.404C222.379 277.851 214.969 283.565 206.899 283.565ZM207.261 245.703C204.289 245.703 201.839 243.274 201.842 240.311C201.844 237.348 204.293 234.918 207.269 234.918C210.246 234.918 212.693 237.345 212.69 240.311C212.687 243.272 210.237 245.703 207.261 245.703Z" fill="#E5E7EB"/>
<path d="M158.941 247.528C167.407 247.528 175.737 251.403 175.729 260.672C175.722 269.22 165.865 272.507 163.746 275.596C162.156 277.893 162.683 281.122 158.319 281.122C155.474 281.122 154.088 278.822 154.09 276.719C154.096 268.891 165.668 267.119 165.674 260.674C165.677 257.125 163.303 255.022 159.333 255.022C150.868 255.022 154.166 263.697 147.754 263.697C145.44 263.697 143.454 262.316 143.457 259.688C143.461 253.241 150.871 247.528 158.941 247.528ZM158.58 285.39C161.551 285.39 164.001 287.818 163.999 290.782C163.996 293.745 161.547 296.174 158.57 296.174C155.594 296.174 153.148 293.748 153.151 290.782C153.153 287.82 155.604 285.39 158.58 285.39Z" fill="#D1D5DB"/>
<path d="M135.126 283.565C126.661 283.565 118.33 279.689 118.338 270.421C118.345 261.873 128.202 258.585 130.321 255.497C131.912 253.199 131.384 249.971 135.749 249.971C138.592 249.971 139.98 252.27 139.978 254.374C139.971 262.202 128.399 263.973 128.393 270.419C128.391 273.967 130.764 276.071 134.734 276.071C143.2 276.071 139.901 267.395 146.313 267.395C148.627 267.395 150.612 268.776 150.611 271.404C150.606 277.851 143.196 283.565 135.126 283.565ZM135.488 245.703C132.516 245.703 130.066 243.274 130.069 240.311C130.071 237.348 132.52 234.918 135.497 234.918C138.473 234.918 140.92 237.345 140.917 240.311C140.914 243.272 138.464 245.703 135.488 245.703Z" fill="#E5E7EB"/>
<path d="M183.572 233.115C175.106 233.115 166.776 229.24 166.784 219.971C166.791 211.423 176.648 208.135 178.767 205.047C180.357 202.749 179.83 199.521 184.194 199.521C187.038 199.521 188.425 201.82 188.423 203.923C188.417 211.751 176.844 213.523 176.839 219.969C176.836 223.517 179.21 225.62 183.18 225.62C191.645 225.62 188.347 216.946 194.758 216.946C197.072 216.946 199.058 218.326 199.056 220.954C199.052 227.402 191.642 233.115 183.572 233.115ZM183.933 195.253C180.961 195.253 178.511 192.824 178.514 189.861C178.517 186.898 180.965 184.469 183.941 184.469C186.919 184.469 189.365 186.895 189.362 189.861C189.36 192.822 186.909 195.253 183.933 195.253Z" fill="#E5E7EB"/>
<path d="M207.387 197.077C215.852 197.077 224.183 200.953 224.175 210.222C224.168 218.77 214.311 222.057 212.192 225.146C210.6 227.443 211.129 230.672 206.763 230.672C203.92 230.672 202.533 228.372 202.534 226.269C202.542 218.441 214.114 216.669 214.119 210.224C214.122 206.675 211.749 204.572 207.779 204.572C199.313 204.572 202.612 213.247 196.2 213.247C193.885 213.247 191.9 211.866 191.902 209.238C191.906 202.791 199.316 197.077 207.387 197.077ZM207.025 234.94C209.997 234.94 212.446 237.368 212.444 240.332C212.442 243.295 209.992 245.724 207.016 245.724C204.04 245.724 201.593 243.298 201.596 240.332C201.598 237.37 204.049 234.94 207.025 234.94Z" fill="#D1D5DB"/>
<path d="M111.8 233.115C103.334 233.115 95.0041 229.24 95.0112 219.971C95.0192 211.423 104.876 208.135 106.995 205.047C108.585 202.749 108.058 199.521 112.423 199.521C115.267 199.521 116.653 201.82 116.651 203.923C116.645 211.751 105.073 213.523 105.068 219.969C105.064 223.517 107.437 225.62 111.408 225.62C119.873 225.62 116.575 216.946 122.986 216.946C125.301 216.946 127.287 218.326 127.284 220.954C127.281 227.402 119.87 233.115 111.8 233.115ZM112.161 195.253C109.189 195.253 106.74 192.824 106.742 189.861C106.745 186.898 109.194 184.469 112.17 184.469C115.146 184.469 117.593 186.895 117.59 189.861C117.588 192.822 115.137 195.253 112.161 195.253Z" fill="#E5E7EB"/>
<path d="M135.615 197.077C144.08 197.077 152.411 200.953 152.403 210.222C152.396 218.77 142.539 222.057 140.42 225.146C138.829 227.443 139.357 230.672 134.992 230.672C132.149 230.672 130.761 228.372 130.763 226.269C130.77 218.441 142.342 216.669 142.348 210.224C142.35 206.675 139.977 204.572 136.007 204.572C127.541 204.572 130.839 213.247 124.428 213.247C122.114 213.247 120.129 211.866 120.13 209.238C120.134 202.791 127.545 197.077 135.615 197.077ZM135.253 234.94C138.225 234.94 140.675 237.368 140.672 240.332C140.67 243.295 138.221 245.724 135.245 245.724C132.268 245.724 129.821 243.298 129.824 240.332C129.827 237.37 132.277 234.94 135.253 234.94Z" fill="#D1D5DB"/>
<path d="M373.767 334.009C365.302 334.009 356.971 330.135 356.979 320.866C356.986 312.318 366.842 309.03 368.961 305.942C370.552 303.644 370.024 300.416 374.39 300.416C377.233 300.416 378.621 302.715 378.619 304.818C378.612 312.646 367.039 314.418 367.034 320.864C367.031 324.412 369.405 326.515 373.375 326.515C381.84 326.515 378.542 317.841 384.953 317.841C387.267 317.841 389.253 319.221 389.251 321.849C389.247 328.297 381.837 334.009 373.767 334.009ZM374.127 296.148C371.156 296.148 368.707 293.719 368.709 290.756C368.711 287.792 371.161 285.364 374.137 285.364C377.113 285.364 379.559 287.79 379.558 290.756C379.555 293.717 377.104 296.148 374.127 296.148Z" fill="#E5E7EB"/>
<path d="M301.994 334.009C293.529 334.009 285.198 330.135 285.206 320.866C285.213 312.318 295.07 309.03 297.189 305.942C298.779 303.644 298.252 300.416 302.617 300.416C305.461 300.416 306.848 302.715 306.846 304.818C306.839 312.646 295.267 314.418 295.262 320.864C295.258 324.412 297.632 326.515 301.602 326.515C310.067 326.515 306.769 317.841 313.181 317.841C315.495 317.841 317.481 319.221 317.479 321.849C317.474 328.297 310.065 334.009 301.994 334.009ZM302.355 296.148C299.384 296.148 296.934 293.719 296.936 290.756C296.939 287.792 299.388 285.364 302.365 285.364C305.341 285.364 307.787 287.79 307.785 290.756C307.783 293.717 305.331 296.148 302.355 296.148Z" fill="#E5E7EB"/>
<path d="M327.604 146.633C336.07 146.633 344.4 150.508 344.393 159.777C344.385 168.325 334.528 171.612 332.409 174.701C330.819 176.998 331.346 180.227 326.982 180.227C324.138 180.227 322.751 177.927 322.753 175.824C322.759 167.996 334.331 166.224 334.337 159.779C334.34 156.23 331.967 154.127 327.996 154.127C319.531 154.127 322.829 162.802 316.418 162.802C314.103 162.802 312.117 161.421 312.12 158.793C312.124 152.346 319.534 146.633 327.604 146.633ZM327.243 184.495C330.215 184.495 332.665 186.923 332.662 189.887C332.659 192.85 330.211 195.279 327.234 195.279C324.258 195.279 321.811 192.853 321.814 189.887C321.817 186.925 324.267 184.495 327.243 184.495Z" fill="#D1D5DB"/>
<path d="M303.789 182.67C295.324 182.67 286.993 178.795 287.001 169.526C287.008 160.978 296.865 157.69 298.984 154.602C300.575 152.304 300.047 149.076 304.412 149.076C307.256 149.076 308.643 151.375 308.641 153.479C308.634 161.307 297.062 163.078 297.056 169.524C297.054 173.072 299.427 175.176 303.397 175.176C311.863 175.176 308.565 166.5 314.976 166.5C317.291 166.5 319.276 167.881 319.274 170.509C319.27 176.957 311.859 182.67 303.789 182.67ZM304.151 144.809C301.179 144.809 298.729 142.379 298.732 139.416C298.734 136.453 301.183 134.023 304.16 134.023C307.136 134.023 309.583 136.45 309.58 139.416C309.577 142.377 307.127 144.809 304.151 144.809Z" fill="#E5E7EB"/>
<path d="M255.832 146.633C264.298 146.633 272.628 150.508 272.62 159.777C272.613 168.325 262.756 171.612 260.637 174.701C259.047 176.998 259.574 180.227 255.21 180.227C252.366 180.227 250.979 177.927 250.981 175.824C250.987 167.996 262.559 166.224 262.565 159.779C262.568 156.23 260.195 154.127 256.224 154.127C247.759 154.127 251.057 162.802 244.645 162.802C242.331 162.802 240.345 161.421 240.348 158.793C240.352 152.346 247.763 146.633 255.832 146.633ZM255.471 184.495C258.443 184.495 260.893 186.923 260.89 189.887C260.887 192.85 258.439 195.279 255.462 195.279C252.486 195.279 250.039 192.853 250.042 189.887C250.044 186.925 252.495 184.495 255.471 184.495Z" fill="#D1D5DB"/>
<path d="M232.017 182.67C223.552 182.67 215.221 178.795 215.229 169.526C215.236 160.978 225.093 157.69 227.212 154.602C228.803 152.304 228.275 149.076 232.64 149.076C235.484 149.076 236.871 151.375 236.869 153.479C236.862 161.307 225.29 163.078 225.284 169.524C225.282 173.072 227.655 175.176 231.625 175.176C240.091 175.176 236.792 166.5 243.204 166.5C245.519 166.5 247.504 167.881 247.502 170.509C247.497 176.957 240.087 182.67 232.017 182.67ZM232.379 144.809C229.407 144.809 226.957 142.379 226.96 139.416C226.962 136.453 229.411 134.023 232.388 134.023C235.364 134.023 237.811 136.45 237.808 139.416C237.805 142.377 235.355 144.809 232.379 144.809Z" fill="#E5E7EB"/>
<path d="M374.259 247.529C382.724 247.529 391.054 251.405 391.047 260.674C391.039 269.221 381.182 272.509 379.063 275.598C377.472 277.895 378.001 281.124 373.635 281.124C370.791 281.124 369.405 278.824 369.407 276.72C369.413 268.893 380.985 267.121 380.991 260.676C380.994 257.127 378.621 255.023 374.65 255.023C366.185 255.023 369.483 263.699 363.072 263.699C360.757 263.699 358.771 262.318 358.774 259.69C358.777 253.243 366.188 247.529 374.259 247.529ZM373.897 285.391C376.869 285.391 379.318 287.82 379.316 290.784C379.313 293.746 376.864 296.176 373.888 296.176C370.912 296.176 368.465 293.75 368.468 290.784C368.47 287.822 370.921 285.391 373.897 285.391Z" fill="#D1D5DB"/>
<path d="M350.443 283.566C341.978 283.566 333.647 279.691 333.655 270.422C333.662 261.875 343.519 258.587 345.638 255.499C347.229 253.201 346.701 249.973 351.066 249.973C353.909 249.973 355.297 252.272 355.295 254.375C355.288 262.203 343.716 263.975 343.71 270.421C343.708 273.969 346.081 276.072 350.052 276.072C358.517 276.072 355.219 267.397 361.63 267.397C363.944 267.397 365.929 268.778 365.928 271.406C365.924 277.853 358.513 283.566 350.443 283.566ZM350.805 245.705C347.833 245.705 345.383 243.276 345.386 240.313C345.389 237.349 347.837 234.92 350.813 234.92C353.79 234.92 356.237 237.347 356.234 240.313C356.231 243.274 353.781 245.705 350.805 245.705Z" fill="#E5E7EB"/>
<path d="M302.484 247.528C310.949 247.528 319.279 251.403 319.272 260.672C319.264 269.22 309.408 272.507 307.289 275.596C305.698 277.893 306.226 281.122 301.861 281.122C299.017 281.122 297.63 278.822 297.632 276.719C297.638 268.891 309.211 267.119 309.217 260.674C309.22 257.125 306.846 255.022 302.875 255.022C294.41 255.022 297.708 263.697 291.298 263.697C288.983 263.697 286.997 262.316 287 259.688C287.003 253.241 294.414 247.528 302.484 247.528ZM302.123 285.39C305.094 285.39 307.544 287.818 307.541 290.782C307.539 293.745 305.09 296.174 302.114 296.174C299.138 296.174 296.691 293.748 296.693 290.782C296.696 287.82 299.146 285.39 302.123 285.39Z" fill="#D1D5DB"/>
<path d="M278.668 283.565C270.203 283.565 261.872 279.689 261.88 270.421C261.887 261.873 271.744 258.585 273.863 255.497C275.455 253.199 274.926 249.971 279.292 249.971C282.135 249.971 283.522 252.27 283.521 254.374C283.513 262.202 271.941 263.973 271.936 270.419C271.933 273.967 274.306 276.071 278.277 276.071C286.742 276.071 283.444 267.395 289.855 267.395C292.17 267.395 294.155 268.776 294.153 271.404C294.15 277.851 286.739 283.565 278.668 283.565ZM279.03 245.703C276.058 245.703 273.609 243.274 273.611 240.311C273.614 237.348 276.063 234.918 279.039 234.918C282.015 234.918 284.462 237.345 284.459 240.311C284.457 243.272 282.006 245.703 279.03 245.703Z" fill="#E5E7EB"/>
<path d="M327.115 233.115C318.65 233.115 310.319 229.24 310.327 219.971C310.334 211.423 320.191 208.135 322.31 205.047C323.9 202.749 323.372 199.521 327.738 199.521C330.581 199.521 331.968 201.82 331.966 203.923C331.96 211.751 320.387 213.523 320.382 219.969C320.379 223.517 322.753 225.62 326.723 225.62C335.188 225.62 331.89 216.946 338.301 216.946C340.615 216.946 342.601 218.326 342.599 220.954C342.595 227.402 335.185 233.115 327.115 233.115ZM327.476 195.253C324.505 195.253 322.054 192.824 322.057 189.861C322.059 186.898 324.509 184.469 327.485 184.469C330.461 184.469 332.908 186.895 332.906 189.861C332.903 192.822 330.452 195.253 327.476 195.253Z" fill="#E5E7EB"/>
<path d="M350.93 197.077C359.395 197.077 367.726 200.953 367.718 210.222C367.711 218.77 357.854 222.057 355.735 225.146C354.144 227.443 354.672 230.672 350.306 230.672C347.463 230.672 346.076 228.372 346.077 226.269C346.085 218.441 357.657 216.669 357.662 210.224C357.665 206.675 355.292 204.572 351.321 204.572C342.857 204.572 346.155 213.247 339.743 213.247C337.428 213.247 335.443 211.866 335.445 209.238C335.449 202.791 342.859 197.077 350.93 197.077ZM350.568 234.94C353.54 234.94 355.989 237.368 355.987 240.332C355.985 243.295 353.535 245.724 350.559 245.724C347.583 245.724 345.136 243.298 345.139 240.332C345.141 237.37 347.592 234.94 350.568 234.94Z" fill="#D1D5DB"/>
<path d="M255.343 233.115C246.877 233.115 238.547 229.24 238.555 219.971C238.562 211.423 248.419 208.135 250.538 205.047C252.128 202.749 251.601 199.521 255.965 199.521C258.809 199.521 260.196 201.82 260.194 203.923C260.188 211.751 248.615 213.523 248.61 219.969C248.607 223.517 250.981 225.62 254.951 225.62C263.416 225.62 260.118 216.946 266.529 216.946C268.843 216.946 270.829 218.326 270.827 220.954C270.823 227.402 263.413 233.115 255.343 233.115ZM255.704 195.253C252.733 195.253 250.282 192.824 250.285 189.861C250.288 186.898 252.737 184.469 255.713 184.469C258.69 184.469 261.136 186.895 261.133 189.861C261.131 192.822 258.68 195.253 255.704 195.253Z" fill="#E5E7EB"/>
<path d="M279.158 197.077C287.623 197.077 295.954 200.953 295.946 210.222C295.939 218.77 286.082 222.057 283.963 225.146C282.372 227.443 282.9 230.672 278.534 230.672C275.691 230.672 274.304 228.372 274.305 226.269C274.313 218.441 285.885 216.669 285.89 210.224C285.893 206.675 283.52 204.572 279.549 204.572C271.084 204.572 274.383 213.247 267.971 213.247C265.656 213.247 263.671 211.866 263.673 209.238C263.677 202.791 271.087 197.077 279.158 197.077ZM278.796 234.94C281.768 234.94 284.217 237.368 284.215 240.332C284.213 243.295 281.763 245.724 278.787 245.724C275.811 245.724 273.364 243.298 273.367 240.332C273.369 237.37 275.82 234.94 278.796 234.94Z" fill="#D1D5DB"/>
</g>
</g>
<defs>
<clipPath id="clip0_1102_3654">
<rect width="594" height="291" fill="white"/>
</clipPath>
<clipPath id="clip1_1102_3654">
<rect width="594" height="292" fill="white" transform="translate(0 -1)"/>
</clipPath>
</defs>
</svg>
