<svg width="44" height="44" viewBox="0 0 44 44" fill="none" xmlns="http://www.w3.org/2000/svg">
<rect width="44" height="44" rx="12" fill="white"/>
<path d="M29.7025 12.9383L22.0824 18.885L14.2881 12.9383V12.9399L14.2975 12.9479V21.2749L21.9945 27.3502L29.7025 21.5096V12.9383Z" fill="#EA4335"/>
<path d="M31.7023 11.4918L29.7012 12.9383V21.5096L35.9982 16.675V13.7628C35.9982 13.7628 35.2338 9.60328 31.7023 11.4918Z" fill="#FBBC05"/>
<path d="M29.7012 21.5097V32.6269H34.5275C34.5275 32.6269 35.9008 32.4854 35.9997 30.92V16.6752L29.7012 21.5097Z" fill="#34A853"/>
<path d="M14.2979 32.6363V21.2748L14.2881 21.2668L14.2979 32.6363Z" fill="#C5221F"/>
<path d="M14.2876 12.94L12.2974 11.5015C8.76593 9.61305 8 13.7709 8 13.7709V16.6832L14.2876 21.267V12.94Z" fill="#C5221F"/>
<path d="M14.2881 12.9398V21.2669L14.2979 21.2749V12.9479L14.2881 12.9398Z" fill="#C5221F"/>
<path d="M8 16.6847V30.9295C8.09731 32.4965 9.47223 32.6364 9.47223 32.6364H14.2986L14.2876 21.2669L8 16.6847Z" fill="#4285F4"/>
</svg>
