<svg width="44" height="44" viewBox="0 0 44 44" fill="none" xmlns="http://www.w3.org/2000/svg">
<rect width="44" height="44" rx="12" fill="white"/>
<path fill-rule="evenodd" clip-rule="evenodd" d="M12 0C5.37258 0 0 5.37258 0 12V32C0 38.6274 5.37258 44 12 44H32C38.6274 44 44 38.6274 44 32V12C44 5.37258 38.6274 0 32 0H12ZM12 4C7.58172 4 4 7.58172 4 12V32C4 36.4183 7.58172 40 12 40H32C36.4183 40 40 36.4183 40 32V12C40 7.58172 36.4183 4 32 4H12Z" fill="url(#paint0_radial_1231_3935)"/>
<path d="M22.0187 10.7123C21.6311 10.7123 21.2477 10.732 20.8699 10.7707C20.4922 10.8094 20.1196 10.8668 19.7535 10.942C19.3873 11.0173 19.0276 11.1105 18.6751 11.2205L17.6406 11.6004L16.6556 12.076L15.7262 12.6415L14.8577 13.2911L14.0563 14.0191L13.3276 14.8198L12.6773 15.6873L12.1111 16.6159L11.6352 17.5997C11.4921 17.9362 11.3649 18.2812 11.2547 18.6334C11.1446 18.9856 11.0514 19.3452 10.976 19.7109C10.9006 20.0766 10.8432 20.4487 10.8044 20.8262C10.7656 21.2037 10.7461 21.5867 10.7461 21.9739C10.7461 22.3611 10.7659 22.7441 10.8044 23.1215C10.8427 23.496 10.9 23.8683 10.976 24.237C11.0514 24.6041 11.1446 24.9623 11.2547 25.3144C11.3649 25.6666 11.492 26.0115 11.6352 26.3481L12.1111 27.332L12.6773 28.2605L13.3276 29.1281L14.0563 29.9288L14.8577 30.6567L15.7262 31.3063L16.6556 31.8719L17.6406 32.3475L18.6751 32.7274L19.7535 33.0059C20.1225 33.0818 20.4951 33.139 20.8699 33.1773C21.2516 33.2162 21.635 33.2357 22.0187 33.2356C22.4063 33.2356 22.7897 33.2158 23.1673 33.1773C23.5421 33.139 23.9147 33.0818 24.2838 33.0059L25.3622 32.7274L26.3968 32.3475L27.3816 31.8719L28.3112 31.3063L29.1797 30.6567L29.9812 29.9288L30.7099 29.1281L31.3602 28.2605L31.9264 27.332L32.4023 26.3481L32.7828 25.3144C32.8929 24.9623 32.9861 24.6027 33.0615 24.237L33.2331 23.1214C33.2718 22.7439 33.2916 22.3609 33.2916 21.9737C33.2916 21.5865 33.2718 21.2035 33.2331 20.8261C33.1948 20.4516 33.1375 20.0794 33.0615 19.7108C32.9861 19.3436 32.8929 18.9856 32.7828 18.6333L32.4023 17.5996L31.9264 16.6157L31.3602 15.6871L30.7099 14.8196L29.9812 14.0189L29.1797 13.291L28.3112 12.6414L27.3816 12.0758L26.3968 11.6002L25.3622 11.2204L24.2838 10.9419L23.1673 10.7706C22.7857 10.7316 22.4023 10.7121 22.0187 10.7121V10.7123ZM22.0187 14.5993C22.275 14.5993 22.5279 14.6121 22.777 14.6372L23.5113 14.7483L24.2206 14.9291L24.8999 15.1758L25.5457 15.485L26.1529 15.8529L26.7206 16.2761L27.2439 16.7509L27.7191 17.2737L28.1427 17.8408L28.511 18.4489L28.8203 19.0942C28.9132 19.3151 28.9957 19.5414 29.0674 19.7729C29.1391 20.0043 29.1994 20.2409 29.2482 20.4818C29.2969 20.7227 29.3329 20.9679 29.3593 21.2168L29.3971 21.9746C29.3971 22.2306 29.3844 22.4834 29.3593 22.7325C29.3342 22.9816 29.2972 23.2267 29.2482 23.4675C29.1992 23.7083 29.1387 23.9448 29.0674 24.1764L28.8203 24.8551L28.511 25.5004L28.1427 26.1084L27.7191 26.6756L27.2439 27.1984L26.7206 27.6732L26.1529 28.0964L25.5457 28.4642L24.8999 28.7735L24.2206 29.0202L23.5113 29.201L22.777 29.312C22.525 29.3372 22.2718 29.3498 22.0185 29.3498C21.7652 29.3498 21.512 29.3372 21.2599 29.312L20.5256 29.201C20.2846 29.1521 20.0479 29.0917 19.8162 29.0202L19.1369 28.7735L18.4911 28.4642L17.8839 28.0964L17.3162 27.6732L16.7929 27.1984L16.3177 26.6756L15.8941 26.1084L15.5258 25.5004L15.2165 24.8551L14.9694 24.1764L14.7886 23.4675L14.6775 22.7325C14.6522 22.4806 14.6396 22.2277 14.6397 21.9746C14.6396 21.7215 14.6522 21.4686 14.6775 21.2168C14.7025 20.9679 14.7396 20.7226 14.7886 20.4818C14.8372 20.2427 14.8975 20.0061 14.9695 19.773L15.2167 19.0944L15.5259 18.449L15.8942 17.8409L16.3179 17.2738L16.793 16.751L17.3164 16.2763L17.8841 15.853L18.4913 15.4852L19.1371 15.1759C19.3593 15.0826 19.5861 15.0002 19.8164 14.9292L20.5259 14.7485C20.767 14.6996 21.0124 14.6623 21.2602 14.6373C21.5123 14.6121 21.7655 14.5994 22.0188 14.5995L22.0187 14.5993Z" fill="url(#paint1_radial_1231_3935)"/>
<path d="M33.7489 7.50867C33.6594 7.50868 33.57 7.51321 33.4809 7.52222C33.3919 7.53122 33.3033 7.5447 33.2156 7.56261C33.1279 7.5805 33.0411 7.60279 32.9556 7.62941C32.8701 7.65603 32.786 7.68695 32.7035 7.72204C32.6211 7.75717 32.5405 7.79643 32.4619 7.83967C32.3834 7.88283 32.307 7.92992 32.2331 7.98075C32.1593 8.03164 32.088 8.08622 32.0195 8.14428C31.9511 8.20228 31.8855 8.26369 31.8232 8.32828C31.7608 8.39291 31.7017 8.46063 31.6461 8.5312C31.5905 8.60178 31.5384 8.67512 31.4901 8.75093C31.4417 8.82669 31.3972 8.90483 31.3566 8.98507C31.316 9.06536 31.2794 9.14765 31.2469 9.23163C31.2145 9.31559 31.1862 9.40113 31.1623 9.48794C31.1384 9.57473 31.1188 9.66268 31.1036 9.75144C31.0884 9.84019 31.0776 9.92964 31.0712 10.0195C31.0667 10.0831 31.0645 10.1469 31.0645 10.2107C31.0645 10.3008 31.0689 10.3909 31.0779 10.4805C31.0868 10.5702 31.1002 10.6593 31.118 10.7476C31.1357 10.8359 31.1579 10.9232 31.1843 11.0092C31.2108 11.0953 31.2415 11.18 31.2764 11.263C31.3113 11.346 31.3503 11.4272 31.3932 11.5063C31.4361 11.5854 31.4829 11.6623 31.5334 11.7366C31.584 11.811 31.6382 11.8827 31.6958 11.9516C31.7535 12.0205 31.8145 12.0865 31.8787 12.1493C31.9429 12.212 32.0102 12.2715 32.0804 12.3275C32.1505 12.3835 32.2233 12.436 32.2987 12.4847C32.374 12.5333 32.4517 12.5782 32.5315 12.6191C32.6113 12.66 32.693 12.6968 32.7764 12.7295C32.8598 12.7622 32.9448 12.7906 33.031 12.8147C33.1172 12.8387 33.2046 12.8584 33.2928 12.8737C33.381 12.889 33.4699 12.8999 33.5591 12.9063C33.6224 12.9108 33.6857 12.9131 33.7491 12.9131C33.8386 12.9131 33.928 12.9087 34.0171 12.8997C34.1062 12.8907 34.1947 12.8772 34.2824 12.8593C34.3702 12.8414 34.4569 12.8191 34.5424 12.7925C34.6279 12.7659 34.7121 12.735 34.7945 12.6999C34.8769 12.6648 34.9576 12.6256 35.0361 12.5824C35.1147 12.5392 35.191 12.492 35.2649 12.4412C35.3388 12.3903 35.4101 12.3358 35.4785 12.2778C35.547 12.2197 35.6125 12.1583 35.6748 12.0936C35.7372 12.029 35.7963 11.9613 35.8519 11.8907C35.9075 11.8201 35.9596 11.7468 36.0079 11.671C36.0563 11.5952 36.1008 11.517 36.1414 11.4367C36.182 11.3564 36.2187 11.2741 36.2511 11.1901C36.2835 11.1062 36.3118 11.0206 36.3357 10.9338C36.3596 10.847 36.3792 10.7591 36.3945 10.6703C36.4097 10.5816 36.4205 10.4921 36.4268 10.4023C36.4313 10.3387 36.4336 10.2749 36.4336 10.2111C36.4336 10.121 36.4291 10.031 36.4202 9.94138C36.4112 9.85175 36.3978 9.76262 36.38 9.67434C36.3623 9.58606 36.3401 9.49872 36.3137 9.41267C36.2872 9.32659 36.2565 9.24189 36.2216 9.1589C36.1867 9.07589 36.1478 8.99468 36.1048 8.91559C36.0619 8.83651 36.0151 8.75964 35.9646 8.68527C35.914 8.6109 35.8598 8.53912 35.8021 8.4702C35.7445 8.40128 35.6835 8.33529 35.6193 8.2725C35.5551 8.20975 35.4878 8.15027 35.4177 8.09429C35.3475 8.03831 35.2747 7.9859 35.1994 7.93725C35.124 7.88856 35.0463 7.84369 34.9665 7.80282C34.8867 7.76192 34.805 7.72507 34.7216 7.69239C34.6382 7.65975 34.5532 7.63133 34.467 7.60723C34.3808 7.58313 34.2934 7.56338 34.2052 7.54807C34.117 7.53278 34.0281 7.52194 33.9389 7.51559C33.8757 7.51107 33.8123 7.50881 33.7489 7.50881V7.50867Z" fill="url(#paint2_radial_1231_3935)"/>
<defs>
<radialGradient id="paint0_radial_1231_3935" cx="0" cy="0" r="1" gradientUnits="userSpaceOnUse" gradientTransform="translate(7.00996 47.2074) rotate(-9.54789) scale(92.9979 56.5455)">
<stop stop-color="#FED576"/>
<stop offset="0.263" stop-color="#F47133"/>
<stop offset="0.609" stop-color="#BC3081"/>
<stop offset="1" stop-color="#4C63D2"/>
</radialGradient>
<radialGradient id="paint1_radial_1231_3935" cx="0" cy="0" r="1" gradientUnits="userSpaceOnUse" gradientTransform="translate(6.98229 47.1494) rotate(-9.53104) scale(93.1608 56.5483)">
<stop stop-color="#FED576"/>
<stop offset="0.263" stop-color="#F47133"/>
<stop offset="0.609" stop-color="#BC3081"/>
<stop offset="1" stop-color="#4C63D2"/>
</radialGradient>
<radialGradient id="paint2_radial_1231_3935" cx="0" cy="0" r="1" gradientUnits="userSpaceOnUse" gradientTransform="translate(6.98272 47.1494) rotate(-9.53103) scale(93.1608 56.5483)">
<stop stop-color="#FED576"/>
<stop offset="0.263" stop-color="#F47133"/>
<stop offset="0.609" stop-color="#BC3081"/>
<stop offset="1" stop-color="#4C63D2"/>
</radialGradient>
</defs>
</svg>
