<svg width="30" height="30" viewBox="0 0 30 30" fill="none" xmlns="http://www.w3.org/2000/svg">
<path fill-rule="evenodd" clip-rule="evenodd" d="M3 15C3 8.37258 8.37259 3 15 3C21.6274 3 27 8.37258 27 15C27 21.6274 21.6274 27 15 27C8.37259 27 3 21.6274 3 15ZM16 11C16 10.4477 16.4477 10 17 10C17.5523 10 18 10.4477 18 11V19C18 19.5523 17.5523 20 17 20C16.4477 20 16 19.5523 16 19V11ZM13 10C12.4477 10 12 10.4477 12 11V19C12 19.5523 12.4477 20 13 20C13.5523 20 14 19.5523 14 19V11C14 10.4477 13.5523 10 13 10Z" fill="#9A9999"/>
</svg>
