<svg width="160" height="160" viewBox="0 0 160 160" fill="none" xmlns="http://www.w3.org/2000/svg">
<g clip-path="url(#clip0_1186_3771)">
<path d="M110.99 44.178C109.302 44.6303 107.773 45.3776 106.445 46.3467C103.508 41.3969 97.4047 38.8025 91.4282 40.4039C88.1064 41.294 85.3989 43.3258 83.637 45.9434C80.8024 44.5575 77.4417 44.1516 74.12 45.0416C72.6035 45.448 71.2148 46.0924 69.986 46.9217L66.3369 33.303C64.4727 26.3456 57.1327 22.2456 49.9749 24.1636C42.8171 26.0815 38.5104 33.3021 40.3747 40.2595L50.3194 77.3738C47.6866 75.9031 45.5261 74.6966 45.5261 74.6966C39.4775 71.3178 31.6373 73.1328 27.6848 78.8169C23.7063 84.5044 24.8921 92.2417 30.3844 96.4316C30.4467 96.4792 30.5103 96.525 30.5752 96.5689L55.8075 113.754C58.5475 115.62 61.9661 116.315 64.982 116.929C67.1768 117.375 70.4939 118.05 70.7419 118.975L73.9723 131.031C75.8365 137.989 83.1765 142.089 90.3343 140.171L124.951 130.895C132.108 128.977 136.415 121.757 134.551 114.799L132.222 106.107C131.776 104.443 132.883 101.998 134.054 99.41C135.717 95.7356 137.602 91.5706 136.368 86.9646L127.352 53.3174C125.488 46.36 118.148 42.2601 110.99 44.178ZM125.882 95.9805L125.881 95.9814C124.218 99.6556 122.334 103.82 123.568 108.426L125.897 117.118C126.518 119.437 125.083 121.844 122.697 122.483L88.0804 131.759C85.6944 132.398 83.2478 131.031 82.6264 128.712L79.3959 116.656C77.7708 110.591 71.5025 109.316 66.9251 108.385C66.9241 108.385 66.923 108.385 66.9219 108.385C64.629 107.918 62.2589 107.436 60.9955 106.575L35.8774 89.468C34.1124 88.0587 33.7443 85.5296 35.0554 83.6552C36.3727 81.7602 38.9843 81.1578 41.0005 82.284C41.0005 82.284 54.2153 89.6657 55.1072 90.1627C58.5273 92.0688 62.6965 88.9504 61.6935 85.2075L49.0285 37.9408C48.407 35.6216 49.8426 33.2148 52.2285 32.5754C54.6145 31.9361 57.0611 33.3028 57.6825 35.6219L66.7734 69.5495C67.3958 71.8723 69.8377 73.2363 72.2274 72.596C74.6171 71.9556 76.0499 69.5534 75.4275 67.2306L73.1736 58.8188C72.5521 56.4997 73.9877 54.0928 76.3736 53.4535C78.7596 52.8142 81.2062 54.1808 81.8276 56.5L84.0816 64.9118C84.704 67.2346 87.1459 68.5986 89.5356 67.9582C91.9253 67.3179 93.358 64.9157 92.7356 62.5929L90.4817 54.1811C89.8603 51.862 91.2959 49.4551 93.6818 48.8158C96.0677 48.1765 98.5144 49.5431 99.1358 51.8623L101.39 60.2741C102.012 62.5968 104.454 63.9609 106.844 63.3205C109.233 62.6802 110.666 60.278 110.044 57.9552C109.422 55.6361 110.858 53.2292 113.244 52.5899C115.63 51.9506 118.076 53.3172 118.698 55.6364L127.714 89.2835C128.159 90.9474 127.053 93.3923 125.882 95.9805Z" fill="white"/>
<path d="M125.882 95.9805L125.881 95.9814C124.218 99.6556 122.334 103.82 123.568 108.426L125.897 117.118C126.518 119.437 125.083 121.844 122.697 122.483L88.0804 131.759C85.6944 132.398 83.2478 131.031 82.6264 128.712L79.3959 116.656C77.7708 110.591 71.5025 109.316 66.9251 108.385L66.9219 108.385C64.629 107.918 62.2589 107.436 60.9955 106.575L35.8774 89.468C34.1124 88.0587 33.7443 85.5296 35.0554 83.6552C36.3727 81.7602 38.9843 81.1578 41.0005 82.284C41.0005 82.284 54.2153 89.6657 55.1072 90.1627C58.5273 92.0688 62.6965 88.9504 61.6935 85.2075L49.0285 37.9408C48.407 35.6216 49.8426 33.2148 52.2285 32.5754C54.6145 31.9361 57.0611 33.3028 57.6825 35.6219L66.7734 69.5495C67.3958 71.8723 69.8377 73.2363 72.2274 72.596C74.6171 71.9556 76.0499 69.5534 75.4275 67.2306L73.1736 58.8188C72.5521 56.4997 73.9877 54.0928 76.3736 53.4535C78.7596 52.8142 81.2062 54.1808 81.8276 56.5L84.0816 64.9118C84.704 67.2346 87.1459 68.5986 89.5356 67.9582C91.9253 67.3179 93.358 64.9157 92.7356 62.5929L90.4817 54.1811C89.8603 51.862 91.2959 49.4551 93.6818 48.8158C96.0677 48.1765 98.5144 49.5431 99.1358 51.8623L101.39 60.2741C102.012 62.5968 104.454 63.9609 106.844 63.3205C109.233 62.6802 110.666 60.278 110.044 57.9552C109.422 55.6361 110.858 53.2292 113.244 52.5899C115.63 51.9506 118.076 53.3172 118.698 55.6364L127.714 89.2835C128.159 90.9474 127.053 93.3923 125.882 95.9805Z" fill="white"/>
<path d="M112.084 40.0663C110.317 40.5396 108.72 41.331 107.335 42.3623C104.219 37.0216 97.8 34.1879 91.5462 35.8636C88.0704 36.7949 85.2471 38.9578 83.4196 41.7571C80.4374 40.2465 76.9109 39.7851 73.4351 40.7164C71.8483 41.1416 70.3972 41.8236 69.1152 42.7054L65.1868 28.0445C63.1799 20.5546 55.4537 16.0939 47.9638 18.1008C40.474 20.1077 36.0132 27.8339 38.0201 35.3238L48.7259 75.2784C45.9546 73.6783 43.6804 72.3656 43.6804 72.3656C37.3136 68.6895 29.1075 70.5806 25.0065 76.6585C20.8782 82.7398 22.1797 91.0625 27.9695 95.606C28.0351 95.6576 28.1021 95.7073 28.1706 95.755L54.7539 114.411C57.6406 116.436 61.2298 117.209 64.3964 117.891C66.7008 118.387 70.1836 119.137 70.4506 120.134L73.9282 133.112C75.9351 140.602 83.6613 145.063 91.1511 143.056L127.373 133.35C134.863 131.343 139.324 123.617 137.317 116.127L134.81 106.77C134.33 104.979 135.472 102.36 136.68 99.5874C138.396 95.6518 140.341 91.1907 139.012 86.2322L129.307 50.01C127.3 42.5201 119.574 38.0594 112.084 40.0663ZM128.086 95.8409C126.371 99.7766 124.426 104.238 125.754 109.196L128.261 118.554C128.93 121.05 127.444 123.626 124.947 124.295L88.7247 134C86.2281 134.669 83.6527 133.182 82.9837 130.686L79.5061 117.707C77.7565 111.178 71.1752 109.761 66.3692 108.726C63.9607 108.207 61.4706 107.671 60.1389 106.736L33.6759 88.1649C31.8149 86.6373 31.4099 83.917 32.7703 81.9128C34.1371 79.8866 36.8707 79.2589 38.9929 80.4842C38.9929 80.4842 52.903 88.5155 53.8419 89.0562C57.4419 91.1301 61.7894 87.8109 60.7097 83.7815L47.0754 32.8974C46.4064 30.4008 47.8933 27.8254 50.3899 27.1564C52.8866 26.4874 55.462 27.9744 56.1309 30.471L65.9175 66.995C66.5875 69.4956 69.158 70.9796 71.6585 70.3096C74.1591 69.6396 75.6431 67.0692 74.9731 64.5686L72.5467 55.5131C71.8777 53.0164 73.3646 50.441 75.8612 49.7721C78.3578 49.1031 80.9332 50.59 81.6022 53.0866L84.0286 62.1422C84.6987 64.6427 87.2691 66.1268 89.7696 65.4567C92.2702 64.7867 93.7542 62.2163 93.0842 59.7158L90.6578 50.6602C89.9888 48.1636 91.4757 45.5882 93.9723 44.9192C96.4689 44.2502 99.0444 45.7372 99.7133 48.2338L102.14 57.2893C102.81 59.7899 105.38 61.2739 107.881 60.6039C110.381 59.9339 111.865 57.3634 111.195 54.8629C110.526 52.3663 112.013 49.7909 114.51 49.1219C117.006 48.4529 119.582 49.9399 120.251 52.4365L129.957 88.6587L129.957 88.6586C130.437 90.4498 129.295 93.0686 128.086 95.8409Z" fill="black"/>
</g>
<defs>
<clipPath id="clip0_1186_3771">
<rect width="160" height="160" fill="white"/>
</clipPath>
</defs>
</svg>
