<svg width="120" height="120" viewBox="0 0 120 120" fill="none" xmlns="http://www.w3.org/2000/svg">
<rect width="120" height="120" rx="12" fill="white"/>
<path d="M22.1622 20H20V22.1622H22.1622V20Z" fill="black"/>
<path d="M24.3243 20H22.1622V22.1622H24.3243V20Z" fill="black"/>
<path d="M26.4865 20H24.3243V22.1622H26.4865V20Z" fill="black"/>
<path d="M28.6486 20H26.4865V22.1622H28.6486V20Z" fill="black"/>
<path d="M30.8108 20H28.6486V22.1622H30.8108V20Z" fill="black"/>
<path d="M32.973 20H30.8108V22.1622H32.973V20Z" fill="black"/>
<path d="M35.1351 20H32.973V22.1622H35.1351V20Z" fill="black"/>
<path d="M39.4595 20H37.2973V22.1622H39.4595V20Z" fill="black"/>
<path d="M54.5946 20H52.4324V22.1622H54.5946V20Z" fill="black"/>
<path d="M58.9189 20H56.7568V22.1622H58.9189V20Z" fill="black"/>
<path d="M61.0811 20H58.9189V22.1622H61.0811V20Z" fill="black"/>
<path d="M71.8919 20H69.7297V22.1622H71.8919V20Z" fill="black"/>
<path d="M74.0541 20H71.8919V22.1622H74.0541V20Z" fill="black"/>
<path d="M76.2162 20H74.0541V22.1622H76.2162V20Z" fill="black"/>
<path d="M78.3784 20H76.2162V22.1622H78.3784V20Z" fill="black"/>
<path d="M80.5405 20H78.3784V22.1622H80.5405V20Z" fill="black"/>
<path d="M87.027 20H84.8649V22.1622H87.027V20Z" fill="black"/>
<path d="M89.1892 20H87.027V22.1622H89.1892V20Z" fill="black"/>
<path d="M91.3513 20H89.1892V22.1622H91.3513V20Z" fill="black"/>
<path d="M93.5135 20H91.3513V22.1622H93.5135V20Z" fill="black"/>
<path d="M95.6757 20H93.5135V22.1622H95.6757V20Z" fill="black"/>
<path d="M97.8378 20H95.6757V22.1622H97.8378V20Z" fill="black"/>
<path d="M100 20H97.8378V22.1622H100V20Z" fill="black"/>
<path d="M22.1622 22.1622H20V24.3243H22.1622V22.1622Z" fill="black"/>
<path d="M35.1351 22.1622H32.973V24.3243H35.1351V22.1622Z" fill="black"/>
<path d="M41.6216 22.1622H39.4595V24.3243H41.6216V22.1622Z" fill="black"/>
<path d="M43.7838 22.1622H41.6216V24.3243H43.7838V22.1622Z" fill="black"/>
<path d="M45.9459 22.1622H43.7838V24.3243H45.9459V22.1622Z" fill="black"/>
<path d="M52.4324 22.1622H50.2703V24.3243H52.4324V22.1622Z" fill="black"/>
<path d="M54.5946 22.1622H52.4324V24.3243H54.5946V22.1622Z" fill="black"/>
<path d="M65.4054 22.1622H63.2432V24.3243H65.4054V22.1622Z" fill="black"/>
<path d="M67.5676 22.1622H65.4054V24.3243H67.5676V22.1622Z" fill="black"/>
<path d="M71.8919 22.1622H69.7297V24.3243H71.8919V22.1622Z" fill="black"/>
<path d="M74.0541 22.1622H71.8919V24.3243H74.0541V22.1622Z" fill="black"/>
<path d="M76.2162 22.1622H74.0541V24.3243H76.2162V22.1622Z" fill="black"/>
<path d="M78.3784 22.1622H76.2162V24.3243H78.3784V22.1622Z" fill="black"/>
<path d="M80.5405 22.1622H78.3784V24.3243H80.5405V22.1622Z" fill="black"/>
<path d="M82.7027 22.1622H80.5405V24.3243H82.7027V22.1622Z" fill="black"/>
<path d="M87.027 22.1622H84.8649V24.3243H87.027V22.1622Z" fill="black"/>
<path d="M100 22.1622H97.8378V24.3243H100V22.1622Z" fill="black"/>
<path d="M22.1622 24.3243H20V26.4865H22.1622V24.3243Z" fill="black"/>
<path d="M26.4865 24.3243H24.3243V26.4865H26.4865V24.3243Z" fill="black"/>
<path d="M28.6486 24.3243H26.4865V26.4865H28.6486V24.3243Z" fill="black"/>
<path d="M30.8108 24.3243H28.6486V26.4865H30.8108V24.3243Z" fill="black"/>
<path d="M35.1351 24.3243H32.973V26.4865H35.1351V24.3243Z" fill="black"/>
<path d="M52.4324 24.3243H50.2703V26.4865H52.4324V24.3243Z" fill="black"/>
<path d="M61.0811 24.3243H58.9189V26.4865H61.0811V24.3243Z" fill="black"/>
<path d="M67.5676 24.3243H65.4054V26.4865H67.5676V24.3243Z" fill="black"/>
<path d="M69.7297 24.3243H67.5676V26.4865H69.7297V24.3243Z" fill="black"/>
<path d="M78.3784 24.3243H76.2162V26.4865H78.3784V24.3243Z" fill="black"/>
<path d="M80.5405 24.3243H78.3784V26.4865H80.5405V24.3243Z" fill="black"/>
<path d="M82.7027 24.3243H80.5405V26.4865H82.7027V24.3243Z" fill="black"/>
<path d="M87.027 24.3243H84.8649V26.4865H87.027V24.3243Z" fill="black"/>
<path d="M91.3513 24.3243H89.1892V26.4865H91.3513V24.3243Z" fill="black"/>
<path d="M93.5135 24.3243H91.3513V26.4865H93.5135V24.3243Z" fill="black"/>
<path d="M95.6757 24.3243H93.5135V26.4865H95.6757V24.3243Z" fill="black"/>
<path d="M100 24.3243H97.8378V26.4865H100V24.3243Z" fill="black"/>
<path d="M22.1622 26.4865H20V28.6486H22.1622V26.4865Z" fill="black"/>
<path d="M26.4865 26.4865H24.3243V28.6486H26.4865V26.4865Z" fill="black"/>
<path d="M28.6486 26.4865H26.4865V28.6486H28.6486V26.4865Z" fill="black"/>
<path d="M30.8108 26.4865H28.6486V28.6486H30.8108V26.4865Z" fill="black"/>
<path d="M35.1351 26.4865H32.973V28.6486H35.1351V26.4865Z" fill="black"/>
<path d="M39.4595 26.4865H37.2973V28.6486H39.4595V26.4865Z" fill="black"/>
<path d="M41.6216 26.4865H39.4595V28.6486H41.6216V26.4865Z" fill="black"/>
<path d="M43.7838 26.4865H41.6216V28.6486H43.7838V26.4865Z" fill="black"/>
<path d="M45.9459 26.4865H43.7838V28.6486H45.9459V26.4865Z" fill="black"/>
<path d="M48.1081 26.4865H45.9459V28.6486H48.1081V26.4865Z" fill="black"/>
<path d="M54.5946 26.4865H52.4324V28.6486H54.5946V26.4865Z" fill="black"/>
<path d="M56.7568 26.4865H54.5946V28.6486H56.7568V26.4865Z" fill="black"/>
<path d="M65.4054 26.4865H63.2432V28.6486H65.4054V26.4865Z" fill="black"/>
<path d="M67.5676 26.4865H65.4054V28.6486H67.5676V26.4865Z" fill="black"/>
<path d="M69.7297 26.4865H67.5676V28.6486H69.7297V26.4865Z" fill="black"/>
<path d="M76.2162 26.4865H74.0541V28.6486H76.2162V26.4865Z" fill="black"/>
<path d="M78.3784 26.4865H76.2162V28.6486H78.3784V26.4865Z" fill="black"/>
<path d="M80.5405 26.4865H78.3784V28.6486H80.5405V26.4865Z" fill="black"/>
<path d="M87.027 26.4865H84.8649V28.6486H87.027V26.4865Z" fill="black"/>
<path d="M91.3513 26.4865H89.1892V28.6486H91.3513V26.4865Z" fill="black"/>
<path d="M93.5135 26.4865H91.3513V28.6486H93.5135V26.4865Z" fill="black"/>
<path d="M95.6757 26.4865H93.5135V28.6486H95.6757V26.4865Z" fill="black"/>
<path d="M100 26.4865H97.8378V28.6486H100V26.4865Z" fill="black"/>
<path d="M22.1622 28.6486H20V30.8108H22.1622V28.6486Z" fill="black"/>
<path d="M26.4865 28.6486H24.3243V30.8108H26.4865V28.6486Z" fill="black"/>
<path d="M28.6486 28.6486H26.4865V30.8108H28.6486V28.6486Z" fill="black"/>
<path d="M30.8108 28.6486H28.6486V30.8108H30.8108V28.6486Z" fill="black"/>
<path d="M35.1351 28.6486H32.973V30.8108H35.1351V28.6486Z" fill="black"/>
<path d="M41.6216 28.6486H39.4595V30.8108H41.6216V28.6486Z" fill="black"/>
<path d="M50.2703 28.6486H48.1081V30.8108H50.2703V28.6486Z" fill="black"/>
<path d="M52.4324 28.6486H50.2703V30.8108H52.4324V28.6486Z" fill="black"/>
<path d="M54.5946 28.6486H52.4324V30.8108H54.5946V28.6486Z" fill="black"/>
<path d="M56.7568 28.6486H54.5946V30.8108H56.7568V28.6486Z" fill="black"/>
<path d="M61.0811 28.6486H58.9189V30.8108H61.0811V28.6486Z" fill="black"/>
<path d="M63.2432 28.6486H61.0811V30.8108H63.2432V28.6486Z" fill="black"/>
<path d="M80.5405 28.6486H78.3784V30.8108H80.5405V28.6486Z" fill="black"/>
<path d="M82.7027 28.6486H80.5405V30.8108H82.7027V28.6486Z" fill="black"/>
<path d="M87.027 28.6486H84.8649V30.8108H87.027V28.6486Z" fill="black"/>
<path d="M91.3513 28.6486H89.1892V30.8108H91.3513V28.6486Z" fill="black"/>
<path d="M93.5135 28.6486H91.3513V30.8108H93.5135V28.6486Z" fill="black"/>
<path d="M95.6757 28.6486H93.5135V30.8108H95.6757V28.6486Z" fill="black"/>
<path d="M100 28.6486H97.8378V30.8108H100V28.6486Z" fill="black"/>
<path d="M22.1622 30.8108H20V32.973H22.1622V30.8108Z" fill="black"/>
<path d="M35.1351 30.8108H32.973V32.973H35.1351V30.8108Z" fill="black"/>
<path d="M48.1081 30.8108H45.9459V32.973H48.1081V30.8108Z" fill="black"/>
<path d="M50.2703 30.8108H48.1081V32.973H50.2703V30.8108Z" fill="black"/>
<path d="M52.4324 30.8108H50.2703V32.973H52.4324V30.8108Z" fill="black"/>
<path d="M58.9189 30.8108H56.7568V32.973H58.9189V30.8108Z" fill="black"/>
<path d="M63.2432 30.8108H61.0811V32.973H63.2432V30.8108Z" fill="black"/>
<path d="M65.4054 30.8108H63.2432V32.973H65.4054V30.8108Z" fill="black"/>
<path d="M71.8919 30.8108H69.7297V32.973H71.8919V30.8108Z" fill="black"/>
<path d="M78.3784 30.8108H76.2162V32.973H78.3784V30.8108Z" fill="black"/>
<path d="M80.5405 30.8108H78.3784V32.973H80.5405V30.8108Z" fill="black"/>
<path d="M82.7027 30.8108H80.5405V32.973H82.7027V30.8108Z" fill="black"/>
<path d="M87.027 30.8108H84.8649V32.973H87.027V30.8108Z" fill="black"/>
<path d="M100 30.8108H97.8378V32.973H100V30.8108Z" fill="black"/>
<path d="M22.1622 32.973H20V35.1351H22.1622V32.973Z" fill="black"/>
<path d="M24.3243 32.973H22.1622V35.1351H24.3243V32.973Z" fill="black"/>
<path d="M26.4865 32.973H24.3243V35.1351H26.4865V32.973Z" fill="black"/>
<path d="M28.6486 32.973H26.4865V35.1351H28.6486V32.973Z" fill="black"/>
<path d="M30.8108 32.973H28.6486V35.1351H30.8108V32.973Z" fill="black"/>
<path d="M32.973 32.973H30.8108V35.1351H32.973V32.973Z" fill="black"/>
<path d="M35.1351 32.973H32.973V35.1351H35.1351V32.973Z" fill="black"/>
<path d="M39.4595 32.973H37.2973V35.1351H39.4595V32.973Z" fill="black"/>
<path d="M43.7838 32.973H41.6216V35.1351H43.7838V32.973Z" fill="black"/>
<path d="M48.1081 32.973H45.9459V35.1351H48.1081V32.973Z" fill="black"/>
<path d="M52.4324 32.973H50.2703V35.1351H52.4324V32.973Z" fill="black"/>
<path d="M56.7568 32.973H54.5946V35.1351H56.7568V32.973Z" fill="black"/>
<path d="M61.0811 32.973H58.9189V35.1351H61.0811V32.973Z" fill="black"/>
<path d="M65.4054 32.973H63.2432V35.1351H65.4054V32.973Z" fill="black"/>
<path d="M69.7297 32.973H67.5676V35.1351H69.7297V32.973Z" fill="black"/>
<path d="M74.0541 32.973H71.8919V35.1351H74.0541V32.973Z" fill="black"/>
<path d="M78.3784 32.973H76.2162V35.1351H78.3784V32.973Z" fill="black"/>
<path d="M82.7027 32.973H80.5405V35.1351H82.7027V32.973Z" fill="black"/>
<path d="M87.027 32.973H84.8649V35.1351H87.027V32.973Z" fill="black"/>
<path d="M89.1892 32.973H87.027V35.1351H89.1892V32.973Z" fill="black"/>
<path d="M91.3513 32.973H89.1892V35.1351H91.3513V32.973Z" fill="black"/>
<path d="M93.5135 32.973H91.3513V35.1351H93.5135V32.973Z" fill="black"/>
<path d="M95.6757 32.973H93.5135V35.1351H95.6757V32.973Z" fill="black"/>
<path d="M97.8378 32.973H95.6757V35.1351H97.8378V32.973Z" fill="black"/>
<path d="M100 32.973H97.8378V35.1351H100V32.973Z" fill="black"/>
<path d="M48.1081 35.1351H45.9459V37.2973H48.1081V35.1351Z" fill="black"/>
<path d="M54.5946 35.1351H52.4324V37.2973H54.5946V35.1351Z" fill="black"/>
<path d="M61.0811 35.1351H58.9189V37.2973H61.0811V35.1351Z" fill="black"/>
<path d="M63.2432 35.1351H61.0811V37.2973H63.2432V35.1351Z" fill="black"/>
<path d="M65.4054 35.1351H63.2432V37.2973H65.4054V35.1351Z" fill="black"/>
<path d="M67.5676 35.1351H65.4054V37.2973H67.5676V35.1351Z" fill="black"/>
<path d="M71.8919 35.1351H69.7297V37.2973H71.8919V35.1351Z" fill="black"/>
<path d="M76.2162 35.1351H74.0541V37.2973H76.2162V35.1351Z" fill="black"/>
<path d="M78.3784 35.1351H76.2162V37.2973H78.3784V35.1351Z" fill="black"/>
<path d="M82.7027 35.1351H80.5405V37.2973H82.7027V35.1351Z" fill="black"/>
<path d="M26.4865 37.2973H24.3243V39.4595H26.4865V37.2973Z" fill="black"/>
<path d="M30.8108 37.2973H28.6486V39.4595H30.8108V37.2973Z" fill="black"/>
<path d="M32.973 37.2973H30.8108V39.4595H32.973V37.2973Z" fill="black"/>
<path d="M35.1351 37.2973H32.973V39.4595H35.1351V37.2973Z" fill="black"/>
<path d="M39.4595 37.2973H37.2973V39.4595H39.4595V37.2973Z" fill="black"/>
<path d="M43.7838 37.2973H41.6216V39.4595H43.7838V37.2973Z" fill="black"/>
<path d="M50.2703 37.2973H48.1081V39.4595H50.2703V37.2973Z" fill="black"/>
<path d="M61.0811 37.2973H58.9189V39.4595H61.0811V37.2973Z" fill="black"/>
<path d="M63.2432 37.2973H61.0811V39.4595H63.2432V37.2973Z" fill="black"/>
<path d="M65.4054 37.2973H63.2432V39.4595H65.4054V37.2973Z" fill="black"/>
<path d="M67.5676 37.2973H65.4054V39.4595H67.5676V37.2973Z" fill="black"/>
<path d="M69.7297 37.2973H67.5676V39.4595H69.7297V37.2973Z" fill="black"/>
<path d="M76.2162 37.2973H74.0541V39.4595H76.2162V37.2973Z" fill="black"/>
<path d="M80.5405 37.2973H78.3784V39.4595H80.5405V37.2973Z" fill="black"/>
<path d="M84.8649 37.2973H82.7027V39.4595H84.8649V37.2973Z" fill="black"/>
<path d="M93.5135 37.2973H91.3513V39.4595H93.5135V37.2973Z" fill="black"/>
<path d="M100 37.2973H97.8378V39.4595H100V37.2973Z" fill="black"/>
<path d="M24.3243 39.4595H22.1622V41.6216H24.3243V39.4595Z" fill="black"/>
<path d="M37.2973 39.4595H35.1351V41.6216H37.2973V39.4595Z" fill="black"/>
<path d="M41.6216 39.4595H39.4595V41.6216H41.6216V39.4595Z" fill="black"/>
<path d="M45.9459 39.4595H43.7838V41.6216H45.9459V39.4595Z" fill="black"/>
<path d="M48.1081 39.4595H45.9459V41.6216H48.1081V39.4595Z" fill="black"/>
<path d="M50.2703 39.4595H48.1081V41.6216H50.2703V39.4595Z" fill="black"/>
<path d="M61.0811 39.4595H58.9189V41.6216H61.0811V39.4595Z" fill="black"/>
<path d="M63.2432 39.4595H61.0811V41.6216H63.2432V39.4595Z" fill="black"/>
<path d="M65.4054 39.4595H63.2432V41.6216H65.4054V39.4595Z" fill="black"/>
<path d="M69.7297 39.4595H67.5676V41.6216H69.7297V39.4595Z" fill="black"/>
<path d="M74.0541 39.4595H71.8919V41.6216H74.0541V39.4595Z" fill="black"/>
<path d="M82.7027 39.4595H80.5405V41.6216H82.7027V39.4595Z" fill="black"/>
<path d="M87.027 39.4595H84.8649V41.6216H87.027V39.4595Z" fill="black"/>
<path d="M93.5135 39.4595H91.3513V41.6216H93.5135V39.4595Z" fill="black"/>
<path d="M95.6757 39.4595H93.5135V41.6216H95.6757V39.4595Z" fill="black"/>
<path d="M97.8378 39.4595H95.6757V41.6216H97.8378V39.4595Z" fill="black"/>
<path d="M26.4865 41.6216H24.3243V43.7838H26.4865V41.6216Z" fill="black"/>
<path d="M28.6486 41.6216H26.4865V43.7838H28.6486V41.6216Z" fill="black"/>
<path d="M30.8108 41.6216H28.6486V43.7838H30.8108V41.6216Z" fill="black"/>
<path d="M35.1351 41.6216H32.973V43.7838H35.1351V41.6216Z" fill="black"/>
<path d="M45.9459 41.6216H43.7838V43.7838H45.9459V41.6216Z" fill="black"/>
<path d="M50.2703 41.6216H48.1081V43.7838H50.2703V41.6216Z" fill="black"/>
<path d="M56.7568 41.6216H54.5946V43.7838H56.7568V41.6216Z" fill="black"/>
<path d="M58.9189 41.6216H56.7568V43.7838H58.9189V41.6216Z" fill="black"/>
<path d="M61.0811 41.6216H58.9189V43.7838H61.0811V41.6216Z" fill="black"/>
<path d="M67.5676 41.6216H65.4054V43.7838H67.5676V41.6216Z" fill="black"/>
<path d="M76.2162 41.6216H74.0541V43.7838H76.2162V41.6216Z" fill="black"/>
<path d="M87.027 41.6216H84.8649V43.7838H87.027V41.6216Z" fill="black"/>
<path d="M89.1892 41.6216H87.027V43.7838H89.1892V41.6216Z" fill="black"/>
<path d="M93.5135 41.6216H91.3513V43.7838H93.5135V41.6216Z" fill="black"/>
<path d="M95.6757 41.6216H93.5135V43.7838H95.6757V41.6216Z" fill="black"/>
<path d="M97.8378 41.6216H95.6757V43.7838H97.8378V41.6216Z" fill="black"/>
<path d="M100 41.6216H97.8378V43.7838H100V41.6216Z" fill="black"/>
<path d="M28.6486 43.7838H26.4865V45.9459H28.6486V43.7838Z" fill="black"/>
<path d="M30.8108 43.7838H28.6486V45.9459H30.8108V43.7838Z" fill="black"/>
<path d="M37.2973 43.7838H35.1351V45.9459H37.2973V43.7838Z" fill="black"/>
<path d="M45.9459 43.7838H43.7838V45.9459H45.9459V43.7838Z" fill="black"/>
<path d="M50.2703 43.7838H48.1081V45.9459H50.2703V43.7838Z" fill="black"/>
<path d="M54.5946 43.7838H52.4324V45.9459H54.5946V43.7838Z" fill="black"/>
<path d="M58.9189 43.7838H56.7568V45.9459H58.9189V43.7838Z" fill="black"/>
<path d="M61.0811 43.7838H58.9189V45.9459H61.0811V43.7838Z" fill="black"/>
<path d="M67.5676 43.7838H65.4054V45.9459H67.5676V43.7838Z" fill="black"/>
<path d="M69.7297 43.7838H67.5676V45.9459H69.7297V43.7838Z" fill="black"/>
<path d="M76.2162 43.7838H74.0541V45.9459H76.2162V43.7838Z" fill="black"/>
<path d="M78.3784 43.7838H76.2162V45.9459H78.3784V43.7838Z" fill="black"/>
<path d="M80.5405 43.7838H78.3784V45.9459H80.5405V43.7838Z" fill="black"/>
<path d="M84.8649 43.7838H82.7027V45.9459H84.8649V43.7838Z" fill="black"/>
<path d="M89.1892 43.7838H87.027V45.9459H89.1892V43.7838Z" fill="black"/>
<path d="M91.3513 43.7838H89.1892V45.9459H91.3513V43.7838Z" fill="black"/>
<path d="M22.1622 45.9459H20V48.1081H22.1622V45.9459Z" fill="black"/>
<path d="M24.3243 45.9459H22.1622V48.1081H24.3243V45.9459Z" fill="black"/>
<path d="M35.1351 45.9459H32.973V48.1081H35.1351V45.9459Z" fill="black"/>
<path d="M50.2703 45.9459H48.1081V48.1081H50.2703V45.9459Z" fill="black"/>
<path d="M52.4324 45.9459H50.2703V48.1081H52.4324V45.9459Z" fill="black"/>
<path d="M56.7568 45.9459H54.5946V48.1081H56.7568V45.9459Z" fill="black"/>
<path d="M58.9189 45.9459H56.7568V48.1081H58.9189V45.9459Z" fill="black"/>
<path d="M61.0811 45.9459H58.9189V48.1081H61.0811V45.9459Z" fill="black"/>
<path d="M63.2432 45.9459H61.0811V48.1081H63.2432V45.9459Z" fill="black"/>
<path d="M67.5676 45.9459H65.4054V48.1081H67.5676V45.9459Z" fill="black"/>
<path d="M69.7297 45.9459H67.5676V48.1081H69.7297V45.9459Z" fill="black"/>
<path d="M74.0541 45.9459H71.8919V48.1081H74.0541V45.9459Z" fill="black"/>
<path d="M76.2162 45.9459H74.0541V48.1081H76.2162V45.9459Z" fill="black"/>
<path d="M80.5405 45.9459H78.3784V48.1081H80.5405V45.9459Z" fill="black"/>
<path d="M82.7027 45.9459H80.5405V48.1081H82.7027V45.9459Z" fill="black"/>
<path d="M84.8649 45.9459H82.7027V48.1081H84.8649V45.9459Z" fill="black"/>
<path d="M87.027 45.9459H84.8649V48.1081H87.027V45.9459Z" fill="black"/>
<path d="M89.1892 45.9459H87.027V48.1081H89.1892V45.9459Z" fill="black"/>
<path d="M91.3513 45.9459H89.1892V48.1081H91.3513V45.9459Z" fill="black"/>
<path d="M93.5135 45.9459H91.3513V48.1081H93.5135V45.9459Z" fill="black"/>
<path d="M97.8378 45.9459H95.6757V48.1081H97.8378V45.9459Z" fill="black"/>
<path d="M100 45.9459H97.8378V48.1081H100V45.9459Z" fill="black"/>
<path d="M22.1622 48.1081H20V50.2703H22.1622V48.1081Z" fill="black"/>
<path d="M24.3243 48.1081H22.1622V50.2703H24.3243V48.1081Z" fill="black"/>
<path d="M26.4865 48.1081H24.3243V50.2703H26.4865V48.1081Z" fill="black"/>
<path d="M28.6486 48.1081H26.4865V50.2703H28.6486V48.1081Z" fill="black"/>
<path d="M32.973 48.1081H30.8108V50.2703H32.973V48.1081Z" fill="black"/>
<path d="M37.2973 48.1081H35.1351V50.2703H37.2973V48.1081Z" fill="black"/>
<path d="M39.4595 48.1081H37.2973V50.2703H39.4595V48.1081Z" fill="black"/>
<path d="M45.9459 48.1081H43.7838V50.2703H45.9459V48.1081Z" fill="black"/>
<path d="M50.2703 48.1081H48.1081V50.2703H50.2703V48.1081Z" fill="black"/>
<path d="M54.5946 48.1081H52.4324V50.2703H54.5946V48.1081Z" fill="black"/>
<path d="M58.9189 48.1081H56.7568V50.2703H58.9189V48.1081Z" fill="black"/>
<path d="M61.0811 48.1081H58.9189V50.2703H61.0811V48.1081Z" fill="black"/>
<path d="M71.8919 48.1081H69.7297V50.2703H71.8919V48.1081Z" fill="black"/>
<path d="M74.0541 48.1081H71.8919V50.2703H74.0541V48.1081Z" fill="black"/>
<path d="M78.3784 48.1081H76.2162V50.2703H78.3784V48.1081Z" fill="black"/>
<path d="M80.5405 48.1081H78.3784V50.2703H80.5405V48.1081Z" fill="black"/>
<path d="M82.7027 48.1081H80.5405V50.2703H82.7027V48.1081Z" fill="black"/>
<path d="M87.027 48.1081H84.8649V50.2703H87.027V48.1081Z" fill="black"/>
<path d="M93.5135 48.1081H91.3513V50.2703H93.5135V48.1081Z" fill="black"/>
<path d="M95.6757 48.1081H93.5135V50.2703H95.6757V48.1081Z" fill="black"/>
<path d="M97.8378 48.1081H95.6757V50.2703H97.8378V48.1081Z" fill="black"/>
<path d="M100 48.1081H97.8378V50.2703H100V48.1081Z" fill="black"/>
<path d="M22.1622 50.2703H20V52.4324H22.1622V50.2703Z" fill="black"/>
<path d="M26.4865 50.2703H24.3243V52.4324H26.4865V50.2703Z" fill="black"/>
<path d="M28.6486 50.2703H26.4865V52.4324H28.6486V50.2703Z" fill="black"/>
<path d="M30.8108 50.2703H28.6486V52.4324H30.8108V50.2703Z" fill="black"/>
<path d="M35.1351 50.2703H32.973V52.4324H35.1351V50.2703Z" fill="black"/>
<path d="M37.2973 50.2703H35.1351V52.4324H37.2973V50.2703Z" fill="black"/>
<path d="M41.6216 50.2703H39.4595V52.4324H41.6216V50.2703Z" fill="black"/>
<path d="M45.9459 50.2703H43.7838V52.4324H45.9459V50.2703Z" fill="black"/>
<path d="M50.2703 50.2703H48.1081V52.4324H50.2703V50.2703Z" fill="black"/>
<path d="M56.7568 50.2703H54.5946V52.4324H56.7568V50.2703Z" fill="black"/>
<path d="M61.0811 50.2703H58.9189V52.4324H61.0811V50.2703Z" fill="black"/>
<path d="M63.2432 50.2703H61.0811V52.4324H63.2432V50.2703Z" fill="black"/>
<path d="M65.4054 50.2703H63.2432V52.4324H65.4054V50.2703Z" fill="black"/>
<path d="M76.2162 50.2703H74.0541V52.4324H76.2162V50.2703Z" fill="black"/>
<path d="M82.7027 50.2703H80.5405V52.4324H82.7027V50.2703Z" fill="black"/>
<path d="M87.027 50.2703H84.8649V52.4324H87.027V50.2703Z" fill="black"/>
<path d="M89.1892 50.2703H87.027V52.4324H89.1892V50.2703Z" fill="black"/>
<path d="M95.6757 50.2703H93.5135V52.4324H95.6757V50.2703Z" fill="black"/>
<path d="M97.8378 50.2703H95.6757V52.4324H97.8378V50.2703Z" fill="black"/>
<path d="M100 50.2703H97.8378V52.4324H100V50.2703Z" fill="black"/>
<path d="M30.8108 52.4324H28.6486V54.5946H30.8108V52.4324Z" fill="black"/>
<path d="M32.973 52.4324H30.8108V54.5946H32.973V52.4324Z" fill="black"/>
<path d="M37.2973 52.4324H35.1351V54.5946H37.2973V52.4324Z" fill="black"/>
<path d="M45.9459 52.4324H43.7838V54.5946H45.9459V52.4324Z" fill="black"/>
<path d="M48.1081 52.4324H45.9459V54.5946H48.1081V52.4324Z" fill="black"/>
<path d="M50.2703 52.4324H48.1081V54.5946H50.2703V52.4324Z" fill="black"/>
<path d="M52.4324 52.4324H50.2703V54.5946H52.4324V52.4324Z" fill="black"/>
<path d="M58.9189 52.4324H56.7568V54.5946H58.9189V52.4324Z" fill="black"/>
<path d="M63.2432 52.4324H61.0811V54.5946H63.2432V52.4324Z" fill="black"/>
<path d="M71.8919 52.4324H69.7297V54.5946H71.8919V52.4324Z" fill="black"/>
<path d="M74.0541 52.4324H71.8919V54.5946H74.0541V52.4324Z" fill="black"/>
<path d="M76.2162 52.4324H74.0541V54.5946H76.2162V52.4324Z" fill="black"/>
<path d="M78.3784 52.4324H76.2162V54.5946H78.3784V52.4324Z" fill="black"/>
<path d="M91.3513 52.4324H89.1892V54.5946H91.3513V52.4324Z" fill="black"/>
<path d="M100 52.4324H97.8378V54.5946H100V52.4324Z" fill="black"/>
<path d="M26.4865 54.5946H24.3243V56.7568H26.4865V54.5946Z" fill="black"/>
<path d="M28.6486 54.5946H26.4865V56.7568H28.6486V54.5946Z" fill="black"/>
<path d="M35.1351 54.5946H32.973V56.7568H35.1351V54.5946Z" fill="black"/>
<path d="M39.4595 54.5946H37.2973V56.7568H39.4595V54.5946Z" fill="black"/>
<path d="M41.6216 54.5946H39.4595V56.7568H41.6216V54.5946Z" fill="black"/>
<path d="M56.7568 54.5946H54.5946V56.7568H56.7568V54.5946Z" fill="black"/>
<path d="M61.0811 54.5946H58.9189V56.7568H61.0811V54.5946Z" fill="black"/>
<path d="M65.4054 54.5946H63.2432V56.7568H65.4054V54.5946Z" fill="black"/>
<path d="M74.0541 54.5946H71.8919V56.7568H74.0541V54.5946Z" fill="black"/>
<path d="M76.2162 54.5946H74.0541V56.7568H76.2162V54.5946Z" fill="black"/>
<path d="M82.7027 54.5946H80.5405V56.7568H82.7027V54.5946Z" fill="black"/>
<path d="M84.8649 54.5946H82.7027V56.7568H84.8649V54.5946Z" fill="black"/>
<path d="M87.027 54.5946H84.8649V56.7568H87.027V54.5946Z" fill="black"/>
<path d="M93.5135 54.5946H91.3513V56.7568H93.5135V54.5946Z" fill="black"/>
<path d="M97.8378 54.5946H95.6757V56.7568H97.8378V54.5946Z" fill="black"/>
<path d="M100 54.5946H97.8378V56.7568H100V54.5946Z" fill="black"/>
<path d="M22.1622 56.7568H20V58.9189H22.1622V56.7568Z" fill="black"/>
<path d="M26.4865 56.7568H24.3243V58.9189H26.4865V56.7568Z" fill="black"/>
<path d="M28.6486 56.7568H26.4865V58.9189H28.6486V56.7568Z" fill="black"/>
<path d="M30.8108 56.7568H28.6486V58.9189H30.8108V56.7568Z" fill="black"/>
<path d="M37.2973 56.7568H35.1351V58.9189H37.2973V56.7568Z" fill="black"/>
<path d="M39.4595 56.7568H37.2973V58.9189H39.4595V56.7568Z" fill="black"/>
<path d="M45.9459 56.7568H43.7838V58.9189H45.9459V56.7568Z" fill="black"/>
<path d="M48.1081 56.7568H45.9459V58.9189H48.1081V56.7568Z" fill="black"/>
<path d="M52.4324 56.7568H50.2703V58.9189H52.4324V56.7568Z" fill="black"/>
<path d="M54.5946 56.7568H52.4324V58.9189H54.5946V56.7568Z" fill="black"/>
<path d="M58.9189 56.7568H56.7568V58.9189H58.9189V56.7568Z" fill="black"/>
<path d="M65.4054 56.7568H63.2432V58.9189H65.4054V56.7568Z" fill="black"/>
<path d="M69.7297 56.7568H67.5676V58.9189H69.7297V56.7568Z" fill="black"/>
<path d="M74.0541 56.7568H71.8919V58.9189H74.0541V56.7568Z" fill="black"/>
<path d="M76.2162 56.7568H74.0541V58.9189H76.2162V56.7568Z" fill="black"/>
<path d="M82.7027 56.7568H80.5405V58.9189H82.7027V56.7568Z" fill="black"/>
<path d="M87.027 56.7568H84.8649V58.9189H87.027V56.7568Z" fill="black"/>
<path d="M97.8378 56.7568H95.6757V58.9189H97.8378V56.7568Z" fill="black"/>
<path d="M100 56.7568H97.8378V58.9189H100V56.7568Z" fill="black"/>
<path d="M22.1622 58.9189H20V61.0811H22.1622V58.9189Z" fill="black"/>
<path d="M28.6486 58.9189H26.4865V61.0811H28.6486V58.9189Z" fill="black"/>
<path d="M35.1351 58.9189H32.973V61.0811H35.1351V58.9189Z" fill="black"/>
<path d="M37.2973 58.9189H35.1351V61.0811H37.2973V58.9189Z" fill="black"/>
<path d="M41.6216 58.9189H39.4595V61.0811H41.6216V58.9189Z" fill="black"/>
<path d="M54.5946 58.9189H52.4324V61.0811H54.5946V58.9189Z" fill="black"/>
<path d="M63.2432 58.9189H61.0811V61.0811H63.2432V58.9189Z" fill="black"/>
<path d="M67.5676 58.9189H65.4054V61.0811H67.5676V58.9189Z" fill="black"/>
<path d="M69.7297 58.9189H67.5676V61.0811H69.7297V58.9189Z" fill="black"/>
<path d="M71.8919 58.9189H69.7297V61.0811H71.8919V58.9189Z" fill="black"/>
<path d="M82.7027 58.9189H80.5405V61.0811H82.7027V58.9189Z" fill="black"/>
<path d="M84.8649 58.9189H82.7027V61.0811H84.8649V58.9189Z" fill="black"/>
<path d="M87.027 58.9189H84.8649V61.0811H87.027V58.9189Z" fill="black"/>
<path d="M91.3513 58.9189H89.1892V61.0811H91.3513V58.9189Z" fill="black"/>
<path d="M93.5135 58.9189H91.3513V61.0811H93.5135V58.9189Z" fill="black"/>
<path d="M95.6757 58.9189H93.5135V61.0811H95.6757V58.9189Z" fill="black"/>
<path d="M97.8378 58.9189H95.6757V61.0811H97.8378V58.9189Z" fill="black"/>
<path d="M100 58.9189H97.8378V61.0811H100V58.9189Z" fill="black"/>
<path d="M22.1622 61.0811H20V63.2432H22.1622V61.0811Z" fill="black"/>
<path d="M28.6486 61.0811H26.4865V63.2432H28.6486V61.0811Z" fill="black"/>
<path d="M41.6216 61.0811H39.4595V63.2432H41.6216V61.0811Z" fill="black"/>
<path d="M45.9459 61.0811H43.7838V63.2432H45.9459V61.0811Z" fill="black"/>
<path d="M50.2703 61.0811H48.1081V63.2432H50.2703V61.0811Z" fill="black"/>
<path d="M54.5946 61.0811H52.4324V63.2432H54.5946V61.0811Z" fill="black"/>
<path d="M61.0811 61.0811H58.9189V63.2432H61.0811V61.0811Z" fill="black"/>
<path d="M63.2432 61.0811H61.0811V63.2432H63.2432V61.0811Z" fill="black"/>
<path d="M65.4054 61.0811H63.2432V63.2432H65.4054V61.0811Z" fill="black"/>
<path d="M67.5676 61.0811H65.4054V63.2432H67.5676V61.0811Z" fill="black"/>
<path d="M71.8919 61.0811H69.7297V63.2432H71.8919V61.0811Z" fill="black"/>
<path d="M76.2162 61.0811H74.0541V63.2432H76.2162V61.0811Z" fill="black"/>
<path d="M78.3784 61.0811H76.2162V63.2432H78.3784V61.0811Z" fill="black"/>
<path d="M82.7027 61.0811H80.5405V63.2432H82.7027V61.0811Z" fill="black"/>
<path d="M89.1892 61.0811H87.027V63.2432H89.1892V61.0811Z" fill="black"/>
<path d="M91.3513 61.0811H89.1892V63.2432H91.3513V61.0811Z" fill="black"/>
<path d="M97.8378 61.0811H95.6757V63.2432H97.8378V61.0811Z" fill="black"/>
<path d="M26.4865 63.2432H24.3243V65.4054H26.4865V63.2432Z" fill="black"/>
<path d="M28.6486 63.2432H26.4865V65.4054H28.6486V63.2432Z" fill="black"/>
<path d="M30.8108 63.2432H28.6486V65.4054H30.8108V63.2432Z" fill="black"/>
<path d="M32.973 63.2432H30.8108V65.4054H32.973V63.2432Z" fill="black"/>
<path d="M35.1351 63.2432H32.973V65.4054H35.1351V63.2432Z" fill="black"/>
<path d="M39.4595 63.2432H37.2973V65.4054H39.4595V63.2432Z" fill="black"/>
<path d="M43.7838 63.2432H41.6216V65.4054H43.7838V63.2432Z" fill="black"/>
<path d="M50.2703 63.2432H48.1081V65.4054H50.2703V63.2432Z" fill="black"/>
<path d="M52.4324 63.2432H50.2703V65.4054H52.4324V63.2432Z" fill="black"/>
<path d="M54.5946 63.2432H52.4324V65.4054H54.5946V63.2432Z" fill="black"/>
<path d="M65.4054 63.2432H63.2432V65.4054H65.4054V63.2432Z" fill="black"/>
<path d="M67.5676 63.2432H65.4054V65.4054H67.5676V63.2432Z" fill="black"/>
<path d="M69.7297 63.2432H67.5676V65.4054H69.7297V63.2432Z" fill="black"/>
<path d="M71.8919 63.2432H69.7297V65.4054H71.8919V63.2432Z" fill="black"/>
<path d="M74.0541 63.2432H71.8919V65.4054H74.0541V63.2432Z" fill="black"/>
<path d="M76.2162 63.2432H74.0541V65.4054H76.2162V63.2432Z" fill="black"/>
<path d="M80.5405 63.2432H78.3784V65.4054H80.5405V63.2432Z" fill="black"/>
<path d="M82.7027 63.2432H80.5405V65.4054H82.7027V63.2432Z" fill="black"/>
<path d="M84.8649 63.2432H82.7027V65.4054H84.8649V63.2432Z" fill="black"/>
<path d="M87.027 63.2432H84.8649V65.4054H87.027V63.2432Z" fill="black"/>
<path d="M89.1892 63.2432H87.027V65.4054H89.1892V63.2432Z" fill="black"/>
<path d="M97.8378 63.2432H95.6757V65.4054H97.8378V63.2432Z" fill="black"/>
<path d="M22.1622 65.4054H20V67.5676H22.1622V65.4054Z" fill="black"/>
<path d="M26.4865 65.4054H24.3243V67.5676H26.4865V65.4054Z" fill="black"/>
<path d="M30.8108 65.4054H28.6486V67.5676H30.8108V65.4054Z" fill="black"/>
<path d="M41.6216 65.4054H39.4595V67.5676H41.6216V65.4054Z" fill="black"/>
<path d="M45.9459 65.4054H43.7838V67.5676H45.9459V65.4054Z" fill="black"/>
<path d="M48.1081 65.4054H45.9459V67.5676H48.1081V65.4054Z" fill="black"/>
<path d="M50.2703 65.4054H48.1081V67.5676H50.2703V65.4054Z" fill="black"/>
<path d="M63.2432 65.4054H61.0811V67.5676H63.2432V65.4054Z" fill="black"/>
<path d="M65.4054 65.4054H63.2432V67.5676H65.4054V65.4054Z" fill="black"/>
<path d="M67.5676 65.4054H65.4054V67.5676H67.5676V65.4054Z" fill="black"/>
<path d="M71.8919 65.4054H69.7297V67.5676H71.8919V65.4054Z" fill="black"/>
<path d="M76.2162 65.4054H74.0541V67.5676H76.2162V65.4054Z" fill="black"/>
<path d="M78.3784 65.4054H76.2162V67.5676H78.3784V65.4054Z" fill="black"/>
<path d="M95.6757 65.4054H93.5135V67.5676H95.6757V65.4054Z" fill="black"/>
<path d="M24.3243 67.5676H22.1622V69.7297H24.3243V67.5676Z" fill="black"/>
<path d="M26.4865 67.5676H24.3243V69.7297H26.4865V67.5676Z" fill="black"/>
<path d="M28.6486 67.5676H26.4865V69.7297H28.6486V67.5676Z" fill="black"/>
<path d="M32.973 67.5676H30.8108V69.7297H32.973V67.5676Z" fill="black"/>
<path d="M35.1351 67.5676H32.973V69.7297H35.1351V67.5676Z" fill="black"/>
<path d="M41.6216 67.5676H39.4595V69.7297H41.6216V67.5676Z" fill="black"/>
<path d="M43.7838 67.5676H41.6216V69.7297H43.7838V67.5676Z" fill="black"/>
<path d="M45.9459 67.5676H43.7838V69.7297H45.9459V67.5676Z" fill="black"/>
<path d="M48.1081 67.5676H45.9459V69.7297H48.1081V67.5676Z" fill="black"/>
<path d="M50.2703 67.5676H48.1081V69.7297H50.2703V67.5676Z" fill="black"/>
<path d="M52.4324 67.5676H50.2703V69.7297H52.4324V67.5676Z" fill="black"/>
<path d="M56.7568 67.5676H54.5946V69.7297H56.7568V67.5676Z" fill="black"/>
<path d="M58.9189 67.5676H56.7568V69.7297H58.9189V67.5676Z" fill="black"/>
<path d="M61.0811 67.5676H58.9189V69.7297H61.0811V67.5676Z" fill="black"/>
<path d="M71.8919 67.5676H69.7297V69.7297H71.8919V67.5676Z" fill="black"/>
<path d="M74.0541 67.5676H71.8919V69.7297H74.0541V67.5676Z" fill="black"/>
<path d="M78.3784 67.5676H76.2162V69.7297H78.3784V67.5676Z" fill="black"/>
<path d="M82.7027 67.5676H80.5405V69.7297H82.7027V67.5676Z" fill="black"/>
<path d="M91.3513 67.5676H89.1892V69.7297H91.3513V67.5676Z" fill="black"/>
<path d="M95.6757 67.5676H93.5135V69.7297H95.6757V67.5676Z" fill="black"/>
<path d="M97.8378 67.5676H95.6757V69.7297H97.8378V67.5676Z" fill="black"/>
<path d="M100 67.5676H97.8378V69.7297H100V67.5676Z" fill="black"/>
<path d="M22.1622 69.7297H20V71.8919H22.1622V69.7297Z" fill="black"/>
<path d="M26.4865 69.7297H24.3243V71.8919H26.4865V69.7297Z" fill="black"/>
<path d="M30.8108 69.7297H28.6486V71.8919H30.8108V69.7297Z" fill="black"/>
<path d="M32.973 69.7297H30.8108V71.8919H32.973V69.7297Z" fill="black"/>
<path d="M37.2973 69.7297H35.1351V71.8919H37.2973V69.7297Z" fill="black"/>
<path d="M39.4595 69.7297H37.2973V71.8919H39.4595V69.7297Z" fill="black"/>
<path d="M43.7838 69.7297H41.6216V71.8919H43.7838V69.7297Z" fill="black"/>
<path d="M50.2703 69.7297H48.1081V71.8919H50.2703V69.7297Z" fill="black"/>
<path d="M61.0811 69.7297H58.9189V71.8919H61.0811V69.7297Z" fill="black"/>
<path d="M63.2432 69.7297H61.0811V71.8919H63.2432V69.7297Z" fill="black"/>
<path d="M65.4054 69.7297H63.2432V71.8919H65.4054V69.7297Z" fill="black"/>
<path d="M67.5676 69.7297H65.4054V71.8919H67.5676V69.7297Z" fill="black"/>
<path d="M69.7297 69.7297H67.5676V71.8919H69.7297V69.7297Z" fill="black"/>
<path d="M76.2162 69.7297H74.0541V71.8919H76.2162V69.7297Z" fill="black"/>
<path d="M78.3784 69.7297H76.2162V71.8919H78.3784V69.7297Z" fill="black"/>
<path d="M84.8649 69.7297H82.7027V71.8919H84.8649V69.7297Z" fill="black"/>
<path d="M87.027 69.7297H84.8649V71.8919H87.027V69.7297Z" fill="black"/>
<path d="M93.5135 69.7297H91.3513V71.8919H93.5135V69.7297Z" fill="black"/>
<path d="M97.8378 69.7297H95.6757V71.8919H97.8378V69.7297Z" fill="black"/>
<path d="M100 69.7297H97.8378V71.8919H100V69.7297Z" fill="black"/>
<path d="M24.3243 71.8919H22.1622V74.0541H24.3243V71.8919Z" fill="black"/>
<path d="M26.4865 71.8919H24.3243V74.0541H26.4865V71.8919Z" fill="black"/>
<path d="M30.8108 71.8919H28.6486V74.0541H30.8108V71.8919Z" fill="black"/>
<path d="M35.1351 71.8919H32.973V74.0541H35.1351V71.8919Z" fill="black"/>
<path d="M41.6216 71.8919H39.4595V74.0541H41.6216V71.8919Z" fill="black"/>
<path d="M45.9459 71.8919H43.7838V74.0541H45.9459V71.8919Z" fill="black"/>
<path d="M50.2703 71.8919H48.1081V74.0541H50.2703V71.8919Z" fill="black"/>
<path d="M54.5946 71.8919H52.4324V74.0541H54.5946V71.8919Z" fill="black"/>
<path d="M56.7568 71.8919H54.5946V74.0541H56.7568V71.8919Z" fill="black"/>
<path d="M58.9189 71.8919H56.7568V74.0541H58.9189V71.8919Z" fill="black"/>
<path d="M61.0811 71.8919H58.9189V74.0541H61.0811V71.8919Z" fill="black"/>
<path d="M67.5676 71.8919H65.4054V74.0541H67.5676V71.8919Z" fill="black"/>
<path d="M74.0541 71.8919H71.8919V74.0541H74.0541V71.8919Z" fill="black"/>
<path d="M76.2162 71.8919H74.0541V74.0541H76.2162V71.8919Z" fill="black"/>
<path d="M78.3784 71.8919H76.2162V74.0541H78.3784V71.8919Z" fill="black"/>
<path d="M80.5405 71.8919H78.3784V74.0541H80.5405V71.8919Z" fill="black"/>
<path d="M87.027 71.8919H84.8649V74.0541H87.027V71.8919Z" fill="black"/>
<path d="M93.5135 71.8919H91.3513V74.0541H93.5135V71.8919Z" fill="black"/>
<path d="M97.8378 71.8919H95.6757V74.0541H97.8378V71.8919Z" fill="black"/>
<path d="M100 71.8919H97.8378V74.0541H100V71.8919Z" fill="black"/>
<path d="M24.3243 74.0541H22.1622V76.2162H24.3243V74.0541Z" fill="black"/>
<path d="M37.2973 74.0541H35.1351V76.2162H37.2973V74.0541Z" fill="black"/>
<path d="M39.4595 74.0541H37.2973V76.2162H39.4595V74.0541Z" fill="black"/>
<path d="M43.7838 74.0541H41.6216V76.2162H43.7838V74.0541Z" fill="black"/>
<path d="M48.1081 74.0541H45.9459V76.2162H48.1081V74.0541Z" fill="black"/>
<path d="M52.4324 74.0541H50.2703V76.2162H52.4324V74.0541Z" fill="black"/>
<path d="M54.5946 74.0541H52.4324V76.2162H54.5946V74.0541Z" fill="black"/>
<path d="M56.7568 74.0541H54.5946V76.2162H56.7568V74.0541Z" fill="black"/>
<path d="M58.9189 74.0541H56.7568V76.2162H58.9189V74.0541Z" fill="black"/>
<path d="M67.5676 74.0541H65.4054V76.2162H67.5676V74.0541Z" fill="black"/>
<path d="M71.8919 74.0541H69.7297V76.2162H71.8919V74.0541Z" fill="black"/>
<path d="M76.2162 74.0541H74.0541V76.2162H76.2162V74.0541Z" fill="black"/>
<path d="M78.3784 74.0541H76.2162V76.2162H78.3784V74.0541Z" fill="black"/>
<path d="M80.5405 74.0541H78.3784V76.2162H80.5405V74.0541Z" fill="black"/>
<path d="M82.7027 74.0541H80.5405V76.2162H82.7027V74.0541Z" fill="black"/>
<path d="M87.027 74.0541H84.8649V76.2162H87.027V74.0541Z" fill="black"/>
<path d="M93.5135 74.0541H91.3513V76.2162H93.5135V74.0541Z" fill="black"/>
<path d="M97.8378 74.0541H95.6757V76.2162H97.8378V74.0541Z" fill="black"/>
<path d="M22.1622 76.2162H20V78.3784H22.1622V76.2162Z" fill="black"/>
<path d="M35.1351 76.2162H32.973V78.3784H35.1351V76.2162Z" fill="black"/>
<path d="M41.6216 76.2162H39.4595V78.3784H41.6216V76.2162Z" fill="black"/>
<path d="M48.1081 76.2162H45.9459V78.3784H48.1081V76.2162Z" fill="black"/>
<path d="M52.4324 76.2162H50.2703V78.3784H52.4324V76.2162Z" fill="black"/>
<path d="M56.7568 76.2162H54.5946V78.3784H56.7568V76.2162Z" fill="black"/>
<path d="M58.9189 76.2162H56.7568V78.3784H58.9189V76.2162Z" fill="black"/>
<path d="M63.2432 76.2162H61.0811V78.3784H63.2432V76.2162Z" fill="black"/>
<path d="M65.4054 76.2162H63.2432V78.3784H65.4054V76.2162Z" fill="black"/>
<path d="M67.5676 76.2162H65.4054V78.3784H67.5676V76.2162Z" fill="black"/>
<path d="M69.7297 76.2162H67.5676V78.3784H69.7297V76.2162Z" fill="black"/>
<path d="M74.0541 76.2162H71.8919V78.3784H74.0541V76.2162Z" fill="black"/>
<path d="M82.7027 76.2162H80.5405V78.3784H82.7027V76.2162Z" fill="black"/>
<path d="M87.027 76.2162H84.8649V78.3784H87.027V76.2162Z" fill="black"/>
<path d="M89.1892 76.2162H87.027V78.3784H89.1892V76.2162Z" fill="black"/>
<path d="M91.3513 76.2162H89.1892V78.3784H91.3513V76.2162Z" fill="black"/>
<path d="M95.6757 76.2162H93.5135V78.3784H95.6757V76.2162Z" fill="black"/>
<path d="M97.8378 76.2162H95.6757V78.3784H97.8378V76.2162Z" fill="black"/>
<path d="M100 76.2162H97.8378V78.3784H100V76.2162Z" fill="black"/>
<path d="M24.3243 78.3784H22.1622V80.5405H24.3243V78.3784Z" fill="black"/>
<path d="M28.6486 78.3784H26.4865V80.5405H28.6486V78.3784Z" fill="black"/>
<path d="M37.2973 78.3784H35.1351V80.5405H37.2973V78.3784Z" fill="black"/>
<path d="M39.4595 78.3784H37.2973V80.5405H39.4595V78.3784Z" fill="black"/>
<path d="M43.7838 78.3784H41.6216V80.5405H43.7838V78.3784Z" fill="black"/>
<path d="M45.9459 78.3784H43.7838V80.5405H45.9459V78.3784Z" fill="black"/>
<path d="M48.1081 78.3784H45.9459V80.5405H48.1081V78.3784Z" fill="black"/>
<path d="M50.2703 78.3784H48.1081V80.5405H50.2703V78.3784Z" fill="black"/>
<path d="M52.4324 78.3784H50.2703V80.5405H52.4324V78.3784Z" fill="black"/>
<path d="M56.7568 78.3784H54.5946V80.5405H56.7568V78.3784Z" fill="black"/>
<path d="M65.4054 78.3784H63.2432V80.5405H65.4054V78.3784Z" fill="black"/>
<path d="M69.7297 78.3784H67.5676V80.5405H69.7297V78.3784Z" fill="black"/>
<path d="M71.8919 78.3784H69.7297V80.5405H71.8919V78.3784Z" fill="black"/>
<path d="M74.0541 78.3784H71.8919V80.5405H74.0541V78.3784Z" fill="black"/>
<path d="M76.2162 78.3784H74.0541V80.5405H76.2162V78.3784Z" fill="black"/>
<path d="M78.3784 78.3784H76.2162V80.5405H78.3784V78.3784Z" fill="black"/>
<path d="M87.027 78.3784H84.8649V80.5405H87.027V78.3784Z" fill="black"/>
<path d="M89.1892 78.3784H87.027V80.5405H89.1892V78.3784Z" fill="black"/>
<path d="M100 78.3784H97.8378V80.5405H100V78.3784Z" fill="black"/>
<path d="M22.1622 80.5405H20V82.7027H22.1622V80.5405Z" fill="black"/>
<path d="M28.6486 80.5405H26.4865V82.7027H28.6486V80.5405Z" fill="black"/>
<path d="M35.1351 80.5405H32.973V82.7027H35.1351V80.5405Z" fill="black"/>
<path d="M37.2973 80.5405H35.1351V82.7027H37.2973V80.5405Z" fill="black"/>
<path d="M41.6216 80.5405H39.4595V82.7027H41.6216V80.5405Z" fill="black"/>
<path d="M43.7838 80.5405H41.6216V82.7027H43.7838V80.5405Z" fill="black"/>
<path d="M56.7568 80.5405H54.5946V82.7027H56.7568V80.5405Z" fill="black"/>
<path d="M58.9189 80.5405H56.7568V82.7027H58.9189V80.5405Z" fill="black"/>
<path d="M61.0811 80.5405H58.9189V82.7027H61.0811V80.5405Z" fill="black"/>
<path d="M63.2432 80.5405H61.0811V82.7027H63.2432V80.5405Z" fill="black"/>
<path d="M65.4054 80.5405H63.2432V82.7027H65.4054V80.5405Z" fill="black"/>
<path d="M69.7297 80.5405H67.5676V82.7027H69.7297V80.5405Z" fill="black"/>
<path d="M76.2162 80.5405H74.0541V82.7027H76.2162V80.5405Z" fill="black"/>
<path d="M78.3784 80.5405H76.2162V82.7027H78.3784V80.5405Z" fill="black"/>
<path d="M82.7027 80.5405H80.5405V82.7027H82.7027V80.5405Z" fill="black"/>
<path d="M84.8649 80.5405H82.7027V82.7027H84.8649V80.5405Z" fill="black"/>
<path d="M87.027 80.5405H84.8649V82.7027H87.027V80.5405Z" fill="black"/>
<path d="M89.1892 80.5405H87.027V82.7027H89.1892V80.5405Z" fill="black"/>
<path d="M91.3513 80.5405H89.1892V82.7027H91.3513V80.5405Z" fill="black"/>
<path d="M95.6757 80.5405H93.5135V82.7027H95.6757V80.5405Z" fill="black"/>
<path d="M97.8378 80.5405H95.6757V82.7027H97.8378V80.5405Z" fill="black"/>
<path d="M39.4595 82.7027H37.2973V84.8649H39.4595V82.7027Z" fill="black"/>
<path d="M41.6216 82.7027H39.4595V84.8649H41.6216V82.7027Z" fill="black"/>
<path d="M48.1081 82.7027H45.9459V84.8649H48.1081V82.7027Z" fill="black"/>
<path d="M50.2703 82.7027H48.1081V84.8649H50.2703V82.7027Z" fill="black"/>
<path d="M54.5946 82.7027H52.4324V84.8649H54.5946V82.7027Z" fill="black"/>
<path d="M58.9189 82.7027H56.7568V84.8649H58.9189V82.7027Z" fill="black"/>
<path d="M61.0811 82.7027H58.9189V84.8649H61.0811V82.7027Z" fill="black"/>
<path d="M65.4054 82.7027H63.2432V84.8649H65.4054V82.7027Z" fill="black"/>
<path d="M80.5405 82.7027H78.3784V84.8649H80.5405V82.7027Z" fill="black"/>
<path d="M82.7027 82.7027H80.5405V84.8649H82.7027V82.7027Z" fill="black"/>
<path d="M91.3513 82.7027H89.1892V84.8649H91.3513V82.7027Z" fill="black"/>
<path d="M100 82.7027H97.8378V84.8649H100V82.7027Z" fill="black"/>
<path d="M22.1622 84.8649H20V87.027H22.1622V84.8649Z" fill="black"/>
<path d="M24.3243 84.8649H22.1622V87.027H24.3243V84.8649Z" fill="black"/>
<path d="M26.4865 84.8649H24.3243V87.027H26.4865V84.8649Z" fill="black"/>
<path d="M28.6486 84.8649H26.4865V87.027H28.6486V84.8649Z" fill="black"/>
<path d="M30.8108 84.8649H28.6486V87.027H30.8108V84.8649Z" fill="black"/>
<path d="M32.973 84.8649H30.8108V87.027H32.973V84.8649Z" fill="black"/>
<path d="M35.1351 84.8649H32.973V87.027H35.1351V84.8649Z" fill="black"/>
<path d="M43.7838 84.8649H41.6216V87.027H43.7838V84.8649Z" fill="black"/>
<path d="M48.1081 84.8649H45.9459V87.027H48.1081V84.8649Z" fill="black"/>
<path d="M50.2703 84.8649H48.1081V87.027H50.2703V84.8649Z" fill="black"/>
<path d="M52.4324 84.8649H50.2703V87.027H52.4324V84.8649Z" fill="black"/>
<path d="M54.5946 84.8649H52.4324V87.027H54.5946V84.8649Z" fill="black"/>
<path d="M56.7568 84.8649H54.5946V87.027H56.7568V84.8649Z" fill="black"/>
<path d="M58.9189 84.8649H56.7568V87.027H58.9189V84.8649Z" fill="black"/>
<path d="M63.2432 84.8649H61.0811V87.027H63.2432V84.8649Z" fill="black"/>
<path d="M65.4054 84.8649H63.2432V87.027H65.4054V84.8649Z" fill="black"/>
<path d="M80.5405 84.8649H78.3784V87.027H80.5405V84.8649Z" fill="black"/>
<path d="M82.7027 84.8649H80.5405V87.027H82.7027V84.8649Z" fill="black"/>
<path d="M87.027 84.8649H84.8649V87.027H87.027V84.8649Z" fill="black"/>
<path d="M91.3513 84.8649H89.1892V87.027H91.3513V84.8649Z" fill="black"/>
<path d="M95.6757 84.8649H93.5135V87.027H95.6757V84.8649Z" fill="black"/>
<path d="M97.8378 84.8649H95.6757V87.027H97.8378V84.8649Z" fill="black"/>
<path d="M100 84.8649H97.8378V87.027H100V84.8649Z" fill="black"/>
<path d="M22.1622 87.027H20V89.1892H22.1622V87.027Z" fill="black"/>
<path d="M35.1351 87.027H32.973V89.1892H35.1351V87.027Z" fill="black"/>
<path d="M39.4595 87.027H37.2973V89.1892H39.4595V87.027Z" fill="black"/>
<path d="M41.6216 87.027H39.4595V89.1892H41.6216V87.027Z" fill="black"/>
<path d="M45.9459 87.027H43.7838V89.1892H45.9459V87.027Z" fill="black"/>
<path d="M48.1081 87.027H45.9459V89.1892H48.1081V87.027Z" fill="black"/>
<path d="M52.4324 87.027H50.2703V89.1892H52.4324V87.027Z" fill="black"/>
<path d="M54.5946 87.027H52.4324V89.1892H54.5946V87.027Z" fill="black"/>
<path d="M56.7568 87.027H54.5946V89.1892H56.7568V87.027Z" fill="black"/>
<path d="M58.9189 87.027H56.7568V89.1892H58.9189V87.027Z" fill="black"/>
<path d="M61.0811 87.027H58.9189V89.1892H61.0811V87.027Z" fill="black"/>
<path d="M65.4054 87.027H63.2432V89.1892H65.4054V87.027Z" fill="black"/>
<path d="M71.8919 87.027H69.7297V89.1892H71.8919V87.027Z" fill="black"/>
<path d="M76.2162 87.027H74.0541V89.1892H76.2162V87.027Z" fill="black"/>
<path d="M78.3784 87.027H76.2162V89.1892H78.3784V87.027Z" fill="black"/>
<path d="M82.7027 87.027H80.5405V89.1892H82.7027V87.027Z" fill="black"/>
<path d="M91.3513 87.027H89.1892V89.1892H91.3513V87.027Z" fill="black"/>
<path d="M97.8378 87.027H95.6757V89.1892H97.8378V87.027Z" fill="black"/>
<path d="M100 87.027H97.8378V89.1892H100V87.027Z" fill="black"/>
<path d="M22.1622 89.1892H20V91.3513H22.1622V89.1892Z" fill="black"/>
<path d="M26.4865 89.1892H24.3243V91.3513H26.4865V89.1892Z" fill="black"/>
<path d="M28.6486 89.1892H26.4865V91.3513H28.6486V89.1892Z" fill="black"/>
<path d="M30.8108 89.1892H28.6486V91.3513H30.8108V89.1892Z" fill="black"/>
<path d="M35.1351 89.1892H32.973V91.3513H35.1351V89.1892Z" fill="black"/>
<path d="M39.4595 89.1892H37.2973V91.3513H39.4595V89.1892Z" fill="black"/>
<path d="M41.6216 89.1892H39.4595V91.3513H41.6216V89.1892Z" fill="black"/>
<path d="M43.7838 89.1892H41.6216V91.3513H43.7838V89.1892Z" fill="black"/>
<path d="M45.9459 89.1892H43.7838V91.3513H45.9459V89.1892Z" fill="black"/>
<path d="M50.2703 89.1892H48.1081V91.3513H50.2703V89.1892Z" fill="black"/>
<path d="M54.5946 89.1892H52.4324V91.3513H54.5946V89.1892Z" fill="black"/>
<path d="M61.0811 89.1892H58.9189V91.3513H61.0811V89.1892Z" fill="black"/>
<path d="M63.2432 89.1892H61.0811V91.3513H63.2432V89.1892Z" fill="black"/>
<path d="M65.4054 89.1892H63.2432V91.3513H65.4054V89.1892Z" fill="black"/>
<path d="M71.8919 89.1892H69.7297V91.3513H71.8919V89.1892Z" fill="black"/>
<path d="M76.2162 89.1892H74.0541V91.3513H76.2162V89.1892Z" fill="black"/>
<path d="M78.3784 89.1892H76.2162V91.3513H78.3784V89.1892Z" fill="black"/>
<path d="M82.7027 89.1892H80.5405V91.3513H82.7027V89.1892Z" fill="black"/>
<path d="M84.8649 89.1892H82.7027V91.3513H84.8649V89.1892Z" fill="black"/>
<path d="M87.027 89.1892H84.8649V91.3513H87.027V89.1892Z" fill="black"/>
<path d="M89.1892 89.1892H87.027V91.3513H89.1892V89.1892Z" fill="black"/>
<path d="M91.3513 89.1892H89.1892V91.3513H91.3513V89.1892Z" fill="black"/>
<path d="M93.5135 89.1892H91.3513V91.3513H93.5135V89.1892Z" fill="black"/>
<path d="M97.8378 89.1892H95.6757V91.3513H97.8378V89.1892Z" fill="black"/>
<path d="M22.1622 91.3513H20V93.5135H22.1622V91.3513Z" fill="black"/>
<path d="M26.4865 91.3513H24.3243V93.5135H26.4865V91.3513Z" fill="black"/>
<path d="M28.6486 91.3513H26.4865V93.5135H28.6486V91.3513Z" fill="black"/>
<path d="M30.8108 91.3513H28.6486V93.5135H30.8108V91.3513Z" fill="black"/>
<path d="M35.1351 91.3513H32.973V93.5135H35.1351V91.3513Z" fill="black"/>
<path d="M45.9459 91.3513H43.7838V93.5135H45.9459V91.3513Z" fill="black"/>
<path d="M48.1081 91.3513H45.9459V93.5135H48.1081V91.3513Z" fill="black"/>
<path d="M52.4324 91.3513H50.2703V93.5135H52.4324V91.3513Z" fill="black"/>
<path d="M58.9189 91.3513H56.7568V93.5135H58.9189V91.3513Z" fill="black"/>
<path d="M65.4054 91.3513H63.2432V93.5135H65.4054V91.3513Z" fill="black"/>
<path d="M76.2162 91.3513H74.0541V93.5135H76.2162V91.3513Z" fill="black"/>
<path d="M84.8649 91.3513H82.7027V93.5135H84.8649V91.3513Z" fill="black"/>
<path d="M89.1892 91.3513H87.027V93.5135H89.1892V91.3513Z" fill="black"/>
<path d="M91.3513 91.3513H89.1892V93.5135H91.3513V91.3513Z" fill="black"/>
<path d="M93.5135 91.3513H91.3513V93.5135H93.5135V91.3513Z" fill="black"/>
<path d="M97.8378 91.3513H95.6757V93.5135H97.8378V91.3513Z" fill="black"/>
<path d="M100 91.3513H97.8378V93.5135H100V91.3513Z" fill="black"/>
<path d="M22.1622 93.5135H20V95.6757H22.1622V93.5135Z" fill="black"/>
<path d="M26.4865 93.5135H24.3243V95.6757H26.4865V93.5135Z" fill="black"/>
<path d="M28.6486 93.5135H26.4865V95.6757H28.6486V93.5135Z" fill="black"/>
<path d="M30.8108 93.5135H28.6486V95.6757H30.8108V93.5135Z" fill="black"/>
<path d="M35.1351 93.5135H32.973V95.6757H35.1351V93.5135Z" fill="black"/>
<path d="M39.4595 93.5135H37.2973V95.6757H39.4595V93.5135Z" fill="black"/>
<path d="M41.6216 93.5135H39.4595V95.6757H41.6216V93.5135Z" fill="black"/>
<path d="M48.1081 93.5135H45.9459V95.6757H48.1081V93.5135Z" fill="black"/>
<path d="M50.2703 93.5135H48.1081V95.6757H50.2703V93.5135Z" fill="black"/>
<path d="M52.4324 93.5135H50.2703V95.6757H52.4324V93.5135Z" fill="black"/>
<path d="M54.5946 93.5135H52.4324V95.6757H54.5946V93.5135Z" fill="black"/>
<path d="M67.5676 93.5135H65.4054V95.6757H67.5676V93.5135Z" fill="black"/>
<path d="M74.0541 93.5135H71.8919V95.6757H74.0541V93.5135Z" fill="black"/>
<path d="M78.3784 93.5135H76.2162V95.6757H78.3784V93.5135Z" fill="black"/>
<path d="M84.8649 93.5135H82.7027V95.6757H84.8649V93.5135Z" fill="black"/>
<path d="M89.1892 93.5135H87.027V95.6757H89.1892V93.5135Z" fill="black"/>
<path d="M91.3513 93.5135H89.1892V95.6757H91.3513V93.5135Z" fill="black"/>
<path d="M93.5135 93.5135H91.3513V95.6757H93.5135V93.5135Z" fill="black"/>
<path d="M100 93.5135H97.8378V95.6757H100V93.5135Z" fill="black"/>
<path d="M22.1622 95.6757H20V97.8378H22.1622V95.6757Z" fill="black"/>
<path d="M35.1351 95.6757H32.973V97.8378H35.1351V95.6757Z" fill="black"/>
<path d="M50.2703 95.6757H48.1081V97.8378H50.2703V95.6757Z" fill="black"/>
<path d="M52.4324 95.6757H50.2703V97.8378H52.4324V95.6757Z" fill="black"/>
<path d="M54.5946 95.6757H52.4324V97.8378H54.5946V95.6757Z" fill="black"/>
<path d="M63.2432 95.6757H61.0811V97.8378H63.2432V95.6757Z" fill="black"/>
<path d="M69.7297 95.6757H67.5676V97.8378H69.7297V95.6757Z" fill="black"/>
<path d="M71.8919 95.6757H69.7297V97.8378H71.8919V95.6757Z" fill="black"/>
<path d="M76.2162 95.6757H74.0541V97.8378H76.2162V95.6757Z" fill="black"/>
<path d="M80.5405 95.6757H78.3784V97.8378H80.5405V95.6757Z" fill="black"/>
<path d="M82.7027 95.6757H80.5405V97.8378H82.7027V95.6757Z" fill="black"/>
<path d="M89.1892 95.6757H87.027V97.8378H89.1892V95.6757Z" fill="black"/>
<path d="M97.8378 95.6757H95.6757V97.8378H97.8378V95.6757Z" fill="black"/>
<path d="M22.1622 97.8378H20V100H22.1622V97.8378Z" fill="black"/>
<path d="M24.3243 97.8378H22.1622V100H24.3243V97.8378Z" fill="black"/>
<path d="M26.4865 97.8378H24.3243V100H26.4865V97.8378Z" fill="black"/>
<path d="M28.6486 97.8378H26.4865V100H28.6486V97.8378Z" fill="black"/>
<path d="M30.8108 97.8378H28.6486V100H30.8108V97.8378Z" fill="black"/>
<path d="M32.973 97.8378H30.8108V100H32.973V97.8378Z" fill="black"/>
<path d="M35.1351 97.8378H32.973V100H35.1351V97.8378Z" fill="black"/>
<path d="M41.6216 97.8378H39.4595V100H41.6216V97.8378Z" fill="black"/>
<path d="M50.2703 97.8378H48.1081V100H50.2703V97.8378Z" fill="black"/>
<path d="M52.4324 97.8378H50.2703V100H52.4324V97.8378Z" fill="black"/>
<path d="M54.5946 97.8378H52.4324V100H54.5946V97.8378Z" fill="black"/>
<path d="M56.7568 97.8378H54.5946V100H56.7568V97.8378Z" fill="black"/>
<path d="M58.9189 97.8378H56.7568V100H58.9189V97.8378Z" fill="black"/>
<path d="M65.4054 97.8378H63.2432V100H65.4054V97.8378Z" fill="black"/>
<path d="M67.5676 97.8378H65.4054V100H67.5676V97.8378Z" fill="black"/>
<path d="M69.7297 97.8378H67.5676V100H69.7297V97.8378Z" fill="black"/>
<path d="M76.2162 97.8378H74.0541V100H76.2162V97.8378Z" fill="black"/>
<path d="M78.3784 97.8378H76.2162V100H78.3784V97.8378Z" fill="black"/>
<path d="M82.7027 97.8378H80.5405V100H82.7027V97.8378Z" fill="black"/>
<path d="M87.027 97.8378H84.8649V100H87.027V97.8378Z" fill="black"/>
<path d="M91.3513 97.8378H89.1892V100H91.3513V97.8378Z" fill="black"/>
<path d="M97.8378 97.8378H95.6757V100H97.8378V97.8378Z" fill="black"/>
<path d="M100 97.8378H97.8378V100H100V97.8378Z" fill="black"/>
<path fill-rule="evenodd" clip-rule="evenodd" d="M9 14C9 11.2386 11.2386 9 14 9H20C20.5523 9 21 9.44772 21 10C21 10.5523 20.5523 11 20 11H14C12.3431 11 11 12.3431 11 14V20C11 20.5523 10.5523 21 10 21C9.44772 21 9 20.5523 9 20V14Z" fill="#31CE6F"/>
<path fill-rule="evenodd" clip-rule="evenodd" d="M9 106C9 108.761 11.2386 111 14 111H20C20.5523 111 21 110.552 21 110C21 109.448 20.5523 109 20 109H14C12.3431 109 11 107.657 11 106V100C11 99.4477 10.5523 99 10 99C9.44772 99 9 99.4477 9 100V106Z" fill="#31CE6F"/>
<path fill-rule="evenodd" clip-rule="evenodd" d="M111 14C111 11.2386 108.761 9 106 9H100C99.4477 9 99 9.44772 99 10C99 10.5523 99.4477 11 100 11H106C107.657 11 109 12.3431 109 14V20C109 20.5523 109.448 21 110 21C110.552 21 111 20.5523 111 20V14Z" fill="#31CE6F"/>
<path fill-rule="evenodd" clip-rule="evenodd" d="M111 106C111 108.761 108.761 111 106 111H100C99.4477 111 99 110.552 99 110C99 109.448 99.4477 109 100 109H106C107.657 109 109 107.657 109 106V100C109 99.4477 109.448 99 110 99C110.552 99 111 99.4477 111 100V106Z" fill="#31CE6F"/>
</svg>
