<svg width="44" height="44" viewBox="0 0 44 44" fill="none" xmlns="http://www.w3.org/2000/svg">
<rect width="44" height="44" rx="12" fill="#1ED760"/>
<circle cx="22" cy="22" r="14" fill="#1ED760"/>
<path d="M27.501 27.623C27.2626 28.0025 26.7541 28.1087 26.3569 27.881C23.2263 26.0593 19.3013 25.6494 14.6612 26.6514C14.2162 26.7425 13.7713 26.4844 13.6759 26.0593C13.5806 25.6343 13.8507 25.2092 14.2957 25.1181C19.3649 24.0099 23.719 24.4805 27.215 26.5299C27.6122 26.7576 27.7394 27.2434 27.501 27.623ZM29.1219 24.1617C28.8199 24.6323 28.1843 24.769 27.6917 24.4957C24.1162 22.3856 18.6657 21.7783 14.4387 23.008C13.8825 23.1598 13.3104 22.8714 13.1515 22.3552C12.9926 21.8239 13.2945 21.2774 13.8507 21.1256C18.6816 19.7289 24.6883 20.3969 28.804 22.8106C29.2649 23.0839 29.4238 23.6911 29.1219 24.1617ZM29.2649 20.5487C24.9743 18.1197 17.9029 17.892 13.8031 19.0761C13.1515 19.2735 12.4523 18.9243 12.2457 18.2867C12.0392 17.6643 12.4205 16.9964 13.0721 16.799C17.7758 15.4327 25.5941 15.706 30.5203 18.4993C31.1082 18.8332 31.2989 19.5619 30.9493 20.1236C30.6156 20.7005 29.8528 20.8978 29.2649 20.5487Z" fill="black"/>
</svg>
