<svg width="44" height="44" viewBox="0 0 44 44" fill="none" xmlns="http://www.w3.org/2000/svg">
<rect width="44" height="44" rx="12" fill="#31CE6F"/>
<path fill-rule="evenodd" clip-rule="evenodd" d="M17.9254 11.0012C12.497 10.9209 7.98633 14.8397 7.98633 19.4615C7.98633 22.1293 9.26358 24.4438 11.736 26.143C11.736 26.143 10.8298 29.0808 10.8427 29.1397C10.8556 29.1987 11.0528 29.3144 11.1215 29.2766C11.1901 29.2388 14.397 27.3599 14.397 27.3599C16.6953 28.135 18.0973 27.9443 18.3366 27.9117C18.3532 27.9095 18.3642 27.908 18.3695 27.9076C18.1242 27.2021 17.9635 26.1035 18.1465 25.068C19.1047 19.6488 24.7524 17.9631 27.8478 18.251C26.993 14.3374 23.2803 11.0804 17.9254 11.0012ZM14.1523 15.4492C13.4402 15.4492 12.8631 16.0164 12.8631 16.7161C12.8631 17.4158 13.4402 17.983 14.1523 17.983C14.8645 17.983 15.4418 17.4158 15.4418 16.7161C15.4418 16.0164 14.8645 15.4492 14.1523 15.4492ZM21.9579 15.4492C21.2459 15.4492 20.6686 16.0164 20.6686 16.7161C20.6686 17.4158 21.2459 17.983 21.9579 17.983C22.67 17.983 23.2473 17.4158 23.2473 16.7161C23.2473 16.0164 22.6701 15.4492 21.9579 15.4492Z" fill="white"/>
<path fill-rule="evenodd" clip-rule="evenodd" d="M35.7939 25.8925C35.7939 21.9331 31.8963 18.9003 27.3746 18.9003C22.5869 18.9003 18.7683 22.0016 18.7683 25.9608C18.7683 29.9273 22.4004 33.2109 27.3801 33.2378C28.3823 33.2433 29.8752 32.9902 30.8818 32.5771C30.8818 32.5771 33.2882 34.0105 33.423 33.9999C33.5577 33.9893 33.6267 33.8845 33.6321 33.7946C33.6374 33.7047 32.8654 31.4673 32.8654 31.4673C34.9316 29.8776 35.7939 28.1259 35.7939 25.8925ZM24.2234 22.1855C23.5934 22.1855 23.0827 22.6881 23.0827 23.3083C23.0827 23.9282 23.5934 24.431 24.2234 24.431C24.8534 24.431 25.3641 23.9284 25.3641 23.3083C25.3641 22.6881 24.8534 22.1855 24.2234 22.1855ZM30.3231 22.1855C29.693 22.1855 29.1823 22.6881 29.1823 23.3083C29.1823 23.9282 29.693 24.431 30.3231 24.431C30.9532 24.431 31.4639 23.9284 31.4639 23.3083C31.4639 22.6881 30.9532 22.1855 30.3231 22.1855Z" fill="white"/>
</svg>
