<svg width="20" height="20" viewBox="0 0 20 20" fill="none" xmlns="http://www.w3.org/2000/svg">
<path d="M9.24911 4.02279C9.50705 3.32574 10.493 3.32574 10.7509 4.02279L12.0347 7.49226C12.1158 7.71141 12.2886 7.8842 12.5077 7.96529L15.9772 9.24911C16.6743 9.50705 16.6743 10.493 15.9772 10.7509L12.5077 12.0347C12.2886 12.1158 12.1158 12.2886 12.0347 12.5077L10.7509 15.9772C10.493 16.6743 9.50705 16.6743 9.24911 15.9772L7.96529 12.5077C7.8842 12.2886 7.71141 12.1158 7.49226 12.0347L4.02279 10.7509C3.32574 10.493 3.32574 9.50705 4.02279 9.24911L7.49226 7.96529C7.71141 7.8842 7.8842 7.71141 7.96529 7.49226L9.24911 4.02279Z" fill="black" stroke="black" stroke-width="0.928567" stroke-linejoin="round"/>
</svg>
