<svg width="104" height="64" viewBox="0 0 104 64" fill="none" xmlns="http://www.w3.org/2000/svg">
<path fill-rule="evenodd" clip-rule="evenodd" d="M55.5484 47.1545C55.024 47.9677 55.0802 49.0486 55.7938 49.7022C60.0637 53.6134 65.7531 56 71.9999 56C85.2547 56 95.9999 45.2548 95.9999 32C95.9999 18.7452 85.2547 8 71.9999 8C65.7531 8 60.0637 10.3866 55.7938 14.2978C55.0802 14.9514 55.024 16.0323 55.5484 16.8455C58.3653 21.2136 59.9999 26.4159 59.9999 32C59.9999 37.5841 58.3653 42.7864 55.5484 47.1545ZM80.9999 42C83.7613 42 85.9999 39.7614 85.9999 37C85.9999 34.2386 83.7613 32 80.9999 32C78.2385 32 75.9999 34.2386 75.9999 37C75.9999 39.7614 78.2385 42 80.9999 42Z" fill="black"/>
<path fill-rule="evenodd" clip-rule="evenodd" d="M32 56C45.2548 56 56 45.2548 56 32C56 18.7452 45.2548 8 32 8C18.7452 8 8 18.7452 8 32C8 45.2548 18.7452 56 32 56ZM41 42C43.7614 42 46 39.7614 46 37C46 34.2386 43.7614 32 41 32C38.2386 32 36 34.2386 36 37C36 39.7614 38.2386 42 41 42Z" fill="black"/>
</svg>
