<svg width="78" height="48" viewBox="0 0 78 48" fill="none" xmlns="http://www.w3.org/2000/svg">
<path fill-rule="evenodd" clip-rule="evenodd" d="M41.6607 35.3659C41.2674 35.9758 41.3096 36.7865 41.8448 37.2766C45.0472 40.21 49.3143 42 53.9994 42C63.9405 42 71.9994 33.9411 71.9994 24C71.9994 14.0589 63.9405 6 53.9994 6C49.3143 6 45.0472 7.78997 41.8448 10.7234C41.3096 11.2135 41.2674 12.0242 41.6607 12.6341C43.7734 15.9102 44.9994 19.8119 44.9994 24C44.9994 28.1881 43.7734 32.0898 41.6607 35.3659ZM60.7496 31.5C62.8207 31.5 64.4996 29.8211 64.4996 27.75C64.4996 25.6789 62.8207 24 60.7496 24C58.6786 24 56.9996 25.6789 56.9996 27.75C56.9996 29.8211 58.6786 31.5 60.7496 31.5Z" fill="black"/>
<path fill-rule="evenodd" clip-rule="evenodd" d="M24 42C33.9411 42 42 33.9411 42 24C42 14.0589 33.9411 6 24 6C14.0589 6 6 14.0589 6 24C6 33.9411 14.0589 42 24 42ZM30.75 31.5C32.8211 31.5 34.5 29.8211 34.5 27.75C34.5 25.6789 32.8211 24 30.75 24C28.6789 24 27 25.6789 27 27.75C27 29.8211 28.6789 31.5 30.75 31.5Z" fill="black"/>
</svg>
