<?xml version="1.0" encoding="utf-8"?>
<!-- Generator: Adobe Illustrator 27.0.0, SVG Export Plug-In . SVG Version: 6.00 Build 0)  -->
<svg version="1.1" id="图层_1" xmlns="http://www.w3.org/2000/svg" xmlns:xlink="http://www.w3.org/1999/xlink" x="0px" y="0px"
	 viewBox="0 0 100 100" style="enable-background:new 0 0 100 100;" xml:space="preserve">
<style type="text/css">
	.st0{fill-rule:evenodd;clip-rule:evenodd;}
	.st1{fill-rule:evenodd;clip-rule:evenodd;fill:#FFFFFF;}
</style>
<path class="st0" d="M58.6,50c0,6.9-2.3,13.3-6.2,18.5c4.9,5.3,11.9,8.5,19.7,8.5c14.9,0,27-12.1,27-27S87,23,72.1,23
	c-7.8,0-14.8,3.3-19.7,8.5C56.3,36.7,58.6,43.1,58.6,50z M83.8,62.6c3.5,0,6.3-2.8,6.3-6.3c0-3.5-2.8-6.3-6.3-6.3s-6.3,2.8-6.3,6.3
	C77.5,59.8,80.3,62.6,83.8,62.6z"/>
<path class="st0" d="M28,77c14.9,0,27-12.1,27-27S42.9,23,28,23S1,35.1,1,50S13.1,77,28,77z M39.7,62.6c3.5,0,6.3-2.8,6.3-6.3
	c0-3.5-2.8-6.3-6.3-6.3s-6.3,2.8-6.3,6.3C33.4,59.8,36.2,62.6,39.7,62.6z"/>
<circle class="st1" cx="83.8" cy="56.3" r="6.3"/>
<circle class="st1" cx="39.7" cy="56.3" r="6.3"/>
</svg>
