<?xml version="1.0" encoding="UTF-8"?>
<svg id="_图层_2" data-name="图层 2" xmlns="http://www.w3.org/2000/svg" viewBox="0 0 740 800">
  <defs>
    <style>
      .cls-1 {
        fill: #f7dd03;
      }

      .cls-2 {
        fill: #f9b604;
      }

      .cls-3 {
        fill: #ebebeb;
      }

      .cls-4 {
        fill: #f4f4f4;
      }

      .cls-5 {
        fill: #fff;
      }

      .cls-6 {
        fill: #ffee13;
      }

      .cls-7 {
        fill: #b76cff;
      }

      .cls-8 {
        fill: #119bff;
      }

      .cls-9 {
        fill: #0cbf4c;
      }

      .cls-10 {
        fill-rule: evenodd;
      }
    </style>
  </defs>
  <g id="Scenes">
    <rect class="cls-4" width="740" height="800"/>
    <g>
      <rect class="cls-5" x="291.33" y="514.27" width="334.17" height="115.02" rx="57.51" ry="57.51"/>
      <path class="cls-10" d="M543.98,591.22c0,1.6-.19,2.45-.57,3.31-.38,.86-.86,1.53-1.45,2.12-.59,.37-1.25,.69-1.99,.86-.74,.17-1.46,.25-2.16,.25h-7.84c-.31,0-.69-.29-.69-.64v-19.62l1.21,.63v-24.85c0-.35,.19-.64,.57-.64h7.84c.7,0,1.42,.08,2.16,.25,.74,.17,1.71,.49,1.99,.97,.59,.48,1.07,1.15,1.45,2,.38,.98,.57,2.24,.57,3.31v10.63c0,.65-.15,1.32-.44,2.02-.21,.59-.7,1.09-1.35,1.49-.17,.1-.17,.34,0,.44,.65,.41,1.14,.9,1.35,1.49,.3,.7,.44,1.58,.44,2.03v9.69l-1.09-.83v5.07Zm-4.96-32.04c0-.36-.23-.61-.69-.74-.24-.07-.74-.12-1.17-.15-.4-.03-.74,.55-.74,.64v11.35c0,.39,.38,.69,.8,.63,.44,.06,1.16-.16,1.15-.26,.44-.19,.65-.47,.65-.84v-10.63Zm0,18.11c0-.36-.23-.61-.69-.74-.24-.07-.74-.12-1.17-.15-.4-.03-.74,.26-.74,.64v4.77l-1.09-.63v10.34c0,.35,.31,.64,.69,.64l1.3-.19c.37-.1,.62-.26,.62-.62v-8.87l1.09,.63v-5.81Zm-11.58,19.83c0,.35-.49,.64-.87,.64h-4.51c-.38,0-.69-.29-.69-.64v-21.04c0-.35-.31-.64-.69-.64h-1.48c-.38,0-.69,.29-.69,.64v21.04c0,.35-.31,.64-.69,.64h-4.51c-.38,0-.69-.29-.69-.64v-29.04l1.09,.49v-8.34c0-1.63,.21-2.97,.63-4.01,.53-1.04,.96-1.85,1.62-2.43,.66-.58,1.39-.99,2.21-1.21,.81-.22,1.61-.33,2.4-.33h.92c.79,0,1.58,.11,2.4,.33,.81,.22,1.55,.62,2.51,1.21,.36,.58,.9,1.4,1.32,2.43,.42,1.04,.63,2.38,.63,4.01v16.94l-.91-.63v20.58Zm-4.97-38.53c0-.36-.07-.6-.21-.72-.14-.12-.39-.18-.76-.18h-.92c-.39,0-.65,.06-.78,.18-.13,.12-.19,.36-.19,.72v11.56c0,.3,.31,.59,.69,.59h1.48c.38,0,.69-.29,.69-.59v-11.56Zm-12.54,39.16h-8.91c-.68,0-1.24-.41-1.24-1.15v-36.05l1.09,.63v-7.61c0-.52,.46-.94,1.02-.94h4.02c.56,0,1.02,.42,1.02,.94v11.29l-.84-.63v27.28c0,.35,.05,.64,.43,.64h3.41c.38,0,.69,.29,.69,.64v4.33c0,.35-.31,.64-.69,.64Zm-29.39-.04l-1.36-1.58c-4.21,1.79-8.98,2.74-14.1,2.74-15.47,0-28.02-9.19-30.82-22.74-3.13,15.15-18.6,22.74-31.01,22.74-17.96,0-31.49-11.69-31.49-28.45s14.55-28.48,31.49-28.48c20.12,0,28.76,13.73,30.58,20.05h-20.13c-2.49-2.62-5.11-4.22-10.45-4.22-8.18,0-13.98,5.8-13.98,12.65s5.91,12.86,13.98,12.86c5.57,0,9.51-2.27,10.57-3.9h-8.41v-13.49l28.62-.02s0,.07,0,.23c2.39-14.65,16.04-24.16,31.04-24.16,16.94,0,31.49,11.73,31.49,28.38,0,7.06-2.39,13.28-6.48,18.01l7.51,8.85-17.05,.52Zm-15.46-39.93c-8.18,0-13.87,5.38-13.87,12.54s5.79,12.96,13.87,12.96c1.02,0,2.05,0,3.21-.21l-9.16-10.53,16.97-.53,2.27,2.64c.45-1.37,.68-2.84,.68-4.32,0-7.16-5.8-12.54-13.98-12.54Zm-78.01,41.98c.6,0,.74,.14,.88,.43l-.61,.21c-.05-.08-.14-.13-.25-.13-.23,0-.36,.18-.36,.38,0,.18,.12,.35,.33,.35,.1,0,.23-.04,.26-.15h-.29v-.39h1c0,.27,0,.5-.22,.71-.19,.19-.48,.29-.76,.29-.54,0-.98-.31-.98-.84s.43-.86,.99-.86Zm2.33,.48h-.55v.16h.5v.43h-.5v.16h.57v.45h-1.22v-1.54h1.2v.34Zm1.41,.46h.02c-.03-.14-.05-.28-.05-.42v-.39h.62v1.54h-.62l-.57-.87h-.02c.02,.11,.04,.22,.04,.33v.54h-.62v-1.54h.62l.58,.81Zm2.1-.38l-.36-.02v1.13h-.65v-1.13l-.36,.02v-.43h1.36v.43Zm.81,.58h.54v.53h-1.19v-1.54h.65v1.01Zm1.92-.67h-.55v.16h.5v.43h-.5v.16h.57v.45h-1.22v-1.54h1.2v.34Zm1.17-.34l.25,.76h.02c.36-.07,.16-.08,.37-.22l-.12-.54h.66l.5,1.54h-.83l-.09-.9h-.01c-.01,.05-.02,.11,.26,.16l-.56,.74h-.38l-.23-.7c-.02-.07-.04-.14-.04-.2h-.02c0,.06,0,.13-.02,.2l-.08,.71h-.63l.29-1.54h.67Zm2.83,.34h-.55v.16h.5v.43h-.5v.16h.56v.45h-1.22v-1.54h1.2v.34Zm1.46,.46h.02c-.03-.14-.05-.28-.05-.42v-.39h.62v1.54h-.62l-.57-.87h-.02c.02,.11,.04,.22,.04,.33v.54h-.62v-1.54h.62l.58,.81Zm1.65-.81l-.42,.71h-.47l.29-.71h.61Zm.22,1.07c.12-.01,.26,.06,.4,.06,.06,0,.17-.02,.17-.1s-.09-.08-.15-.09l-.13-.02c-.25-.04-.47-.18-.47-.44,0-.39,.39-.61,.77-.61,.2,0,.39,.32,.57,.15l-.18,.42c-.11-.07,.04-.13-.38-.13-.06,0-.14,.02-.14,.09,0,.06,.08,.07,.13,.08l.4,.03c.03,.06,.23,.19,.23,.62,0,.24-.39,.44-.77,.44-.22,0-.28-.06-.69-.15l.38-.47-.15,.12Zm3.36-1.21c.57,0,.98,.32,.98,.86,0,.18-.05,.35-.16,.5l.26,.27-.51,.23-.12-.24c-.15,.06-.03,.08-.49,.08-.54,0-.95-.34-.95-.85s.45-.86,.98-.86Zm-.01,1.18s.05,0,.07,0l-.15-.15,.4-.07s.02-.06,.02-.09c0-.18-.14-.32-.33-.32-.21,0-.33,.14-.33,.32s.13,.33,.32,.33Zm1.8-.23c0,.13,0,.24,.18,.24s.18-.11,.18-.24v-.81h.65v.87c0,.7-.06,.7-.82,.7-.5,0-.83,0-.83-.7v-.87h.65v.81Zm2.33-.81l.64,1.54h-.69l.1-.12h-.65l-.05,.12h-.69l.62-1.54h.72Zm-.22,.95l-.08-.29c-.02-.07-.03-.14-.04-.21h-.02l.18,.5h-.03Zm2.53-.48c0,.25-.1,.36-.35,.43h0s.07,.06,.11,.11l.39,.54h-.75l-.28-.53h-.01v.53h-.63v-1.54h.78c.4,0,.74,.05,.74,.47Zm-.57-.12h-.33v.47h.28c-.13,0-.02-.16-.02-.32,0-.13-.1-.14,.07-.14Zm.71-.34h1.36v.43l-.36-.02v1.13h-.65v-1.13l-.36,.02v-.43Zm2.72,.34h-.55v.16h.5v.43h-.5v.16h.57v.45h-1.22v-1.54h1.2v.34Zm1.83,.12c0,.25-.02,.36-.34,.43h0s.07,.06,.11,.11l.39,.54h-.75l-.17-.53h.07v.53h-.83v-1.54h.78c.4,0,.74,.05,.74,.47Zm-.84-.12h.14v.47h-.15c.11,0,.21-.16,.21-.32,0-.13-.1-.14-.21-.14Zm1.77,.67h.84v.53h-1.41v-1.54h.57v1.01Zm1.01-1.01l.2,.32h.02c.02,.21,.04-.1,.06-.15l.13-.17h.73l-.61,.83v.71h-.63v-.71l-.62-.83h.73Z"/>
    </g>
    <g>
      <rect class="cls-9" x="300.52" y="197.51" width="138.95" height="61.44" rx="30.72" ry="30.72" transform="translate(-53.01 328.48) rotate(-45)"/>
      <rect class="cls-9" x="339.28" y="158.75" width="61.44" height="138.95" rx="30.72" ry="30.72" transform="translate(-53.01 328.48) rotate(-45)"/>
      <g>
        <path d="M363.9,239.72l1.09,4.72-3.43,.51c-.44,2.16-1.66,4.24-3.65,6.23-2.3,2.3-4.69,3.56-7.17,3.78-2.48,.22-4.67-.61-6.54-2.49-1.88-1.88-2.71-4.06-2.49-6.54,.22-2.48,1.48-4.87,3.78-7.17s4.7-3.57,7.19-3.79c2.48-.22,4.67,.61,6.54,2.49,.93,.93,1.61,1.96,2.05,3.11l2.63-.83Zm-8.91,8.54c.89-.89,1.51-1.75,1.83-2.58l-3.68,.56-.68-2.92,4.21-1.32c-.2-.36-.5-.73-.88-1.12-1.07-1.07-2.25-1.54-3.51-1.39-1.27,.15-2.56,.88-3.87,2.19s-2.03,2.58-2.17,3.85c-.15,1.27,.32,2.44,1.39,3.51s2.25,1.54,3.51,1.39c1.27-.15,2.55-.87,3.85-2.17Z"/>
        <path d="M380.61,223.01l1.09,4.72-3.43,.51c-.44,2.16-1.66,4.24-3.65,6.23-2.3,2.3-4.69,3.56-7.17,3.78-2.48,.22-4.66-.61-6.54-2.49-1.88-1.88-2.71-4.06-2.49-6.54,.22-2.48,1.48-4.87,3.78-7.17s4.7-3.57,7.19-3.79c2.48-.22,4.67,.61,6.54,2.49,.93,.93,1.61,1.96,2.05,3.11l2.63-.83Zm-8.91,8.54c.89-.89,1.5-1.75,1.83-2.58l-3.68,.56-.68-2.92,4.21-1.32c-.2-.36-.5-.73-.88-1.12-1.07-1.07-2.25-1.54-3.51-1.39-1.27,.15-2.56,.88-3.87,2.19s-2.03,2.58-2.17,3.85c-.15,1.27,.32,2.44,1.39,3.51s2.25,1.54,3.51,1.39c1.27-.15,2.55-.87,3.85-2.17Z"/>
        <path d="M397.33,206.29l1.09,4.72-3.43,.51c-.44,2.16-1.66,4.24-3.65,6.23-2.3,2.3-4.69,3.56-7.17,3.78-2.48,.22-4.67-.61-6.54-2.49-1.88-1.88-2.71-4.06-2.49-6.54,.22-2.48,1.48-4.87,3.78-7.17s4.7-3.57,7.19-3.79c2.48-.22,4.67,.61,6.54,2.49,.93,.93,1.61,1.96,2.05,3.11l2.63-.83Zm-8.91,8.54c.89-.89,1.51-1.75,1.83-2.58l-3.68,.56-.68-2.92,4.21-1.32c-.2-.36-.5-.73-.88-1.12-1.07-1.07-2.25-1.54-3.51-1.39-1.27,.15-2.56,.88-3.87,2.19s-2.03,2.58-2.17,3.85c-.15,1.27,.32,2.44,1.39,3.51s2.25,1.54,3.51,1.39c1.27-.15,2.55-.87,3.85-2.17Z"/>
      </g>
    </g>
    <g>
      <circle class="cls-8" cx="190.84" cy="228.23" r="60"/>
      <g>
        <path d="M211.87,207.24c-6.55,0-11.88-5.33-11.88-11.88,0-1.1,.9-2,2-2s2,.9,2,2c0,4.34,3.53,7.88,7.88,7.88,1.1,0,2,.9,2,2s-.9,2-2,2Z"/>
        <ellipse cx="201.73" cy="216.89" rx="4.71" ry="8.31"/>
      </g>
      <g>
        <path d="M170.74,207.24c-1.1,0-2-.9-2-2s.9-2,2-2c4.34,0,7.88-3.53,7.88-7.88,0-1.1,.9-2,2-2s2,.9,2,2c0,6.55-5.33,11.88-11.88,11.88Z"/>
        <ellipse cx="180.88" cy="216.89" rx="4.71" ry="8.31"/>
      </g>
      <g>
        <path class="cls-3" d="M215.35,246.05c-.99,0-1.85-.74-1.98-1.75-.14-1.1,.64-2.1,1.73-2.23,15.55-1.96,39.73-8.52,41.73-11.32,.59-.93,1.83-1.2,2.76-.61,.93,.59,1.2,1.83,.61,2.77-3.38,5.3-33.17,11.69-44.6,13.13-.09,.01-.17,.02-.25,.02Z"/>
        <path class="cls-3" d="M207.79,264.58c-.99,0-1.85-.74-1.98-1.75-.14-1.1,.64-2.1,1.73-2.23,15.55-1.96,39.73-8.52,41.73-11.32,.59-.93,1.83-1.2,2.76-.61,.93,.59,1.2,1.83,.61,2.77-3.38,5.3-33.17,11.69-44.6,13.13-.09,.01-.17,.02-.25,.02Z"/>
      </g>
      <g>
        <path class="cls-3" d="M223.89,236.61c-10.76,2.34-21.63,3.53-32.59,3.74-10.96-.21-21.83-1.4-32.59-3.74-1.86-.41-3.62,1.02-3.62,2.93v27.38c0,1.33,.87,2.51,2.14,2.88,11.17,3.22,22.54,4.42,34.07,3.93,11.53,.49,22.9-.7,34.07-3.93,1.27-.37,2.14-1.55,2.14-2.88v-27.38c0-1.91-1.76-3.34-3.62-2.93Z"/>
        <path class="cls-3" d="M167.26,246.05c-.08,0-.17,0-.25-.02-11.43-1.44-41.21-7.83-44.6-13.13-.59-.93-.32-2.17,.61-2.76,.93-.59,2.17-.32,2.76,.61,2,2.79,26.18,9.35,41.73,11.31,1.1,.14,1.87,1.14,1.73,2.23-.13,1.01-.99,1.75-1.98,1.75Z"/>
        <path class="cls-3" d="M174.82,264.58c-.08,0-.17,0-.25-.02-11.43-1.44-41.21-7.83-44.6-13.13-.59-.93-.32-2.17,.61-2.76,.93-.59,2.17-.32,2.76,.61,2,2.79,26.18,9.35,41.73,11.31,1.1,.14,1.87,1.14,1.73,2.23-.13,1.01-.99,1.75-1.98,1.75Z"/>
      </g>
    </g>
    <g>
      <rect class="cls-6" x="493.34" y="170.82" width="114.81" height="114.81" rx="2.98" ry="2.98"/>
      <g>
        <path d="M519.68,212.44v-16.8h4.85v12.67h10.63v4.13h-15.48Z"/>
        <path d="M544.06,212.82c-2.18,0-3.92-.58-5.24-1.75s-1.98-2.71-1.98-4.63,.66-3.46,1.98-4.63,3.07-1.75,5.24-1.75,3.88,.5,5.2,1.5c1.32,1,2,2.32,2.03,3.95v1.97h-9.65c.42,1.09,1.62,1.63,3.62,1.63,.46,0,.91-.02,1.34-.06,.43-.04,.79-.09,1.07-.14,.28-.06,.59-.14,.94-.25,.34-.11,.6-.2,.76-.26,.16-.06,.4-.17,.73-.31,.33-.14,.55-.24,.66-.29v3.86c-1.12,.42-2.13,.72-3.04,.9-.9,.18-2.12,.28-3.66,.28Zm-2.54-7.03l5.09-.12c-.06-.58-.33-1.01-.79-1.3-.46-.29-1.05-.43-1.75-.43-.64,0-1.19,.16-1.66,.47-.46,.31-.76,.77-.89,1.38Z"/>
        <path d="M557.93,212.68c-1.5,0-2.48-.31-2.93-.94s-.67-1.83-.67-3.62v-4.13h-1.37v-3.55h1.85v-2.88l4.37-.48v3.36h2.38v3.55h-2.38v3.41c0,.45,0,.76,.02,.95,.02,.18,.07,.38,.16,.58,.09,.2,.23,.32,.42,.37,.19,.05,.46,.07,.82,.07,.13,0,.45-.02,.96-.05v2.88c-1.18,.32-2.39,.48-3.62,.48Z"/>
        <path d="M563.4,202.12l-.41-6.48h4.08l-.79,6.48h-2.88Z"/>
        <path d="M575.72,212.82c-2.13,0-4.27-.31-6.43-.94v-4.06c1.81,.69,3.71,1.03,5.71,1.03,2.11,0,3.17-.19,3.17-.58,0-.24-.23-.41-.7-.5-.46-.1-1.04-.14-1.74-.12-.7,.02-1.45-.02-2.27-.11-.82-.09-1.57-.22-2.27-.38s-1.28-.5-1.74-1.01-.7-1.15-.7-1.93c0-1.39,.63-2.44,1.88-3.13s2.98-1.04,5.17-1.04c1.71,0,3.71,.22,6,.67v4.06c-1.97-.42-3.73-.62-5.28-.62-2.11,0-3.17,.17-3.17,.5,0,.19,.32,.3,.97,.34,.65,.03,1.43,.06,2.35,.08,.92,.02,1.84,.11,2.76,.25,.92,.14,1.7,.5,2.35,1.06,.65,.56,.97,1.33,.97,2.3,0,2.75-2.35,4.13-7.06,4.13Z"/>
        <path d="M518.96,236.44v-12h5.18l-.48,4.94h.24c.3-1.97,.91-3.35,1.81-4.14s2.31-1.19,4.21-1.19c1.06,.02,1.89,.16,2.5,.44,.61,.28,1.1,.81,1.48,1.58,.38,.78,.61,1.88,.71,3.3h.24c.3-1.97,.91-3.35,1.81-4.14,.9-.79,2.31-1.19,4.21-1.19,.9,.02,1.62,.12,2.18,.3,.56,.18,1.05,.54,1.48,1.06,.42,.52,.72,1.25,.9,2.18,.18,.94,.26,2.15,.26,3.64v5.21h-4.85v-4.8c0-1.54-.2-2.58-.61-3.12s-1.12-.82-2.15-.82c-.96,0-1.76,.45-2.39,1.34-.63,.9-.95,2.02-.95,3.36v4.03h-4.85v-4.8c0-1.54-.2-2.58-.61-3.12s-1.12-.82-2.15-.82c-.96,0-1.76,.45-2.39,1.34-.63,.9-.95,2.02-.95,3.36v4.03h-4.85Z"/>
        <path d="M554.84,236.82c-2.18,0-3.92-.58-5.24-1.75s-1.98-2.71-1.98-4.63,.66-3.46,1.98-4.63,3.07-1.75,5.24-1.75,3.88,.5,5.2,1.5,2,2.32,2.03,3.95v1.97h-9.65c.42,1.09,1.62,1.63,3.62,1.63,.46,0,.91-.02,1.34-.06,.43-.04,.79-.09,1.07-.14,.28-.06,.59-.14,.94-.25,.34-.11,.6-.2,.76-.26,.16-.06,.4-.17,.73-.31,.33-.14,.55-.24,.66-.29v3.86c-1.12,.42-2.13,.72-3.04,.9-.9,.18-2.12,.28-3.66,.28Zm-2.54-7.03l5.09-.12c-.06-.58-.33-1.01-.79-1.3-.46-.29-1.05-.43-1.75-.43-.64,0-1.19,.16-1.66,.47-.46,.31-.76,.77-.89,1.38Z"/>
        <path d="M525.68,260.82c-2.13,0-4.27-.31-6.43-.94v-4.06c1.81,.69,3.71,1.03,5.71,1.03,2.11,0,3.17-.19,3.17-.58,0-.24-.23-.41-.7-.5-.46-.1-1.04-.14-1.74-.12-.7,.02-1.45-.02-2.27-.11s-1.57-.22-2.27-.38c-.7-.17-1.28-.5-1.74-1.01-.46-.5-.7-1.15-.7-1.93,0-1.39,.63-2.44,1.88-3.13,1.26-.7,2.98-1.04,5.17-1.04,1.71,0,3.71,.22,6,.67v4.06c-1.97-.42-3.73-.62-5.28-.62-2.11,0-3.17,.17-3.17,.5,0,.19,.32,.3,.97,.34,.65,.03,1.43,.06,2.35,.08,.92,.02,1.84,.11,2.76,.25,.92,.14,1.71,.5,2.35,1.06,.65,.56,.97,1.33,.97,2.3,0,2.75-2.35,4.13-7.06,4.13Z"/>
        <path d="M541.16,260.82c-2.18,0-3.92-.58-5.24-1.75-1.32-1.17-1.98-2.71-1.98-4.63s.66-3.46,1.98-4.63c1.32-1.17,3.07-1.75,5.24-1.75s3.88,.5,5.2,1.5c1.32,1,2,2.32,2.03,3.95v1.97h-9.65c.42,1.09,1.62,1.63,3.62,1.63,.46,0,.91-.02,1.34-.06,.43-.04,.79-.09,1.07-.14,.28-.06,.59-.14,.94-.25,.34-.11,.6-.2,.76-.26,.16-.06,.4-.17,.73-.31,.33-.14,.55-.24,.66-.29v3.86c-1.12,.42-2.13,.72-3.04,.9-.9,.18-2.12,.28-3.66,.28Zm-2.54-7.03l5.09-.12c-.06-.58-.33-1.01-.79-1.3-.46-.29-1.05-.43-1.75-.43-.64,0-1.19,.16-1.66,.47-.46,.31-.76,.77-.89,1.38Z"/>
        <path d="M557.04,260.82c-2.18,0-3.92-.58-5.24-1.75-1.32-1.17-1.98-2.71-1.98-4.63s.66-3.46,1.98-4.63c1.32-1.17,3.07-1.75,5.24-1.75s3.88,.5,5.2,1.5,2,2.32,2.03,3.95v1.97h-9.65c.42,1.09,1.62,1.63,3.62,1.63,.46,0,.91-.02,1.34-.06,.43-.04,.79-.09,1.07-.14,.28-.06,.59-.14,.94-.25,.34-.11,.6-.2,.76-.26,.16-.06,.4-.17,.73-.31,.33-.14,.55-.24,.66-.29v3.86c-1.12,.42-2.13,.72-3.04,.9-.9,.18-2.12,.28-3.66,.28Zm-2.54-7.03l5.09-.12c-.06-.58-.33-1.01-.79-1.3-.46-.29-1.05-.43-1.75-.43-.64,0-1.19,.16-1.66,.47-.46,.31-.76,.77-.89,1.38Z"/>
      </g>
    </g>
    <g>
      <ellipse class="cls-7" cx="370" cy="400" rx="82.31" ry="47.69"/>
      <g>
        <path class="cls-5" d="M323.73,407.64l9.14-15.28h4.74l9.14,15.28h-5.22l-1.44-2.58h-9.71l-1.44,2.58h-5.22Zm8.75-6.33h5.52l-2.75-4.98-2.77,4.98Z"/>
        <path class="cls-5" d="M347.96,407.64v-15.28h11.24c1.54,0,2.78,.45,3.72,1.35,.94,.9,1.41,2.01,1.41,3.32,0,1.5-.47,2.65-1.42,3.45-.95,.8-2.18,1.2-3.71,1.2h-6.83v5.96h-4.41Zm4.39-9.49h6.31c.84,0,1.27-.37,1.27-1.11s-.42-1.13-1.27-1.13h-6.31v2.25Z"/>
        <path class="cls-5" d="M366.29,407.64v-15.28h11.24c1.54,0,2.78,.45,3.72,1.35,.94,.9,1.41,2.01,1.41,3.32,0,1.5-.47,2.65-1.42,3.45-.95,.8-2.18,1.2-3.71,1.2h-6.83v5.96h-4.41Zm4.39-9.49h6.31c.84,0,1.27-.37,1.27-1.11s-.42-1.13-1.27-1.13h-6.31v2.25Z"/>
        <path class="cls-5" d="M384.62,407.64v-15.28h4.41v11.52h9.67v3.75h-14.08Z"/>
        <path class="cls-5" d="M400.88,407.64v-15.28h15.39v3.75h-10.98v1.99h10.78v3.56h-10.78v2.23h10.98v3.75h-15.39Z"/>
      </g>
    </g>
    <g>
      <path class="cls-1" d="M246.79,383.9c-.44,1.09-.65,2.24-.65,3.37,0,.31,.02,.61,.05,.91-3.55-2.73-8.64-2.5-11.91,.68l-.02,.02c-1.74,1.68-4.03,2.57-6.36,2.57-1.13,0-2.28-.21-3.37-.65-1.1-.44-2.25-.65-3.37-.65-3.54,0-6.9,2.07-8.39,5.52-1.42,3.3-4.65,5.46-8.24,5.52h-.02c-4.93,.07-8.91,4.05-8.99,8.99v.02c-.03,1.8-.58,3.5-1.54,4.93-.96,1.43-2.32,2.59-3.98,3.3-3.44,1.48-5.52,4.84-5.52,8.39,0,1.12,.21,2.27,.65,3.37,1.32,3.34,.57,7.15-1.93,9.73l-.02,.02c-3.43,3.54-3.43,9.16,0,12.71l.02,.02c1.47,1.51,2.33,3.43,2.54,5.45-.28-.2-.54-.43-.8-.68l-.02-.02c-2.58-2.51-6.39-3.26-9.73-1.93h0c-4.59,1.83-9.8-.33-11.75-4.87-.71-1.66-1.87-3.02-3.3-3.98-1.43-.95-3.14-1.51-4.94-1.54h-.02c-4.93-.07-8.91-4.05-8.99-8.99h0c-.05-3.61-2.21-6.84-5.51-8.26-3.45-1.48-5.53-4.84-5.53-8.39,0-1.12,.21-2.27,.65-3.37,.43-1.09,.65-2.24,.65-3.37,0-2.33-.89-4.62-2.57-6.36l-.02-.02c-3.43-3.54-3.43-9.16,0-12.7l.02-.02c2.5-2.58,3.26-6.39,1.93-9.73-.43-1.1-.65-2.25-.65-3.37,0-3.54,2.07-6.9,5.53-8.39,1.65-.7,3.01-1.87,3.97-3.3,.96-1.43,1.52-3.14,1.54-4.94h0c.06-4.94,4.05-8.92,8.98-9h.02c3.6-.06,6.82-2.21,8.25-5.52,1.48-3.44,4.84-5.52,8.38-5.52,1.13,0,2.27,.2,3.38,.65,1.09,.43,2.24,.65,3.37,.65,2.33,0,4.62-.9,6.36-2.58l.02-.02c3.54-3.42,9.16-3.43,12.7,0l.02,.02c2.58,2.51,6.39,3.26,9.73,1.93,1.11-.44,2.25-.65,3.37-.65,3.54,0,6.9,2.07,8.39,5.52,.7,1.66,1.87,3.02,3.3,3.98,1.43,.95,3.14,1.51,4.93,1.54h.02c4.93,.07,8.91,4.05,8.99,8.99h0c.06,3.61,2.21,6.84,5.52,8.26,3.44,1.48,5.52,4.84,5.52,8.39,0,1.12-.2,2.26-.65,3.37Z"/>
      <path class="cls-2" d="M248.73,406.35v.02c-2.52,2.58-3.27,6.39-1.94,9.73,.44,1.11,.65,2.25,.65,3.37,0,3.54-2.07,6.9-5.52,8.39-1.66,.7-3.02,1.87-3.98,3.3-.95,1.43-1.51,3.14-1.54,4.94h0c-.07,4.94-4.05,8.92-8.99,9h-.02c-3.59,.06-6.82,2.21-8.24,5.52-1.48,3.45-4.84,5.53-8.39,5.53-1.12,0-2.27-.21-3.37-.65h0c-3.34-1.33-7.15-.58-9.73,1.93l-.02,.02c-3.28,3.18-8.36,3.42-11.9,.68-.2-2.02-1.06-3.94-2.54-5.45l-.02-.02c-3.43-3.54-3.43-9.17,0-12.71l.02-.02c2.5-2.58,3.25-6.39,1.93-9.73-.43-1.1-.65-2.25-.65-3.37,0-3.54,2.07-6.9,5.52-8.39,1.66-.71,3.02-1.87,3.98-3.3,.95-1.43,1.51-3.14,1.54-4.93v-.02c.07-4.93,4.05-8.91,8.99-8.99h.02c3.59-.06,6.82-2.21,8.24-5.52,1.48-3.44,4.84-5.52,8.39-5.52,1.12,0,2.27,.21,3.37,.65,1.09,.43,2.24,.65,3.37,.65,2.33,0,4.62-.89,6.36-2.57l.02-.02c3.28-3.18,8.36-3.42,11.91-.68,.2,2.01,1.07,3.94,2.54,5.45v.02c3.44,3.54,3.44,9.16,0,12.7Z"/>
    </g>
    <g>
      <path class="cls-7" d="M239.4,566.67h0c11.22-11.22,12.56-29.34,2.35-41.49-11.63-13.84-32.32-14.51-44.82-2.01l-.52,.52c-2.82,2.82-7.39,2.82-10.22,0h0c-11.65-11.65-30.64-12.52-42.7-1.29-12.66,11.79-12.93,31.62-.8,43.75l.52,.52c2.82,2.82,2.82,7.39,0,10.22h0c-11.22,11.22-12.56,29.34-2.36,41.49,11.63,13.84,32.32,14.51,44.82,2.01l.52-.52c2.82-2.82,7.39-2.82,10.22,0h0c11.65,11.65,30.64,12.52,42.7,1.29,12.66-11.79,12.93-31.62,.8-43.75l-.52-.52c-2.82-2.82-2.82-7.39,0-10.22Z"/>
      <path class="cls-5" d="M164.19,617.81c-5.69,0-10.85-2.42-14.54-6.81-6.22-7.4-5.48-18.82,1.68-25.98,3.53-3.53,5.48-8.23,5.48-13.23s-1.95-9.7-5.48-13.23l-.53-.52c-3.66-3.66-5.62-8.52-5.53-13.7,.09-5.17,2.24-9.98,6.04-13.52,3.38-3.15,7.85-4.88,12.59-4.88,5.26,0,10.42,2.14,14.16,5.88,3.54,3.53,8.23,5.48,13.23,5.48s9.7-1.95,13.23-5.48l.52-.52c3.57-3.57,8.32-5.54,13.37-5.54,5.68,0,10.84,2.42,14.54,6.81,6.22,7.41,5.48,18.82-1.68,25.98-7.29,7.3-7.29,19.17,0,26.46l.52,.52c3.66,3.66,5.63,8.53,5.53,13.71-.09,5.17-2.24,9.97-6.04,13.52-3.38,3.15-7.85,4.88-12.59,4.88-5.26,0-10.42-2.14-14.16-5.88-3.53-3.53-8.23-5.48-13.23-5.48s-9.7,1.95-13.23,5.48l-.52,.52c-3.57,3.57-8.32,5.54-13.37,5.54Zm-.28-87.87c-3.73,0-7.23,1.35-9.86,3.8-3,2.8-4.69,6.58-4.77,10.66-.07,4.08,1.47,7.92,4.35,10.8l.53,.52c4.29,4.29,6.65,10,6.65,16.06s-2.36,11.77-6.65,16.06c-5.71,5.71-6.35,14.75-1.45,20.58,2.92,3.47,6.99,5.39,11.47,5.39,3.98,0,7.73-1.55,10.54-4.37l.52-.52c4.29-4.29,9.99-6.65,16.06-6.65s11.77,2.36,16.06,6.65c2.99,2.99,7.12,4.71,11.33,4.71,3.73,0,7.23-1.35,9.86-3.8,3-2.8,4.69-6.58,4.76-10.66,.07-4.08-1.48-7.92-4.36-10.81l-.52-.52c-8.85-8.85-8.85-23.26,0-32.12,5.71-5.71,6.34-14.75,1.45-20.58-2.92-3.47-6.99-5.38-11.47-5.38-3.98,0-7.73,1.55-10.54,4.37l-.52,.52c-4.29,4.29-9.99,6.65-16.06,6.65s-11.77-2.36-16.06-6.65c-2.99-2.99-7.12-4.71-11.33-4.71Z"/>
      <g>
        <g>
          <path class="cls-5" d="M204.07,584.55q-12.74-12.67-25.76,.23,12.89-12.96,.23-25.76,12.74,12.67,25.76-.23-12.89,12.96-.23,25.76Z"/>
          <path class="cls-5" d="M180.22,586.69l-3.81-3.81c5.35-5.38,8.89-8.94,8.91-11.08,.02-2.11-3.44-5.6-8.69-10.87l3.82-3.81c5.26,5.23,8.74,8.69,10.85,8.69h.02c2.14-.02,5.7-3.56,11.08-8.91l3.81,3.81c-5.35,5.38-8.89,8.94-8.91,11.08-.02,2.11,3.44,5.6,8.69,10.87l-3.82,3.81c-5.26-5.23-8.73-8.69-10.85-8.69h-.02c-2.14,.02-5.7,3.56-11.08,8.91Zm10.5-15.49c.03,.39,.03,.78,0,1.17,.39-.04,.78-.04,1.17,0-.03-.39-.03-.78,0-1.17-.39,.04-.78,.04-1.17,0Z"/>
        </g>
        <g>
          <path class="cls-5" d="M204.07,584.55q-12.74-12.67-25.76,.23,12.89-12.96,.23-25.76,12.74,12.67,25.76-.23-12.89,12.96-.23,25.76Z"/>
          <path class="cls-5" d="M180.22,586.69l-3.81-3.81c5.35-5.38,8.89-8.94,8.91-11.08,.02-2.11-3.44-5.6-8.69-10.87l3.82-3.81c5.26,5.23,8.74,8.69,10.85,8.69h.02c2.14-.02,5.7-3.56,11.08-8.91l3.81,3.81c-5.35,5.38-8.89,8.94-8.91,11.08-.02,2.11,3.44,5.6,8.69,10.87l-3.82,3.81c-5.26-5.23-8.73-8.69-10.85-8.69h-.02c-2.14,.02-5.7,3.56-11.08,8.91Zm10.5-15.49c.03,.39,.03,.78,0,1.17,.39-.04,.78-.04,1.17,0-.03-.39-.03-.78,0-1.17-.39,.04-.78,.04-1.17,0Z"/>
        </g>
      </g>
    </g>
    <g>
      <path class="cls-8" d="M575.44,453.82c-9.21,0-17.87-4.16-24.7-11.55-6.83,7.4-15.48,11.55-24.7,11.55-21.88,0-39.02-22.83-39.02-51.98s17.14-51.98,39.02-51.98c9.21,0,17.87,4.16,24.7,11.55,6.83-7.4,15.48-11.55,24.7-11.55,21.88,0,39.02,22.83,39.02,51.98s-17.14,51.98-39.02,51.98Z"/>
      <g>
        <path class="cls-5" d="M575.44,359.1c-10.28,0-19.35,7.48-24.7,18.85-5.35-11.37-14.42-18.85-24.7-18.85-16.45,0-29.78,19.13-29.78,42.74s13.33,42.74,29.78,42.74c10.28,0,19.35-7.48,24.7-18.85,5.35,11.37,14.42,18.85,24.7,18.85,16.45,0,29.78-19.13,29.78-42.74s-13.33-42.74-29.78-42.74Z"/>
        <path d="M575.44,446.43c-9.69,0-18.73-6.17-24.7-16.68-5.97,10.51-15.01,16.68-24.7,16.68-17.44,0-31.63-20-31.63-44.58s14.19-44.58,31.63-44.58c9.69,0,18.73,6.17,24.7,16.68,5.97-10.51,15.01-16.68,24.7-16.68,17.44,0,31.63,20,31.63,44.58s-14.19,44.58-31.63,44.58Zm-24.7-25.04l1.67,3.55c5.24,11.14,13.85,17.79,23.03,17.79,15.4,0,27.93-18.34,27.93-40.89s-12.53-40.89-27.93-40.89c-9.18,0-17.79,6.65-23.03,17.79l-1.67,3.55-1.67-3.55c-5.24-11.14-13.85-17.79-23.03-17.79-15.4,0-27.93,18.34-27.93,40.89s12.53,40.89,27.93,40.89c9.18,0,17.78-6.65,23.03-17.79l1.67-3.55Z"/>
      </g>
      <g>
        <g>
          <ellipse class="cls-5" cx="526.05" cy="401.84" rx="29.78" ry="42.74"/>
          <path d="M526.05,446.43c-17.44,0-31.63-20-31.63-44.58s14.19-44.58,31.63-44.58,31.63,20,31.63,44.58-14.19,44.58-31.63,44.58Zm0-85.47c-15.4,0-27.93,18.34-27.93,40.89s12.53,40.89,27.93,40.89,27.93-18.34,27.93-40.89-12.53-40.89-27.93-40.89Z"/>
        </g>
        <g>
          <ellipse class="cls-5" cx="575.44" cy="401.84" rx="29.78" ry="42.74"/>
          <path d="M575.44,446.43c-17.44,0-31.63-20-31.63-44.58s14.19-44.58,31.63-44.58,31.63,20,31.63,44.58-14.19,44.58-31.63,44.58Zm0-85.47c-15.4,0-27.93,18.34-27.93,40.89s12.53,40.89,27.93,40.89,27.93-18.34,27.93-40.89-12.53-40.89-27.93-40.89Z"/>
        </g>
        <ellipse cx="510.8" cy="403.14" rx="15.83" ry="21.51"/>
        <ellipse cx="560.39" cy="403.14" rx="15.83" ry="21.51"/>
      </g>
      <polygon class="cls-5" points="563.31 403.14 587.03 379.42 587.03 426.85 563.31 403.14"/>
      <polygon class="cls-5" points="513.73 403.14 537.44 379.42 537.44 426.85 513.73 403.14"/>
    </g>
  </g>
</svg>